SplineFontDB: 3.0
FontName: Parastoo
FullName: Parastoo
FamilyName: Parastoo
Weight: Regular
Copyright: Copyright (c) 2003 by Bitstream, Inc. All Rights Reserved.\nDejaVu changes are in public domain\nCopyright (c) 2015 by Saber Rastikerdar. All Rights Reserved.
Version: 0.11.2
ItalicAngle: 0
UnderlinePosition: -205
UnderlineWidth: 100
Ascent: 1638
Descent: 410
InvalidEm: 0
LayerCount: 2
Layer: 0 1 "Back" 1
Layer: 1 1 "Fore" 0
XUID: [1021 502 1027637223 13145481]
UniqueID: 4174021
UseUniqueID: 1
FSType: 0
OS2Version: 1
OS2_WeightWidthSlopeOnly: 0
OS2_UseTypoMetrics: 1
CreationTime: 1431850356
ModificationTime: 1459099163
PfmFamily: 17
TTFWeight: 400
TTFWidth: 5
LineGap: 0
VLineGap: 0
Panose: 2 11 6 3 3 8 4 2 2 4
OS2TypoAscent: 2000
OS2TypoAOffset: 0
OS2TypoDescent: -1000
OS2TypoDOffset: 0
OS2TypoLinegap: 0
OS2WinAscent: 2000
OS2WinAOffset: 0
OS2WinDescent: 1000
OS2WinDOffset: 0
HheadAscent: 2000
HheadAOffset: 0
HheadDescent: -1000
HheadDOffset: 0
OS2SubXSize: 1331
OS2SubYSize: 1433
OS2SubXOff: 0
OS2SubYOff: 286
OS2SupXSize: 1331
OS2SupYSize: 1433
OS2SupXOff: 0
OS2SupYOff: 983
OS2StrikeYSize: 102
OS2StrikeYPos: 530
OS2Vendor: 'PfEd'
OS2CodePages: 600001ff.dfff0000
Lookup: 1 0 0 "'case' Case-Sensitive Forms in Latin lookup 0" { "'case' Case-Sensitive Forms in Latin lookup 0 subtable"  } ['case' ('DFLT' <'dflt' > 'latn' <'CAT ' 'ESP ' 'GAL ' 'dflt' > ) ]
Lookup: 6 1 0 "'ccmp' Glyph Composition/Decomposition lookup 2" { "'ccmp' Glyph Composition/Decomposition lookup 2 subtable"  } ['ccmp' ('arab' <'KUR ' 'SND ' 'URD ' 'dflt' > 'hebr' <'dflt' > 'nko ' <'dflt' > ) ]
Lookup: 6 0 0 "'ccmp' Glyph Composition/Decomposition lookup 3" { "'ccmp' Glyph Composition/Decomposition lookup 3 subtable"  } ['ccmp' ('cyrl' <'MKD ' 'SRB ' 'dflt' > 'grek' <'dflt' > 'latn' <'ISM ' 'KSM ' 'LSM ' 'MOL ' 'NSM ' 'ROM ' 'SKS ' 'SSM ' 'dflt' > ) ]

StartChar: afii57388
Encoding: 1548 1548 2
Width: 801
VWidth: 2799
GlyphClass: 2
Flags: W
LayerCount: 2
Fore
SplineSet
396.014648438 14.15625 m 2,0,1
 273 14.15625 273 14.15625 273 143.762695312 c 2,2,-1
 273 223.412109375 l 2,3,4
 273 522.75390625 273 522.75390625 535.30859375 669.529296875 c 0,5,6
 583.819914446 696.791815254 583.819914446 696.791815254 583.14453125 670.315429688 c 0,7,8
 583.039308026 666.230664129 583.039308026 666.230664129 551.604219117 638.899262688 c 4,9,10
 393 501 393 501 392.4375 298.03515625 c 1,11,-1
 450.4453125 298.03515625 l 2,12,13
 561.150390625 297.805664062 561.150390625 297.805664062 561.150390625 171.72265625 c 2,14,-1
 561.150390625 128.443359375 l 2,15,16
 561.452148438 14.15625 561.452148438 14.15625 443.229492188 14.15625 c 2,17,-1
 396.014648438 14.15625 l 2,0,1
EndSplineSet
EndChar

StartChar: uni0615
Encoding: 1557 1557 3
Width: 0
VWidth: 2838
GlyphClass: 4
Flags: W
AnchorPoint: "Anchor-10" 636.893 1534.72 mark 0
AnchorPoint: "Anchor-9" 636.893 1534.72 mark 0
AnchorPoint: "Anchor-1" 636.893 2438.47 basemark 0
AnchorPoint: "Anchor-1" 636.893 1534.72 mark 0
LayerCount: 2
Fore
SplineSet
535.91796875 1757.15234375 m 1,0,-1
 642.431640625 1757.15234375 l 2,1,2
 728.21454328 1756.76487646 728.21454328 1756.76487646 782.473970859 1775.61778979 c 128,-1,3
 836.733398438 1794.47070312 836.733398438 1794.47070312 857.958007812 1820.02441406 c 128,-1,4
 879.181640625 1845.57910156 879.181640625 1845.57910156 880.233398438 1882.3125 c 0,5,6
 881.518554688 1961.6328125 881.518554688 1961.6328125 811.416015625 1968.52832031 c 0,7,8
 788.630932219 1970.8062505 788.630932219 1970.8062505 761.326171875 1958.79003906 c 0,9,10
 665.18367511 1912.93546603 665.18367511 1912.93546603 535.91796875 1757.15234375 c 1,0,-1
974.735351562 1896.21777344 m 0,11,12
 974.942382812 1666.82324219 974.942382812 1666.82324219 674.432617188 1666.82324219 c 2,13,-1
 300.443359375 1666.82324219 l 1,14,-1
 300.443359375 1757.15234375 l 1,15,-1
 413.063476562 1757.15234375 l 1,16,-1
 413.063476562 2311.91601562 l 1,17,-1
 504.784179688 2311.91601562 l 1,18,-1
 504.784179688 1806.08300781 l 1,19,20
 610.935922244 1946.59850784 610.935922244 1946.59850784 711.166691591 2009.37103126 c 128,-1,21
 811.397460938 2072.14355469 811.397460938 2072.14355469 881.784179688 2043.16015625 c 0,22,23
 974.942704725 2005.895969 974.942704725 2005.895969 974.735351562 1896.21777344 c 0,11,12
EndSplineSet
EndChar

StartChar: uni061B
Encoding: 1563 1563 4
Width: 812
VWidth: 2799
GlyphClass: 2
Flags: W
LayerCount: 2
Fore
SplineSet
572.55859375 648.611328125 m 2,0,1
 572.861461148 534.32421875 572.861461148 534.32421875 454.638671875 534.32421875 c 2,2,-1
 407.422851562 534.32421875 l 2,3,4
 284.408203125 534.32421875 284.408203125 534.32421875 284.408203125 663.931640625 c 2,5,-1
 284.408203125 743.581054688 l 2,6,7
 284.408203125 1042.92285156 284.408203125 1042.92285156 546.716796875 1189.69824219 c 0,8,9
 582.233398438 1209.65625 582.233398438 1209.65625 591.885253906 1198.38769531 c 128,-1,10
 601.537109375 1187.11914062 601.537109375 1187.11914062 559.16796875 1156.23974609 c 128,-1,11
 516.798828125 1125.36035156 516.798828125 1125.36035156 479.130859375 1073.99511719 c 0,12,13
 403.782508375 971.245057136 403.782508375 971.245057136 399.55859375 818.205078125 c 1,14,-1
 461.853515625 818.205078125 l 2,15,16
 572.55859375 817.974901932 572.55859375 817.974901932 572.55859375 691.891601562 c 2,17,-1
 572.55859375 648.611328125 l 2,0,1
293.256835938 148.96875 m 128,-1,19
 293.256835938 205.913085938 293.256835938 205.913085938 333.3203125 245.9765625 c 128,-1,20
 373.384765625 286.041015625 373.384765625 286.041015625 431.420898438 286.041015625 c 128,-1,21
 489.458984375 286.041015625 489.458984375 286.041015625 529.5234375 245.9765625 c 128,-1,22
 569.586914062 205.913085938 569.586914062 205.913085938 569.586914062 148.96875 c 128,-1,23
 569.586914062 92.025390625 569.586914062 92.025390625 529.5234375 51.962890625 c 128,-1,24
 489.458984375 11.8994140625 489.458984375 11.8994140625 431.420898438 11.8994140625 c 128,-1,25
 373.384765625 11.8994140625 373.384765625 11.8994140625 333.3203125 51.962890625 c 128,-1,18
 293.256835938 92.025390625 293.256835938 92.025390625 293.256835938 148.96875 c 128,-1,19
EndSplineSet
EndChar

StartChar: uni061F
Encoding: 1567 1567 5
Width: 1148
VWidth: 2792
GlyphClass: 2
Flags: W
LayerCount: 2
Fore
SplineSet
504 148.025390625 m 128,-1,1
 504 204.969726562 504 204.969726562 544.072835156 245.043212188 c 128,-1,2
 584.145670312 285.116697814 584.145670312 285.116697814 642.163655469 285.116454376 c 128,-1,3
 700.181640625 285.116210938 700.181640625 285.116210938 740.266601562 245.033203125 c 128,-1,4
 780.330078125 204.969726562 780.330078125 204.969726562 780.330078125 148.025390625 c 128,-1,5
 780.330078125 91.08203125 780.330078125 91.08203125 740.266601562 51.01953125 c 128,-1,6
 700.181640625 10.9365234375 700.181640625 10.9365234375 642.1640625 10.9365234375 c 128,-1,7
 584.146484375 10.9365234375 584.146484375 10.9365234375 544.0625 51.01953125 c 128,-1,0
 504 91.08203125 504 91.08203125 504 148.025390625 c 128,-1,1
638.928710938 480.633789062 m 0,8,9
 621 482 621 482 618.995117188 512.09375 c 1,10,-1
 617.923828125 564.5546875 l 1,11,12
 609.471576069 744.302829285 609.471576069 744.302829285 467.958984375 841.727539062 c 0,13,14
 456 850 456 850 407 882 c 128,-1,15
 358 914 358 914 337.455078125 929.524414062 c 0,16,17
 169 1056 169 1056 169 1245 c 128,-1,18
 169 1434 169 1434 310.782226562 1553.38964844 c 0,19,20
 424 1649 424 1649 578.028808594 1648.578125 c 0,21,22
 797 1649 797 1649 908.82421875 1524.62695312 c 0,23,24
 985 1440 985 1440 985.5 1301 c 128,-1,25
 986 1162 986 1162 906.84375 1083.29003906 c 0,26,27
 881 1058 881 1058 868.37499132 1075.8381072 c 0,28,29
 856 1094 856 1094 868.648925781 1119.86328125 c 0,30,31
 950 1279 950 1279 878 1381 c 128,-1,32
 806 1483 806 1483 645.232421875 1483.31542969 c 0,33,34
 571 1483 571 1483 507.775390625 1454.99902344 c 0,35,36
 407 1410 407 1410 372.158203125 1313.79394531 c 0,37,38
 320 1165 320 1165 469.594726562 996.877929688 c 0,39,40
 488 976 488 976 542 922.5 c 128,-1,41
 596 869 596 869 620.166015625 834.024414062 c 0,42,43
 680 746 680 746 680 611.5 c 128,-1,44
 680 477 680 477 638.928710938 480.633789062 c 0,8,9
EndSplineSet
EndChar

StartChar: uni0621
Encoding: 1569 1569 6
Width: 882
VWidth: 3092
GlyphClass: 2
Flags: W
AnchorPoint: "Anchor-7" 463.039 -334.895 basechar 0
AnchorPoint: "Anchor-10" 421.83 1271.18 basechar 0
LayerCount: 2
Fore
SplineSet
87.3544921875 -55.0322265625 m 1,0,-1
 173.01171875 157.30078125 l 1,1,2
 331.361328125 232.662109375 331.361328125 232.662109375 397.794921875 254.73828125 c 2,3,-1
 422.641601562 262.995117188 l 1,4,-1
 396.525390625 264.859375 l 2,5,6
 179.331783408 280.371716673 179.331783408 280.371716673 142.487304688 419.061523438 c 0,7,8
 131.015625 462.2421875 131.015625 462.2421875 137.9921875 515.791015625 c 0,9,10
 187.983398438 898.787109375 187.983398438 898.787109375 482.280273438 895.760742188 c 0,11,12
 654.334960938 894.419921875 654.334960938 894.419921875 715.303710938 690.200195312 c 2,13,-1
 718.219726562 680.434570312 l 1,14,15
 444.086914062 759.291992188 444.086914062 759.291992188 348.481445312 680.834960938 c 128,-1,16
 252.875976562 602.377929688 252.875976562 602.377929688 249.78515625 527.098632812 c 0,17,18
 244.922851562 408.697265625 244.922851562 408.697265625 388.690429688 369.244140625 c 0,19,20
 476.068359375 345.262695312 476.068359375 345.262695312 571.225585938 357.974121094 c 128,-1,21
 666.327947735 370.678217853 666.327947735 370.678217853 796.188476562 410.725585938 c 1,22,-1
 705.508789062 205.779296875 l 1,23,24
 581.868164062 171.692382812 581.868164062 171.692382812 414.195106725 94.5512177944 c 0,25,26
 246.522049388 17.4100527762 246.522049388 17.4100527762 87.3544921875 -55.0322265625 c 1,0,-1
EndSplineSet
EndChar

StartChar: uni0627
Encoding: 1575 1575 12
Width: 486
VWidth: 3062
GlyphClass: 2
Flags: W
AnchorPoint: "Anchor-10" 257.945 1701.52 basechar 0
AnchorPoint: "Anchor-7" 248.153 -211.291 basechar 0
LayerCount: 2
Fore
SplineSet
328.249023438 1573.06542969 m 1,0,1
 360 1064 360 1064 334.188476562 337.84765625 c 0,2,3
 322 4 322 4 222.939453125 -12.515625 c 5,4,5
 199 1037 199 1037 186.384765625 1246.06933594 c 4,6,7
 176 1425 176 1425 164.276367188 1479.31640625 c 5,8,-1
 328.249023438 1573.06542969 l 1,0,1
EndSplineSet
Substitution2: "'fina' Terminal Forms in Arabic lookup 9 subtable" uniFE8E
EndChar

StartChar: uni062D
Encoding: 1581 1581 18
Width: 1347
VWidth: 3090
GlyphClass: 2
Flags: W
AnchorPoint: "Anchor-7" 357.084 -963.826 basechar 0
AnchorPoint: "Anchor-10" 605.327 1338.37 basechar 0
LayerCount: 2
Fore
SplineSet
924.587890625 -721.051757812 m 0,0,1
 864 -728 864 -728 766.48046875 -728 c 0,2,3
 404 -728 404 -728 253.240234375 -586.040039062 c 0,4,5
 103 -444 103 -444 103.01171875 -207.66796875 c 0,6,7
 104 212 104 212 503.068359375 389.887695312 c 1,8,9
 607 444 607 444 844.48046875 496.080078125 c 1,10,11
 776 514 776 514 623.479980469 568.359863281 c 0,12,13
 471 623 471 623 381.721679688 613.416992188 c 0,14,15
 254 601 254 601 158.244140625 467.869140625 c 0,16,17
 118 411 118 411 105.678710938 406.786132812 c 1,18,19
 88 425 88 425 138.840332031 546 c 0,20,21
 189 667 189 667 253.819335938 727 c 0,22,23
 320 787 320 787 435.240234375 795.080078125 c 0,24,25
 550 803 550 803 741 703.040039062 c 128,-1,26
 932 603 932 603 1242.98925781 574.302734375 c 1,27,-1
 1199.39746094 410.750976562 l 1,28,29
 1018 401 1018 401 879.486328125 369.04296875 c 24,30,31
 633 313 633 313 480.247070312 226.198242188 c 0,32,33
 197 66 197 66 196.559570312 -187.719726562 c 0,34,35
 197 -280 197 -280 260.138671875 -365.114257812 c 0,36,37
 408.786379962 -564.052427868 408.786379962 -564.052427868 902.400390625 -532.759765625 c 0,38,39
 1120 -519 1120 -519 1174.16015625 -512.719726562 c 0,40,41
 1228 -506 1228 -506 1227.20019531 -509.599609375 c 0,42,43
 1226 -513 1226 -513 1222.23046875 -516.353515625 c 0,44,45
 1029 -709 1029 -709 924.587890625 -721.051757812 c 0,0,1
EndSplineSet
Substitution2: "'fina' Terminal Forms in Arabic lookup 9 subtable" uniFEA2
Substitution2: "'medi' Medial Forms in Arabic lookup 11 subtable" uniFEA4
Substitution2: "'init' Initial Forms in Arabic lookup 13 subtable" uniFEA3
EndChar

StartChar: uni062F
Encoding: 1583 1583 20
Width: 1007
VWidth: 3088
GlyphClass: 2
Flags: W
AnchorPoint: "Anchor-10" 445.745 1432.75 basechar 0
AnchorPoint: "Anchor-7" 369.032 -260.66 basechar 0
LayerCount: 2
Fore
SplineSet
879.194335938 183.126953125 m 0,0,1
 811 -14 811 -14 453.170898438 -11.904296875 c 0,2,3
 317 -11 317 -11 229.56640625 23.6279296875 c 0,4,5
 37 99 37 99 110.5234375 438.614257812 c 1,6,7
 144 455 144 455 178.290039062 438.274414062 c 5,8,9
 134 194 134 194 401.580078125 191.181640625 c 0,10,11
 602 189 602 189 684.9375 212.603515625 c 0,12,13
 768 236 768 236 809.51953125 275.599609375 c 1,14,15
 818 337 818 337 798.8203125 405.671875 c 0,16,17
 747 595 747 595 441.360351562 776.799804688 c 1,18,-1
 498.651367188 1004.39257812 l 1,19,20
 915.246115898 718.143774168 915.246115898 718.143774168 904.783203125 319.876953125 c 0,21,22
 903 252 903 252 879.194335938 183.126953125 c 0,0,1
EndSplineSet
Substitution2: "'fina' Terminal Forms in Arabic lookup 9 subtable" uniFEAA
EndChar

StartChar: uni0631
Encoding: 1585 1585 22
Width: 879
VWidth: 3094
GlyphClass: 2
Flags: W
AnchorPoint: "Anchor-7" 359.078 -946.031 basechar 0
AnchorPoint: "Anchor-10" 463.717 1037.54 basechar 0
LayerCount: 2
Fore
SplineSet
493.522460938 435.619140625 m 5,0,1
 550.48046875 537.6796875 550.48046875 537.6796875 609.0546875 640.755859375 c 5,2,3
 694 513.759765625 694 513.759765625 735.540039062 379.162109375 c 4,4,5
 814.639648438 126.879882812 814.639648438 126.879882812 736.119140625 -105.560546875 c 4,6,7
 657.599609375 -338 657.599609375 -338 457.801757812 -501.608398438 c 4,8,9
 409.040039062 -541.83984375 409.040039062 -541.83984375 355.989257812 -541.646484375 c 4,10,11
 141.759765625 -539.759765625 141.759765625 -539.759765625 6.1904296875 -479.94140625 c 4,12,13
 0.3203125 -477.360351562 0.3203125 -477.360351562 0.83984375 -473.720703125 c 4,14,15
 1.3603515625 -470.080078125 1.3603515625 -470.080078125 48.50390625 -451.881835938 c 4,16,17
 652.400390625 -222.559570312 652.400390625 -222.559570312 685.866210938 88.47265625 c 4,18,19
 696.080078125 184.080078125 696.080078125 184.080078125 493.522460938 435.619140625 c 5,0,1
EndSplineSet
PairPos2: "'kern' Horizontal Kerning lookup 15-4" uni0621 dx=-184 dy=0 dh=-184 dv=0 dx=0 dy=0 dh=0 dv=0
PairPos2: "'kern' Horizontal Kerning lookup 15-3" uni0648 dx=-90 dy=0 dh=-90 dv=0 dx=0 dy=0 dh=0 dv=0
PairPos2: "'kern' Horizontal Kerning lookup 15-1" uni0632 dx=-86 dy=0 dh=-86 dv=0 dx=0 dy=0 dh=0 dv=0
PairPos2: "'kern' Horizontal Kerning lookup 15-1" uni0631 dx=-86 dy=0 dh=-86 dv=0 dx=0 dy=0 dh=0 dv=0
PairPos2: "'kern' Horizontal Kerning lookup 15-1" uni06CC dx=-108 dy=0 dh=-108 dv=0 dx=0 dy=0 dh=0 dv=0
PairPos2: "'kern' Horizontal Kerning lookup 15-1" uniFEEB dx=-184 dy=0 dh=-184 dv=0 dx=0 dy=0 dh=0 dv=0
PairPos2: "'kern' Horizontal Kerning lookup 15-1" uniFB7C dx=-108 dy=0 dh=-108 dv=0 dx=0 dy=0 dh=0 dv=0
PairPos2: "'kern' Horizontal Kerning lookup 15-1" uniFEDF dx=-184 dy=0 dh=-184 dv=0 dx=0 dy=0 dh=0 dv=0
PairPos2: "'kern' Horizontal Kerning lookup 15-1" uniFB90 dx=-184 dy=0 dh=-184 dv=0 dx=0 dy=0 dh=0 dv=0
PairPos2: "'kern' Horizontal Kerning lookup 15-1" uni06A9 dx=-184 dy=0 dh=-184 dv=0 dx=0 dy=0 dh=0 dv=0
PairPos2: "'kern' Horizontal Kerning lookup 15-1" uni0649 dx=-108 dy=0 dh=-108 dv=0 dx=0 dy=0 dh=0 dv=0
PairPos2: "'kern' Horizontal Kerning lookup 15-1" uni0647 dx=-184 dy=0 dh=-184 dv=0 dx=0 dy=0 dh=0 dv=0
PairPos2: "'kern' Horizontal Kerning lookup 15-1" uniFEE7 dx=-184 dy=0 dh=-184 dv=0 dx=0 dy=0 dh=0 dv=0
PairPos2: "'kern' Horizontal Kerning lookup 15-1" uniFEE3 dx=-184 dy=0 dh=-184 dv=0 dx=0 dy=0 dh=0 dv=0
PairPos2: "'kern' Horizontal Kerning lookup 15-1" uni0645 dx=-184 dy=0 dh=-184 dv=0 dx=0 dy=0 dh=0 dv=0
PairPos2: "'kern' Horizontal Kerning lookup 15-1" uni0644 dx=-108 dy=0 dh=-108 dv=0 dx=0 dy=0 dh=0 dv=0
PairPos2: "'kern' Horizontal Kerning lookup 15-1" uniFEDB dx=-184 dy=0 dh=-184 dv=0 dx=0 dy=0 dh=0 dv=0
PairPos2: "'kern' Horizontal Kerning lookup 15-1" uniFED7 dx=-184 dy=0 dh=-184 dv=0 dx=0 dy=0 dh=0 dv=0
PairPos2: "'kern' Horizontal Kerning lookup 15-1" uni0642 dx=-108 dy=0 dh=-108 dv=0 dx=0 dy=0 dh=0 dv=0
PairPos2: "'kern' Horizontal Kerning lookup 15-1" uniFED3 dx=-184 dy=0 dh=-184 dv=0 dx=0 dy=0 dh=0 dv=0
PairPos2: "'kern' Horizontal Kerning lookup 15-1" uni0641 dx=-184 dy=0 dh=-184 dv=0 dx=0 dy=0 dh=0 dv=0
PairPos2: "'kern' Horizontal Kerning lookup 15-1" uniFECF dx=-184 dy=0 dh=-184 dv=0 dx=0 dy=0 dh=0 dv=0
PairPos2: "'kern' Horizontal Kerning lookup 15-1" uniFECB dx=-184 dy=0 dh=-184 dv=0 dx=0 dy=0 dh=0 dv=0
PairPos2: "'kern' Horizontal Kerning lookup 15-1" uniFEC7 dx=-184 dy=0 dh=-184 dv=0 dx=0 dy=0 dh=0 dv=0
PairPos2: "'kern' Horizontal Kerning lookup 15-1" uni0638 dx=-184 dy=0 dh=-184 dv=0 dx=0 dy=0 dh=0 dv=0
PairPos2: "'kern' Horizontal Kerning lookup 15-1" uniFEC3 dx=-184 dy=0 dh=-184 dv=0 dx=0 dy=0 dh=0 dv=0
PairPos2: "'kern' Horizontal Kerning lookup 15-1" uni0637 dx=-184 dy=0 dh=-184 dv=0 dx=0 dy=0 dh=0 dv=0
PairPos2: "'kern' Horizontal Kerning lookup 15-1" uniFEBF dx=-184 dy=0 dh=-184 dv=0 dx=0 dy=0 dh=0 dv=0
PairPos2: "'kern' Horizontal Kerning lookup 15-1" uni0636 dx=-184 dy=0 dh=-184 dv=0 dx=0 dy=0 dh=0 dv=0
PairPos2: "'kern' Horizontal Kerning lookup 15-1" uniFEBB dx=-184 dy=0 dh=-184 dv=0 dx=0 dy=0 dh=0 dv=0
PairPos2: "'kern' Horizontal Kerning lookup 15-1" uni0635 dx=-184 dy=0 dh=-184 dv=0 dx=0 dy=0 dh=0 dv=0
PairPos2: "'kern' Horizontal Kerning lookup 15-1" uniFEB7 dx=-184 dy=0 dh=-184 dv=0 dx=0 dy=0 dh=0 dv=0
PairPos2: "'kern' Horizontal Kerning lookup 15-1" uni0634 dx=-184 dy=0 dh=-184 dv=0 dx=0 dy=0 dh=0 dv=0
PairPos2: "'kern' Horizontal Kerning lookup 15-1" uniFEB3 dx=-184 dy=0 dh=-184 dv=0 dx=0 dy=0 dh=0 dv=0
PairPos2: "'kern' Horizontal Kerning lookup 15-1" uni0633 dx=-184 dy=0 dh=-184 dv=0 dx=0 dy=0 dh=0 dv=0
PairPos2: "'kern' Horizontal Kerning lookup 15-1" uni0630 dx=-184 dy=0 dh=-184 dv=0 dx=0 dy=0 dh=0 dv=0
PairPos2: "'kern' Horizontal Kerning lookup 15-1" uni062F dx=-184 dy=0 dh=-184 dv=0 dx=0 dy=0 dh=0 dv=0
PairPos2: "'kern' Horizontal Kerning lookup 15-1" uniFEA7 dx=-184 dy=0 dh=-184 dv=0 dx=0 dy=0 dh=0 dv=0
PairPos2: "'kern' Horizontal Kerning lookup 15-1" uniFEA3 dx=-184 dy=0 dh=-184 dv=0 dx=0 dy=0 dh=0 dv=0
PairPos2: "'kern' Horizontal Kerning lookup 15-1" uniFE9F dx=-184 dy=0 dh=-184 dv=0 dx=0 dy=0 dh=0 dv=0
PairPos2: "'kern' Horizontal Kerning lookup 15-1" uniFE9B dx=-184 dy=0 dh=-184 dv=0 dx=0 dy=0 dh=0 dv=0
PairPos2: "'kern' Horizontal Kerning lookup 15-1" uni062B dx=-184 dy=0 dh=-184 dv=0 dx=0 dy=0 dh=0 dv=0
PairPos2: "'kern' Horizontal Kerning lookup 15-1" uniFE97 dx=-184 dy=0 dh=-184 dv=0 dx=0 dy=0 dh=0 dv=0
PairPos2: "'kern' Horizontal Kerning lookup 15-1" uni062A dx=-184 dy=0 dh=-184 dv=0 dx=0 dy=0 dh=0 dv=0
PairPos2: "'kern' Horizontal Kerning lookup 15-1" uni0629 dx=-184 dy=0 dh=-184 dv=0 dx=0 dy=0 dh=0 dv=0
PairPos2: "'kern' Horizontal Kerning lookup 15-1" uniFE91 dx=-112 dy=0 dh=-112 dv=0 dx=0 dy=0 dh=0 dv=0
PairPos2: "'kern' Horizontal Kerning lookup 15-1" uni0628 dx=-184 dy=0 dh=-184 dv=0 dx=0 dy=0 dh=0 dv=0
PairPos2: "'kern' Horizontal Kerning lookup 15-1" uni0627 dx=-205 dy=0 dh=-205 dv=0 dx=0 dy=0 dh=0 dv=0
PairPos2: "'kern' Horizontal Kerning lookup 15-1" uni0622 dx=-205 dy=0 dh=-205 dv=0 dx=0 dy=0 dh=0 dv=0
PairPos2: "'kern' Horizontal Kerning lookup 15-1" uniFB94 dx=-184 dy=0 dh=-184 dv=0 dx=0 dy=0 dh=0 dv=0
PairPos2: "'kern' Horizontal Kerning lookup 15-1" afii57509 dx=-184 dy=0 dh=-184 dv=0 dx=0 dy=0 dh=0 dv=0
PairPos2: "'kern' Horizontal Kerning lookup 15-1" uniFB56 dx=-184 dy=0 dh=-184 dv=0 dx=0 dy=0 dh=0 dv=0
PairPos2: "'kern' Horizontal Kerning lookup 15-1" afii57506 dx=-184 dy=0 dh=-184 dv=0 dx=0 dy=0 dh=0 dv=0
Substitution2: "'fina' Terminal Forms in Arabic lookup 9 subtable" uniFEAE
EndChar

StartChar: uni0633
Encoding: 1587 1587 24
Width: 2463
VWidth: 3095
GlyphClass: 2
Flags: W
AnchorPoint: "Anchor-7" 320.185 -896.806 basechar 0
AnchorPoint: "Anchor-10" 594.131 1070.41 basechar 0
LayerCount: 2
Fore
SplineSet
1335.48632812 268.577148438 m 16,0,1
 1391 195 1391 195 1540.96484375 195.024414062 c 4,2,3
 1712.24980377 194.999964342 1712.24980377 194.999964342 1733.88671875 402.091796875 c 2,4,-1
 1738.74023438 448.545898438 l 2,5,6
 1746 517 1746 517 1783.80664062 517.262695312 c 0,7,8
 1817 518 1817 518 1826.83496094 497.831054688 c 0,9,10
 1836.01344361 477.970911083 1836.01344361 477.970911083 1837.07324219 456.306640625 c 2,11,-1
 1838.59375 425.224609375 l 2,12,13
 1850 202 1850 202 2062.85449219 201.921875 c 4,14,15
 2193 202 2193 202 2231.3203125 274.040039062 c 0,16,17
 2257 322 2257 322 2211.56054688 409.759765625 c 0,18,19
 2166 497 2166 497 2114.05566406 556.400390625 c 1,20,-1
 2238.85546875 761.280273438 l 1,21,22
 2347 597 2347 597 2358.19921875 414.959960938 c 0,23,24
 2370 233 2370 233 2290.08007812 113.879882812 c 0,25,26
 2211 -5 2211 -5 2051.40039062 -5.2001953125 c 0,27,28
 1848 -5 1848 -5 1781.54980469 179.471679688 c 1,29,30
 1706 -5 1706 -5 1548.55957031 -3.1201171875 c 0,31,32
 1537 -3 1537 -3 1514.57226562 -3.240234375 c 0,33,34
 1389 -3 1389 -3 1345.62597656 85.166015625 c 1,35,36
 1354 16 1354 16 1351.48046875 -15.599609375 c 0,37,38
 1323 -596 1323 -596 631.719726562 -596.022460938 c 0,39,40
 347 -596 347 -596 208.51953125 -451.879882812 c 0,41,42
 70 -308 70 -308 104.616210938 -65.125 c 24,43,44
 120 46 120 46 192.750976562 170.590820312 c 0,45,46
 238 247 238 247 264.842773438 237.793945312 c 0,47,48
 291 229 291 229 277.435546875 200.565429688 c 1,49,-1
 253.240234375 140.400390625 l 26,50,51
 173 -60 173 -60 239.611328125 -199.120117188 c 0,52,53
 337 -400 337 -400 655.581054688 -391.15234375 c 0,54,55
 1143 -378 1143 -378 1229.79980469 -154.959960938 c 1,56,57
 1218 92 1218 92 1126.83984375 328.639648438 c 1,58,-1
 1251.44726562 478.306640625 l 1,59,60
 1308 304 1308 304 1335.48632812 268.577148438 c 16,0,1
EndSplineSet
Substitution2: "'fina' Terminal Forms in Arabic lookup 9 subtable" uniFEB2
Substitution2: "'medi' Medial Forms in Arabic lookup 11 subtable" uniFEB4
Substitution2: "'init' Initial Forms in Arabic lookup 13 subtable" uniFEB3
EndChar

StartChar: uni0635
Encoding: 1589 1589 26
Width: 2702
VWidth: 3095
GlyphClass: 2
Flags: W
AnchorPoint: "Anchor-10" 614.046 1068.62 basechar 0
AnchorPoint: "Anchor-7" 327.278 -881.709 basechar 0
LayerCount: 2
Fore
SplineSet
1337.04589844 268.577148438 m 24,0,1
 1387.36035156 212.16015625 1387.36035156 212.16015625 1544.44238281 216.575195312 c 5,2,3
 1905.28027344 793.51953125 1905.28027344 793.51953125 2272.28808594 797.331054688 c 4,4,5
 2483.51953125 799.759765625 2483.51953125 799.759765625 2561.40820312 649.650390625 c 4,6,7
 2647.83984375 482.559570312 2647.83984375 482.559570312 2516.68847656 267.970703125 c 4,8,9
 2353.51953125 1.0400390625 2353.51953125 1.0400390625 1851.87011719 0.0107421875 c 6,10,-1
 1624.28222656 -0.6904296875 l 6,11,12
 1444.79589844 -1.244140625 1444.79589844 -1.244140625 1345.10546875 85.166015625 c 1,13,14
 1353.04003906 15.599609375 1353.04003906 15.599609375 1350.95996094 -15.599609375 c 0,15,16
 1312.48046875 -595.919921875 1312.48046875 -595.919921875 631.200195312 -596.022460938 c 0,17,18
 346.3203125 -595.919921875 346.3203125 -595.919921875 208 -451.879882812 c 128,-1,19
 69.6796875 -307.83984375 69.6796875 -307.83984375 104.096679688 -65.125 c 24,20,21
 119.599609375 45.759765625 119.599609375 45.759765625 192.231445312 170.590820312 c 0,22,23
 236.080078125 246.48046875 236.080078125 246.48046875 264.322265625 237.793945312 c 0,24,25
 290.16015625 228.799804688 290.16015625 228.799804688 276.915039062 200.565429688 c 1,26,-1
 252.719726562 140.400390625 l 26,27,28
 172.639648438 -61.3603515625 172.639648438 -61.3603515625 239.091796875 -199.120117188 c 0,29,30
 336.959960938 -400.400390625 336.959960938 -400.400390625 655.060546875 -391.15234375 c 0,31,32
 1142.95996094 -377.51953125 1142.95996094 -377.51953125 1229.28027344 -154.959960938 c 1,33,34
 1217.83984375 91.51953125 1217.83984375 91.51953125 1126.3203125 328.639648438 c 1,35,-1
 1250.92675781 478.306640625 l 1,36,37
 1308.3203125 301.599609375 1308.3203125 301.599609375 1337.04589844 268.577148438 c 24,0,1
1615.35742188 204.96484375 m 5,38,-1
 1887.99023438 204.96484375 l 6,39,40
 2211.96875 204.530273438 2211.96875 204.530273438 2318.20507812 233.358398438 c 4,41,42
 2488.60839844 278.37109375 2488.60839844 278.37109375 2466.72558594 439.862304688 c 132,-1,43
 2444.84277344 601.353515625 2444.84277344 601.353515625 2249.36572266 618.222167969 c 132,-1,44
 2053.88867188 635.090820312 2053.88867188 635.090820312 1837.41210938 458.221679688 c 4,45,46
 1714.93066406 356.384765625 1714.93066406 356.384765625 1615.35742188 204.96484375 c 5,38,-1
EndSplineSet
Substitution2: "'fina' Terminal Forms in Arabic lookup 9 subtable" uniFEBA
Substitution2: "'medi' Medial Forms in Arabic lookup 11 subtable" uniFEBC
Substitution2: "'init' Initial Forms in Arabic lookup 13 subtable" uniFEBB
EndChar

StartChar: uni0637
Encoding: 1591 1591 28
Width: 1571
VWidth: 3095
GlyphClass: 2
Flags: W
AnchorPoint: "Anchor-10" 510.167 1692.11 basechar 0
AnchorPoint: "Anchor-7" 610.365 -323.437 basechar 0
LayerCount: 2
Fore
SplineSet
479.677734375 200.805664062 m 1,0,-1
 752.309570312 200.805664062 l 2,1,2
 1076.28808594 200.37109375 1076.28808594 200.37109375 1182.52441406 229.198242188 c 0,3,4
 1352.92871094 274.2109375 1352.92871094 274.2109375 1331.04589844 435.702148438 c 128,-1,5
 1309.16308594 597.193359375 1309.16308594 597.193359375 1113.68554688 614.062011719 c 128,-1,6
 918.208007812 630.930664062 918.208007812 630.930664062 701.731445312 454.061523438 c 0,7,8
 579.250976562 352.224609375 579.250976562 352.224609375 479.677734375 200.805664062 c 1,0,-1
522.080078125 0 m 1,9,-1
 268.037109375 -0.61328125 l 1,10,11
 154 87 154 87 105.4921875 202.275390625 c 1,12,-1
 399.853515625 202.276367188 l 1,13,14
 429 253 429 253 458.133789062 304.487304688 c 1,15,16
 458.130669538 503.88416578 458.130669538 503.88416578 448.852539062 894.515625 c 4,17,18
 440 1344 440 1344 408.447265625 1476.20703125 c 1,19,-1
 571.151367188 1573.11523438 l 1,20,-1
 643.028834003 1342 l 2,21,22
 661.999999998 1281.00000001 661.999999998 1281.00000001 620 1251.98802311 c 2,23,-1
 570.796287492 1218 l 1,24,-1
 570.01953125 441.166015625 l 1,25,26
 852 790 852 790 1136.60839844 793.170898438 c 0,27,28
 1348 796 1348 796 1430.52001953 637.520019531 c 128,-1,29
 1513 479 1513 479 1381.0078125 263.810546875 c 0,30,31
 1220.02357323 0.0386246268087 1220.02357323 0.0386246268087 716.190429688 0.0107421875 c 2,32,-1
 522.080078125 0 l 1,9,-1
EndSplineSet
Substitution2: "'fina' Terminal Forms in Arabic lookup 9 subtable" uniFEC2
Substitution2: "'medi' Medial Forms in Arabic lookup 11 subtable" uniFEC4
Substitution2: "'init' Initial Forms in Arabic lookup 13 subtable" uniFEC3
EndChar

StartChar: uni0639
Encoding: 1593 1593 30
Width: 1320
VWidth: 3090
GlyphClass: 2
Flags: W
AnchorPoint: "Anchor-10" 776.897 1651.49 basechar 0
AnchorPoint: "Anchor-7" 325.333 -998.156 basechar 0
LayerCount: 2
Fore
SplineSet
103.01171875 -207.66796875 m 0,0,1
 104 212.016601562 104 212.016601562 503.068359375 389.887695312 c 2,2,-1
 527.15625 400.623046875 l 1,3,-1
 502.314453125 409.47265625 l 2,4,5
 309.919921875 478.400390625 309.919921875 478.400390625 305.240234375 644.280273438 c 128,-1,6
 300.559570312 810.16015625 300.559570312 810.16015625 433.63671875 954.03125 c 0,7,8
 592.799804688 1126.3203125 592.799804688 1126.3203125 785.719726562 1089.40039062 c 128,-1,9
 978.639648438 1052.48046875 978.639648438 1052.48046875 1023.3515625 844.932617188 c 1,10,11
 918.3203125 882.959960938 918.3203125 882.959960938 794.559570312 901.6796875 c 128,-1,12
 670.799804688 920.400390625 670.799804688 920.400390625 553.00390625 867.741210938 c 0,13,14
 393.120117188 795.599609375 393.120117188 795.599609375 397.841796875 681.817382812 c 0,15,16
 401.440429688 604.240234375 401.440429688 604.240234375 528.818359375 516.6015625 c 0,17,18
 612.559570312 458.639648438 612.559570312 458.639648438 667.6796875 465.919921875 c 0,19,20
 899.026283532 496.476215364 899.026283532 496.476215364 1139.02246094 510.91015625 c 1,21,-1
 1088.87988281 323.440429688 l 1,22,23
 677.040039062 321.360351562 677.040039062 321.360351562 480.247070312 226.198242188 c 0,24,25
 195.51953125 88.400390625 195.51953125 88.400390625 195.51953125 -155.48046875 c 0,26,27
 195.51953125 -278.719726562 195.51953125 -278.719726562 260.138671875 -365.114257812 c 0,28,29
 408.719726562 -563.6796875 408.719726562 -563.6796875 902.400390625 -532.759765625 c 4,30,31
 1120.08007812 -518.959960938 1120.08007812 -518.959960938 1174.16015625 -512.719726562 c 132,-1,32
 1228.24023438 -506.48046875 1228.24023438 -506.48046875 1227.20019531 -509.599609375 c 132,-1,33
 1226.16015625 -512.719726562 1226.16015625 -512.719726562 1222.23046875 -516.353515625 c 4,34,35
 1028.55957031 -709.280273438 1028.55957031 -709.280273438 924.587890625 -721.051757812 c 4,36,37
 865.280273438 -728 865.280273438 -728 766.48046875 -728 c 0,38,39
 403.51953125 -728 403.51953125 -728 253.240234375 -586.040039062 c 128,-1,40
 102.959960938 -444.080078125 102.959960938 -444.080078125 103.01171875 -207.66796875 c 0,0,1
EndSplineSet
Substitution2: "'fina' Terminal Forms in Arabic lookup 9 subtable" uniFECA
Substitution2: "'medi' Medial Forms in Arabic lookup 11 subtable" uniFECC
Substitution2: "'init' Initial Forms in Arabic lookup 13 subtable" uniFECB
EndChar

StartChar: afii57440
Encoding: 1600 1600 32
Width: 899
VWidth: 3117
GlyphClass: 2
Flags: W
AnchorPoint: "Anchor-10" 437.971 1821.89 basechar 0
AnchorPoint: "Anchor-7" 437.971 -189.874 basechar 0
LayerCount: 2
Fore
SplineSet
-10.322265625 -0.61328125 m 5,0,-1
 -10.322265625 201.6015625 l 5,1,-1
 909.875976562 201.6015625 l 1,2,-1
 909.875976562 -0.61328125 l 1,3,-1
 -10.322265625 -0.61328125 l 5,0,-1
EndSplineSet
EndChar

StartChar: uni0643
Encoding: 1603 1603 35
Width: 1944
VWidth: 3062
GlyphClass: 2
Flags: W
AnchorPoint: "Anchor-10" 539.167 1600.81 basechar 0
AnchorPoint: "Anchor-7" 665.557 -311.105 basechar 0
LayerCount: 2
Fore
SplineSet
1175.05566406 797.703125 m 0,0,1
 1045.57421875 632.565429688 1045.57421875 632.565429688 708.4375 685.759765625 c 1,2,-1
 708.4375 754.049804688 l 1,3,4
 862.799804688 734.190429688 862.799804688 734.190429688 926.975585938 745.637695312 c 0,5,6
 1157.26171875 786.70703125 1157.26171875 786.70703125 1157.21875 904.712890625 c 0,7,8
 1157.25097656 999.666015625 1157.25097656 999.666015625 1008.62304688 1023.41601562 c 0,9,10
 842.7734375 1048.31445312 842.7734375 1048.31445312 846.153320312 1201.05175781 c 0,11,12
 848.228515625 1305.7265625 848.228515625 1305.7265625 952.612304688 1358.50488281 c 0,13,14
 1085.81542969 1426.14453125 1085.81542969 1426.14453125 1243.69628906 1440.01269531 c 1,15,-1
 1209.90820312 1364.08007812 l 1,16,17
 1029.51074219 1348.71875 1029.51074219 1348.71875 947.510742188 1277.70703125 c 0,18,19
 909.604492188 1245.44921875 909.604492188 1245.44921875 909.323242188 1197.41503906 c 0,20,21
 908.126953125 1086.82128906 908.126953125 1086.82128906 1037.28417969 1068.10644531 c 0,22,23
 1218.97949219 1041.76757812 1218.97949219 1041.76757812 1219.85742188 951.127929688 c 0,24,25
 1219.44921875 854.3515625 1219.44921875 854.3515625 1175.05566406 797.703125 c 0,0,1
817.959960938 -1.0400390625 m 0,26,27
 411 -7 411 -7 260.767578125 76.2705078125 c 0,28,29
 52 192 52 192 105.491210938 490.311523438 c 0,30,31
 128 614 128 614 178.583984375 696.698242188 c 0,32,33
 205 739 205 739 227.759765625 734.240234375 c 0,34,35
 251 729 251 729 227.239746094 669.240234375 c 0,36,37
 204 609 204 609 192.919921875 522.600097656 c 0,38,39
 182 436 182 436 220.59375 368.955078125 c 0,40,41
 304 224 304 224 645.912109375 207.249023438 c 0,42,43
 754 202 754 202 909 202 c 16,44,45
 1096 202 1096 202 1194.31689453 212.702636719 c 0,46,47
 1543 253 1543 253 1671 357 c 5,48,49
 1681 429 1681 429 1682 535.798828125 c 4,50,51
 1683 789 1683 789 1675.234375 1011.13671875 c 4,52,53
 1663 1325 1663 1325 1641.16796875 1468.87402344 c 5,54,-1
 1799.38769531 1573.453125 l 1,55,-1
 1799.38769531 590.532226562 l 1,56,57
 1784 294 1784 294 1613.43847656 176.211914062 c 0,58,59
 1430 50 1430 50 1162 21 c 0,60,61
 981 2 981 2 817.959960938 -1.0400390625 c 0,26,27
EndSplineSet
Substitution2: "'fina' Terminal Forms in Arabic lookup 9 subtable" uniFEDA
Substitution2: "'medi' Medial Forms in Arabic lookup 11 subtable" uniFEDC
Substitution2: "'init' Initial Forms in Arabic lookup 13 subtable" uniFEDB
EndChar

StartChar: uni0644
Encoding: 1604 1604 36
Width: 1422
VWidth: 3095
GlyphClass: 2
Flags: W
AnchorPoint: "Anchor-10" 549.186 1273.49 basechar 0
AnchorPoint: "Anchor-7" 390.252 -694.594 basechar 0
LayerCount: 2
Fore
SplineSet
1280.24023438 5.919921875 m 24,0,1
 1253 -529 1253 -529 634.561523438 -528.041015625 c 0,2,3
 349 -528 349 -528 211.994140625 -384.977539062 c 128,-1,4
 75 -242 75 -242 107.458007812 2.8564453125 c 24,5,6
 122 110 122 110 195.592773438 238.572265625 c 0,7,8
 239 315 239 315 267.684570312 305.776367188 c 0,9,10
 293 297 293 297 280.27734375 268.547851562 c 0,11,-1
 256.08203125 208.381835938 l 24,12,13
 176 7 176 7 242.453125 -131.138671875 c 0,14,15
 340 -333 340 -333 658.422851562 -323.170898438 c 0,16,17
 1074 -309 1074 -309 1160.2421875 -86.978515625 c 5,18,19
 1162 14 1162 14 1155.83203125 1000.21972656 c 4,20,21
 1155 1122 1155 1122 1146.39648438 1241.58691406 c 4,22,23
 1138 1361 1138 1361 1121.70703125 1478.08398438 c 5,24,-1
 1286.5390625 1573.84179688 l 1,25,-1
 1359.91699219 1341 l 2,26,27
 1380.11406263 1277.64218779 1380.11406263 1277.64218779 1346 1256.62792969 c 2,28,-1
 1286.5390625 1220 l 1,29,-1
 1286.5390625 393.139648438 l 2,30,31
 1287 108 1287 108 1285.32910156 91.935546875 c 0,32,33
 1282 49 1282 49 1280.24023438 5.919921875 c 24,0,1
EndSplineSet
Substitution2: "'fina' Terminal Forms in Arabic lookup 9 subtable" uniFEDE
Substitution2: "'medi' Medial Forms in Arabic lookup 11 subtable" uniFEE0
Substitution2: "'init' Initial Forms in Arabic lookup 13 subtable" uniFEDF
EndChar

StartChar: uni0645
Encoding: 1605 1605 37
Width: 1178
VWidth: 3120
GlyphClass: 2
Flags: W
AnchorPoint: "Anchor-10" 612.862 1302.11 basechar 0
AnchorPoint: "Anchor-7" 206.637 -828.113 basechar 0
LayerCount: 2
Fore
SplineSet
445.876953125 312.24609375 m 1,0,1
 650 293 650 293 779.010742188 292.7890625 c 0,2,3
 908 293 908 293 942.588867188 300.186523438 c 0,4,5
 995.765682178 312.505633514 995.765682178 312.505633514 983.443359375 354.204101562 c 0,6,7
 964 420 964 420 744 540 c 0,8,9
 580.5578785 628.500284765 580.5578785 628.500284765 507 516 c 0,10,11
 456 438 456 438 445.876953125 312.24609375 c 1,0,1
1086.59082031 340.251953125 m 0,12,13
 1053 235 1053 235 943.505859375 133.715820312 c 0,14,15
 918.918453187 110.924409802 918.918453187 110.924409802 803.033203125 115.5625 c 2,16,-1
 434.837890625 130.298828125 l 1,17,18
 305 136 305 136 229 92 c 5,19,-1
 235 -503 l 22,20,21
 235 -505 235 -505 141.358009978 -696 c 4,22,23
 134 -711 134 -711 127 -713.233398438 c 4,24,25
 113.794544712 -717.059528324 113.794544712 -717.059528324 113.004882812 -678.747070312 c 6,26,-1
 103.515625 -218.3515625 l 6,27,28
 99 -6 99 -6 123.139648438 78.2568359375 c 4,29,30
 171 253 171 253 326.37890625 295.459960938 c 1,31,32
 358 628 358 628 472.752929688 723.501953125 c 0,33,34
 597 826 597 826 760 744 c 0,35,36
 984 632 984 632 1080.04199219 389.956054688 c 0,37,38
 1092 360 1092 360 1086.59082031 340.251953125 c 0,12,13
EndSplineSet
Substitution2: "'init' Initial Forms in Arabic lookup 13 subtable" uniFEE3
Substitution2: "'medi' Medial Forms in Arabic lookup 11 subtable" uniFEE4
Substitution2: "'fina' Terminal Forms in Arabic lookup 9 subtable" uniFEE2
EndChar

StartChar: uni0647
Encoding: 1607 1607 39
Width: 864
VWidth: 3089
GlyphClass: 2
Flags: W
AnchorPoint: "Anchor-10" 386.256 1221.98 basechar 0
AnchorPoint: "Anchor-7" 392.26 -291.428 basechar 0
LayerCount: 2
Fore
SplineSet
413.235351562 670.0390625 m 1,0,1
 203 431 203 431 202.594726562 335.02734375 c 0,2,3
 202 181 202 181 452.208007812 182.82421875 c 0,4,5
 622 184 622 184 684.83984375 302.639648438 c 5,6,7
 667 455 667 455 413.235351562 670.0390625 c 1,0,1
142.989257812 134.541992188 m 0,8,9
 105 199 105 199 104.123046875 296.6015625 c 0,10,11
 102 463 102 463 349.25 751.686523438 c 1,12,-1
 302.587890625 786.682617188 l 1,13,-1
 394.9296875 953.880859375 l 1,14,15
 664 715 664 715 744.51171875 435.241210938 c 4,16,17
 815 190 815 190 653.295898438 62.041015625 c 4,18,19
 577 1 577 1 432.900390625 1.197265625 c 0,20,21
 223 1 223 1 142.989257812 134.541992188 c 0,8,9
EndSplineSet
Substitution2: "'fina' Terminal Forms in Arabic lookup 9 subtable" uniFEEA
Substitution2: "'medi' Medial Forms in Arabic lookup 11 subtable" uniFEEC
Substitution2: "'init' Initial Forms in Arabic lookup 13 subtable" uniFEEB
EndChar

StartChar: uni0648
Encoding: 1608 1608 40
Width: 906
VWidth: 3118
GlyphClass: 2
Flags: W
AnchorPoint: "Anchor-10" 463.744 1098.13 basechar 0
AnchorPoint: "Anchor-7" 405.762 -734.729 basechar 0
LayerCount: 2
Fore
SplineSet
512.337890625 709.669921875 m 0,0,1
 629.200195312 710.3203125 629.200195312 710.3203125 706.16015625 574.600097656 c 128,-1,2
 783.120117188 438.879882812 783.120117188 438.879882812 800.800292969 273.520019531 c 128,-1,3
 818.48046875 108.16015625 818.48046875 108.16015625 795.984375 -0.61328125 c 0,4,5
 736.3203125 -299.51953125 736.3203125 -299.51953125 490.341796875 -503.306640625 c 0,6,7
 445.120117188 -540.799804688 445.120117188 -540.799804688 377.5234375 -541.977539062 c 0,8,9
 172.639648438 -544.959960938 172.639648438 -544.959960938 39.9296875 -483.112304688 c 0,10,11
 34.3203125 -480.48046875 34.3203125 -480.48046875 33.21484375 -478.844726562 c 1,12,13
 38.48046875 -471.120117188 38.48046875 -471.120117188 81.787109375 -454.012695312 c 0,14,15
 606.3203125 -246.48046875 606.3203125 -246.48046875 694.78515625 -1.2451171875 c 1,16,-1
 537.423828125 0.8369140625 l 25,17,18
 289.120117188 9.3603515625 289.120117188 9.3603515625 229.5390625 133.3359375 c 0,19,20
 180.959960938 234 180.959960938 234 200.44140625 350.66796875 c 0,21,22
 230.879882812 528.3203125 230.879882812 528.3203125 348.40234375 638.78125 c 0,23,24
 423.280273438 709.280273438 423.280273438 709.280273438 512.337890625 709.669921875 c 0,0,1
682.359375 305.09375 m 0,25,26
 634.400390625 507.51953125 634.400390625 507.51953125 489.09375 507.098632812 c 0,27,28
 359.83984375 507.51953125 359.83984375 507.51953125 310.959960938 375.440429688 c 0,29,30
 293.280273438 327.599609375 293.280273438 327.599609375 294.385742188 250.614257812 c 1,31,32
 338 193.440429688 338 193.440429688 691.837890625 200.169921875 c 1,33,34
 692.639648438 257.919921875 692.639648438 257.919921875 682.359375 305.09375 c 0,25,26
EndSplineSet
Substitution2: "'fina' Terminal Forms in Arabic lookup 9 subtable" uniFEEE
EndChar

StartChar: uni0649
Encoding: 1609 1609 41
Width: 1472
VWidth: 3112
GlyphClass: 2
Flags: W
AnchorPoint: "Anchor-10" 435.326 1207 basechar 0
AnchorPoint: "Anchor-7" 179.647 -719.157 basechar 0
LayerCount: 2
Fore
SplineSet
1349.75976562 -106.6875 m 4,0,1
 1218.71972656 -489.83984375 1218.71972656 -489.83984375 637.859375 -487.432617188 c 4,2,3
 352.400390625 -487.759765625 352.400390625 -487.759765625 214.599609375 -344.240234375 c 4,4,5
 76.7998046875 -200.719726562 76.7998046875 -200.719726562 110.756835938 43.46484375 c 28,6,7
 125.6796875 153.919921875 125.6796875 153.919921875 198.891601562 279.1796875 c 4,8,9
 243.200195312 355.6796875 243.200195312 355.6796875 270.982421875 346.383789062 c 4,10,11
 296.240234375 336.959960938 296.240234375 336.959960938 283.575195312 309.155273438 c 5,12,-1
 259.379882812 248.989257812 l 30,13,14
 178.719726562 46.7998046875 178.719726562 46.7998046875 245.750976562 -90.53125 c 4,15,16
 338.76171875 -282.375 338.76171875 -282.375 661.720703125 -282.563476562 c 4,17,18
 1206.24023438 -282.879882812 1206.24023438 -282.879882812 1274.41992188 -46.3701171875 c 28,19,20
 1279.04003906 -31.2001953125 1279.04003906 -31.2001953125 1245.75976562 -25.48046875 c 4,21,22
 1212.48046875 -19.759765625 1212.48046875 -19.759765625 1053.88085938 -19.759765625 c 4,23,24
 895.280273438 -19.759765625 895.280273438 -19.759765625 838.379882812 27.322265625 c 4,25,26
 722.639648438 122.719726562 722.639648438 122.719726562 801.16015625 387.400390625 c 4,27,28
 879.6796875 652.080078125 879.6796875 652.080078125 1056.84960938 738.159179688 c 4,29,30
 1104.3203125 761.280273438 1104.3203125 761.280273438 1152.62792969 766.866210938 c 4,31,32
 1310.24023438 784.16015625 1310.24023438 784.16015625 1365.56933594 589.783203125 c 4,33,34
 1377.83984375 547.040039062 1377.83984375 547.040039062 1361.57714844 542.565429688 c 4,35,36
 1359.28613281 541.888671875 1359.28613281 541.888671875 1353.40136719 543.7734375 c 6,37,-1
 1304.99902344 559.275390625 l 6,38,39
 1082.48046875 630.240234375 1082.48046875 630.240234375 953.375 467.8671875 c 4,40,41
 877.599609375 373.360351562 877.599609375 373.360351562 870.436523438 267.794921875 c 4,42,43
 864.080078125 165.356445312 864.080078125 165.356445312 1104.98242188 167.008789062 c 6,44,-1
 1133.1171875 167.201171875 l 6,45,46
 1283.20019531 168.48046875 1283.20019531 168.48046875 1319.43554688 144.1328125 c 4,47,48
 1415.28027344 83.2001953125 1415.28027344 83.2001953125 1349.75976562 -106.6875 c 4,0,1
EndSplineSet
Substitution2: "'fina' Terminal Forms in Arabic lookup 9 subtable" uniFEF0
Substitution2: "'medi' Medial Forms in Arabic lookup 11 subtable" uniFBE9
Substitution2: "'init' Initial Forms in Arabic lookup 13 subtable" uniFBE8
EndChar

StartChar: uni064B
Encoding: 1611 1611 43
Width: -22
VWidth: 1985
GlyphClass: 4
Flags: W
AnchorPoint: "Anchor-10" 526.624 955.612 mark 0
AnchorPoint: "Anchor-9" 526.624 955.612 mark 0
AnchorPoint: "Anchor-1" 492.064 1429.91 basemark 0
AnchorPoint: "Anchor-1" 526.624 955.612 mark 0
LayerCount: 2
Fore
SplineSet
265.94140625 916.568359375 m 1,0,-1
 265.94140625 1004.89941406 l 1,1,-1
 691.107421875 1178.75390625 l 1,2,-1
 691.107421875 1090.42089844 l 1,3,-1
 265.94140625 916.568359375 l 1,0,-1
265.94140625 1152.87597656 m 1,4,-1
 265.94140625 1241.20703125 l 1,5,-1
 691.107421875 1415.06054688 l 1,6,-1
 691.107421875 1326.72851562 l 1,7,-1
 265.94140625 1152.87597656 l 1,4,-1
EndSplineSet
EndChar

StartChar: uni064C
Encoding: 1612 1612 44
Width: -22
VWidth: 1985
GlyphClass: 4
Flags: W
AnchorPoint: "Anchor-10" 584.438 1045.75 mark 0
AnchorPoint: "Anchor-9" 584.438 1045.75 mark 0
AnchorPoint: "Anchor-1" 490.738 1643.81 basemark 0
AnchorPoint: "Anchor-1" 584.438 1045.75 mark 0
LayerCount: 2
Fore
SplineSet
563.893554688 1497.19433594 m 0,0,1
 487.016601562 1497.19433594 487.016601562 1497.19433594 487.016601562 1428.06542969 c 0,2,3
 487.016601562 1378.18945312 487.016601562 1378.18945312 543.720703125 1355.5078125 c 0,4,5
 553.866210938 1351.45019531 553.866210938 1351.45019531 568.744140625 1346.40625 c 128,-1,6
 583.623046875 1341.36230469 583.623046875 1341.36230469 603.35546875 1335.28515625 c 2,7,-1
 607.651367188 1333.96191406 l 1,8,-1
 620.706054688 1364.41699219 l 2,9,10
 625.94921875 1376.65234375 625.94921875 1376.65234375 628.541015625 1391.36425781 c 128,-1,11
 631.1328125 1406.07617188 631.1328125 1406.07617188 631.1328125 1423.27539062 c 0,12,13
 631.1328125 1440.9609375 631.1328125 1440.9609375 625.298828125 1454.85253906 c 128,-1,14
 619.465820312 1468.74414062 619.465820312 1468.74414062 607.8046875 1478.34667969 c 0,15,16
 600.303710938 1484.52246094 600.303710938 1484.52246094 593.014648438 1488.68066406 c 128,-1,17
 585.725585938 1492.83886719 585.725585938 1492.83886719 578.379882812 1495.01660156 c 128,-1,18
 571.034179688 1497.19433594 571.034179688 1497.19433594 563.893554688 1497.19433594 c 0,0,1
286.8359375 1191.03808594 m 0,19,20
 326.482421875 1106.0859375 326.482421875 1106.0859375 388.407226562 1106.0859375 c 0,21,22
 449.170898438 1106.0859375 449.170898438 1106.0859375 515.639648438 1170.41113281 c 0,23,24
 554.233398438 1207.96386719 554.233398438 1207.96386719 576.2734375 1252.04492188 c 2,25,-1
 588.0234375 1275.54980469 l 1,26,-1
 562.313476562 1281.00488281 l 2,27,28
 484.142578125 1297.57421875 484.142578125 1297.57421875 441.572265625 1356.32714844 c 0,29,30
 433.731445312 1367.1484375 433.731445312 1367.1484375 428.525390625 1377.17675781 c 128,-1,31
 423.319335938 1387.20410156 423.319335938 1387.20410156 420.814453125 1396.08789062 c 128,-1,32
 418.310546875 1404.97167969 418.310546875 1404.97167969 418.310546875 1412.97753906 c 0,33,34
 418.310546875 1438.84667969 418.310546875 1438.84667969 419.520507812 1448.96777344 c 0,35,36
 424.327148438 1489.21191406 424.327148438 1489.21191406 454.379882812 1526.96777344 c 0,37,38
 469.02734375 1545.37109375 469.02734375 1545.37109375 492.889648438 1554.65917969 c 128,-1,39
 516.750976562 1563.94824219 516.750976562 1563.94824219 550.317382812 1563.94824219 c 0,40,41
 567.154296875 1563.94824219 567.154296875 1563.94824219 582.25390625 1561.47070312 c 128,-1,42
 597.354492188 1558.99414062 597.354492188 1558.99414062 610.733398438 1554.03808594 c 128,-1,43
 624.112304688 1549.08300781 624.112304688 1549.08300781 635.795898438 1541.69042969 c 128,-1,44
 647.479492188 1534.29785156 647.479492188 1534.29785156 657.561523438 1524.42675781 c 0,45,46
 677.71484375 1504.69824219 677.71484375 1504.69824219 687.801757812 1477.77441406 c 128,-1,47
 697.887695312 1450.85058594 697.887695312 1450.85058594 697.887695312 1416.34960938 c 0,48,49
 697.887695312 1407.61230469 697.887695312 1407.61230469 697.215820312 1398.93261719 c 128,-1,50
 696.54296875 1390.25195312 696.54296875 1390.25195312 695.197265625 1381.62207031 c 128,-1,51
 693.8515625 1372.99121094 693.8515625 1372.99121094 691.831054688 1364.40917969 c 128,-1,52
 689.811523438 1355.828125 689.811523438 1355.828125 687.116210938 1347.29296875 c 2,53,-1
 679.2109375 1322.26757812 l 1,54,-1
 705.421875 1320.89160156 l 2,55,56
 724.1015625 1319.90527344 724.1015625 1319.90527344 755.486328125 1319.17773438 c 1,57,-1
 755.486328125 1252.26855469 l 1,58,59
 726.193359375 1252.625 726.193359375 1252.625 712.33984375 1254.015625 c 2,60,-1
 646.775390625 1260.31835938 l 1,61,-1
 645.33984375 1256.953125 l 2,62,63
 616.974609375 1190.47558594 616.974609375 1190.47558594 562.397460938 1134.265625 c 0,64,65
 544.161132812 1115.48339844 544.161132812 1115.48339844 527.448242188 1100.75195312 c 128,-1,66
 510.735351562 1086.01953125 510.735351562 1086.01953125 495.815429688 1075.52050781 c 128,-1,67
 480.896484375 1065.02148438 480.896484375 1065.02148438 467.655273438 1058.62109375 c 128,-1,68
 454.327148438 1052.17675781 454.327148438 1052.17675781 440.844726562 1047.88964844 c 128,-1,69
 427.362304688 1043.60253906 427.362304688 1043.60253906 413.734375 1041.46777344 c 128,-1,70
 400.106445312 1039.33300781 400.106445312 1039.33300781 386.279296875 1039.33300781 c 0,71,72
 289.21484375 1039.33300781 289.21484375 1039.33300781 239.397460938 1176.34375 c 0,73,74
 233.625 1192.11816406 233.625 1192.11816406 230.204101562 1223.62109375 c 128,-1,75
 226.783203125 1255.12304688 226.783203125 1255.12304688 226.127929688 1299.38378906 c 1,76,-1
 273.370117188 1299.38378906 l 1,77,78
 274.090820312 1256.859375 274.090820312 1256.859375 277.255859375 1230.89746094 c 128,-1,79
 280.421875 1204.93554688 280.421875 1204.93554688 286.8359375 1191.03808594 c 0,19,20
EndSplineSet
EndChar

StartChar: uni064D
Encoding: 1613 1613 45
Width: -21
VWidth: 1843
GlyphClass: 4
Flags: W
AnchorPoint: "Anchor-7" 442.099 60.582 mark 0
AnchorPoint: "Anchor-6" 442.099 60.582 mark 0
AnchorPoint: "Anchor-0" 508.415 -374.489 basemark 0
AnchorPoint: "Anchor-0" 442.099 60.582 mark 0
LayerCount: 2
Fore
SplineSet
245.836914062 -412.342773438 m 1,0,-1
 245.836914062 -320.55078125 l 1,1,-1
 648.767578125 -155.790039062 l 1,2,-1
 648.767578125 -247.581054688 l 1,3,-1
 245.836914062 -412.342773438 l 1,0,-1
245.836914062 -193.540039062 m 1,4,-1
 245.836914062 -101.748046875 l 1,5,-1
 648.767578125 63.013671875 l 1,6,-1
 648.767578125 -28.7783203125 l 1,7,-1
 245.836914062 -193.540039062 l 1,4,-1
EndSplineSet
EndChar

StartChar: uni064E
Encoding: 1614 1614 46
Width: -21
VWidth: 1843
GlyphClass: 4
Flags: W
AnchorPoint: "Anchor-10" 462.271 1088.92 mark 0
AnchorPoint: "Anchor-9" 462.271 1088.92 mark 0
AnchorPoint: "Anchor-1" 430.271 1348.9 basemark 0
AnchorPoint: "Anchor-1" 462.271 1088.92 mark 0
LayerCount: 2
Fore
SplineSet
217.11328125 1064.3671875 m 1,0,-1
 217.11328125 1156.15917969 l 1,1,-1
 620.044921875 1320.92089844 l 1,2,-1
 620.044921875 1229.12890625 l 1,3,-1
 217.11328125 1064.3671875 l 1,0,-1
EndSplineSet
EndChar

StartChar: uni064F
Encoding: 1615 1615 47
Width: -21
VWidth: 1843
GlyphClass: 4
Flags: W
AnchorPoint: "Anchor-10" 492.498 1024.81 mark 0
AnchorPoint: "Anchor-9" 492.498 1024.81 mark 0
AnchorPoint: "Anchor-1" 437.215 1538.56 basemark 0
AnchorPoint: "Anchor-1" 492.498 1024.81 mark 0
LayerCount: 2
Fore
SplineSet
658.181640625 1171.37988281 m 1,0,1
 612.799804688 1172 612.799804688 1172 552.587890625 1178.41601562 c 1,2,3
 510.400390625 1119.20019531 510.400390625 1119.20019531 450.702148438 1082.39941406 c 0,4,5
 356 1023.20019531 356 1023.20019531 248.799804688 1019.20019531 c 1,6,-1
 248.799804688 1090.19335938 l 1,7,8
 353.599609375 1093.59960938 353.599609375 1093.59960938 416.251953125 1145.92773438 c 0,9,10
 444 1168.79980469 444 1168.79980469 455.759765625 1181.67578125 c 2,11,-1
 473.024414062 1199.86035156 l 1,12,-1
 448.551757812 1205.29296875 l 2,13,14
 443.200195312 1206.40039062 443.200195312 1206.40039062 411.861328125 1222.51464844 c 0,15,16
 381.599609375 1238.40039062 381.599609375 1238.40039062 359.088867188 1269.25585938 c 0,17,18
 336.799804688 1300 336.799804688 1300 336.723632812 1337.42578125 c 0,19,20
 336.799804688 1410.40039062 336.799804688 1410.40039062 393.420898438 1453.09179688 c 0,21,22
 415.200195312 1469.59960938 415.200195312 1469.59960938 471.169921875 1469.23730469 c 0,23,24
 527.200195312 1469.59960938 527.200195312 1469.59960938 566.120117188 1431.32226562 c 0,25,26
 604.799804688 1393.59960938 604.799804688 1393.59960938 604.849609375 1327.94335938 c 0,27,28
 604.799804688 1301.00097656 604.799804688 1301.00097656 592.834960938 1262.55175781 c 2,29,-1
 587.451171875 1245.24902344 l 1,30,-1
 605.544921875 1244.1796875 l 2,31,32
 636 1242.40039062 636 1242.40039062 658.181640625 1242.42285156 c 1,33,-1
 658.181640625 1171.37988281 l 1,0,1
514.053710938 1257.30761719 m 1,34,-1
 524.500976562 1281.6796875 l 2,35,36
 533.782226562 1303.33886719 533.782226562 1303.33886719 533.782226562 1334.35742188 c 128,-1,37
 533.782226562 1365.375 533.782226562 1365.375 513.865234375 1381.77246094 c 128,-1,38
 493.948242188 1398.16992188 493.948242188 1398.16992188 469.811523438 1398.16992188 c 128,-1,39
 445.674804688 1398.16992188 445.674804688 1398.16992188 427.637695312 1384.4296875 c 128,-1,40
 409.599609375 1370.68945312 409.599609375 1370.68945312 409.599609375 1333.21679688 c 128,-1,41
 409.599609375 1295.74414062 409.599609375 1295.74414062 459.192382812 1275.90527344 c 0,42,43
 477.728515625 1268.4921875 477.728515625 1268.4921875 514.053710938 1257.30761719 c 1,34,-1
EndSplineSet
EndChar

StartChar: uni0650
Encoding: 1616 1616 48
Width: -21
VWidth: 1843
GlyphClass: 4
Flags: W
AnchorPoint: "Anchor-7" 453.913 -12.96 mark 0
AnchorPoint: "Anchor-6" 453.913 -12.96 mark 0
AnchorPoint: "Anchor-0" 492.019 -261.556 basemark 0
AnchorPoint: "Anchor-0" 453.913 -12.96 mark 0
LayerCount: 2
Fore
SplineSet
254.28515625 -282.244140625 m 1,0,-1
 254.28515625 -190.451171875 l 1,1,-1
 657.215820312 -25.6904296875 l 1,2,-1
 657.215820312 -117.482421875 l 1,3,-1
 254.28515625 -282.244140625 l 1,0,-1
EndSplineSet
EndChar

StartChar: uni0651
Encoding: 1617 1617 49
Width: -21
VWidth: 1843
GlyphClass: 4
Flags: W
AnchorPoint: "Anchor-10" 487.615 1112.18 mark 0
AnchorPoint: "Anchor-9" 487.615 1112.18 mark 0
AnchorPoint: "Anchor-1" 463.077 1472.27 basemark 0
AnchorPoint: "Anchor-1" 487.615 1112.18 mark 0
LayerCount: 2
Fore
SplineSet
461.92578125 1225.53710938 m 1,0,1
 437.599609375 1093.59960938 437.599609375 1093.59960938 321.987304688 1093.50097656 c 0,2,3
 206.400390625 1093.59960938 206.400390625 1093.59960938 205.749023438 1242.31445312 c 0,4,5
 205.599609375 1272 205.599609375 1272 218.169921875 1354.91113281 c 1,6,-1
 278.260742188 1354.91113281 l 1,7,8
 268 1283.20019531 268 1283.20019531 268 1260.79980469 c 0,9,10
 268 1170.40039062 268 1170.40039062 331.959960938 1170.46191406 c 0,11,12
 420 1170.40039062 420 1170.40039062 424.484375 1285.96191406 c 0,13,14
 425.599609375 1317.59960938 425.599609375 1317.59960938 425.5 1355.29296875 c 0,15,16
 425.599609375 1392.79980469 425.599609375 1392.79980469 425.490234375 1399.96484375 c 1,17,-1
 484.8984375 1399.96484375 l 1,18,19
 486.400390625 1371.20019531 486.400390625 1371.20019531 486.629882812 1332.79296875 c 0,20,21
 486.400390625 1220.16308594 486.400390625 1220.16308594 584.364257812 1220.32519531 c 2,22,-1
 584.869140625 1220.32617188 l 2,23,24
 644 1220.79980469 644 1220.79980469 644.177734375 1315.59765625 c 0,25,26
 644.799804688 1400 644.799804688 1400 635.458984375 1449.86816406 c 1,27,-1
 699.154296875 1449.86816406 l 1,28,29
 708 1386.40039062 708 1386.40039062 708 1311.20019531 c 0,30,31
 708 1188.79980469 708 1188.79980469 640.5234375 1159.93359375 c 0,32,33
 614.400390625 1148.79980469 614.400390625 1148.79980469 588.799804688 1148 c 0,34,35
 532 1145.59960938 532 1145.59960938 502.400390625 1167.20019531 c 0,36,37
 466.400390625 1193.59960938 466.400390625 1193.59960938 461.92578125 1225.53710938 c 1,0,1
EndSplineSet
EndChar

StartChar: uni0652
Encoding: 1618 1618 50
Width: -27
VWidth: 2304
GlyphClass: 4
Flags: W
AnchorPoint: "Anchor-10" 588.527 1187.7 mark 0
AnchorPoint: "Anchor-9" 588.527 1187.7 mark 0
AnchorPoint: "Anchor-1" 573.743 1793.31 basemark 0
AnchorPoint: "Anchor-1" 588.527 1187.7 mark 0
LayerCount: 2
Fore
SplineSet
707.344726562 1457.10253906 m 0,0,1
 707.344726562 1505.78320312 707.344726562 1505.78320312 673.299804688 1539.828125 c 128,-1,2
 639.258789062 1573.87304688 639.258789062 1573.87304688 589.884765625 1573.87304688 c 0,3,4
 539.819335938 1573.87304688 539.819335938 1573.87304688 506.124023438 1540.17675781 c 128,-1,5
 472.427734375 1506.48046875 472.427734375 1506.48046875 472.427734375 1457.10253906 c 0,6,7
 472.427734375 1407.03808594 472.427734375 1407.03808594 506.124023438 1373.34277344 c 128,-1,8
 539.819335938 1339.64648438 539.819335938 1339.64648438 589.884765625 1339.64648438 c 0,9,10
 639.260742188 1339.64648438 639.260742188 1339.64648438 673.299804688 1373.69140625 c 128,-1,11
 707.344726562 1407.73535156 707.344726562 1407.73535156 707.344726562 1457.10253906 c 0,0,1
779.41796875 1457.21875 m 128,-1,13
 779.41796875 1377.71484375 779.41796875 1377.71484375 724.528320312 1322.47265625 c 128,-1,14
 669.673828125 1267.2734375 669.673828125 1267.2734375 590.212890625 1267.2734375 c 0,15,16
 563.655273438 1267.2734375 563.655273438 1267.2734375 539.920898438 1273.39550781 c 128,-1,17
 516.186523438 1279.51757812 516.186523438 1279.51757812 495.203125 1291.77636719 c 128,-1,18
 474.220703125 1304.03515625 474.220703125 1304.03515625 455.8984375 1322.47265625 c 0,19,20
 428.400390625 1350.14648438 428.400390625 1350.14648438 414.704101562 1383.76074219 c 128,-1,21
 401.006835938 1417.375 401.006835938 1417.375 401.006835938 1457.21875 c 0,22,23
 401.006835938 1536.6953125 401.006835938 1536.6953125 455.8671875 1591.56542969 c 128,-1,24
 510.7265625 1646.42480469 510.7265625 1646.42480469 590.212890625 1646.42480469 c 128,-1,25
 669.698242188 1646.42480469 669.698242188 1646.42480469 724.556640625 1591.56542969 c 128,-1,12
 779.41796875 1536.6953125 779.41796875 1536.6953125 779.41796875 1457.21875 c 128,-1,13
EndSplineSet
EndChar

StartChar: uni0653
Encoding: 1619 1619 51
Width: -3
VWidth: 2277
GlyphClass: 4
Flags: W
AnchorPoint: "Anchor-10" 491.962 1309.68 mark 0
AnchorPoint: "Anchor-9" 491.962 1309.68 mark 0
AnchorPoint: "Anchor-1" 466.962 1694.04 basemark 0
AnchorPoint: "Anchor-1" 491.962 1309.68 mark 0
LayerCount: 2
Fore
SplineSet
309.796728665 1378.79394885 m 0,0,1
 221.902247954 1384.71448527 221.902247954 1384.71448527 155.096142205 1316.95400658 c 0,2,3
 138.231723059 1300.08958744 138.231723059 1300.08958744 126.766744807 1302.02401574 c 128,-1,4
 115.301766554 1303.95844405 115.301766554 1303.95844405 114.723609773 1318.29900194 c 128,-1,5
 114.145452992 1332.63955984 114.145452992 1332.63955984 118.403149756 1342.25229652 c 0,6,7
 135.834425369 1421.89395678 135.834425369 1421.89395678 178.728435679 1466.37220519 c 128,-1,8
 221.622445988 1510.85045359 221.622445988 1510.85045359 263.98813229 1512.43623678 c 128,-1,9
 306.353818591 1514.02201996 306.353818591 1514.02201996 419.141886868 1500.22021801 c 128,-1,10
 531.929955146 1486.41841606 531.929955146 1486.41841606 647.509963761 1511.00144881 c 0,11,12
 678.114963408 1517.5109111 678.114963408 1517.5109111 691.163178107 1512.2264498 c 128,-1,13
 704.211392806 1506.9419885 704.211392806 1506.9419885 673.28175514 1469.56417449 c 0,14,15
 610.703682428 1393.93989502 610.703682428 1393.93989502 553.062173487 1377.72658291 c 4,16,17
 511.058293536 1365.91179825 511.058293536 1365.91179825 309.796728665 1378.79394885 c 0,0,1
EndSplineSet
EndChar

StartChar: uni0657
Encoding: 1623 1623 54
Width: -29
VWidth: 2488
GlyphClass: 4
Flags: W
AnchorPoint: "Anchor-10" 615.08 1455.92 mark 0
AnchorPoint: "Anchor-9" 615.08 1455.92 mark 0
AnchorPoint: "Anchor-1" 615.08 2249.13 basemark 0
AnchorPoint: "Anchor-1" 615.08 1455.92 mark 0
LayerCount: 2
Fore
SplineSet
711.864257812 1733.08398438 m 0,0,1
 711.719726562 1545.40039062 711.719726562 1545.40039062 530.360351562 1547.06835938 c 0,2,3
 454.6796875 1547.55957031 454.6796875 1547.55957031 402.1796875 1598.25488281 c 0,4,5
 349.919921875 1649.08007812 349.919921875 1649.08007812 349.893554688 1737.81640625 c 0,6,7
 349.919921875 1774.046875 349.919921875 1774.046875 366.11328125 1826.09472656 c 2,8,-1
 373.381835938 1849.45410156 l 1,9,-1
 348.954101562 1850.89648438 l 2,10,11
 309.959960938 1853.20019531 309.959960938 1853.20019531 277.895507812 1853.26855469 c 1,12,-1
 277.895507812 1949.17675781 l 1,13,14
 339.120117188 1948.24023438 339.120117188 1948.24023438 420.448242188 1939.67871094 c 1,15,16
 477.360351562 2020.59960938 477.360351562 2020.59960938 557.994140625 2069.30078125 c 0,17,18
 753.83984375 2189.08007812 753.83984375 2189.08007812 847.799804688 2194.20019531 c 5,19,-1
 847.799804688 2098.36035156 l 5,20,21
 747.360351562 2095.12011719 747.360351562 2095.12011719 604.5 1983.53613281 c 0,22,23
 575.639648438 1961.20019531 575.639648438 1961.20019531 551.166015625 1935.27832031 c 2,24,-1
 527.861328125 1910.74414062 l 1,25,-1
 560.892578125 1903.39355469 l 2,26,27
 570.240234375 1901.79980469 570.240234375 1901.79980469 610.428710938 1880.14453125 c 0,28,29
 651.240234375 1858.59960938 651.240234375 1858.59960938 681.670898438 1817.04296875 c 0,30,31
 711.719726562 1775.44042969 711.719726562 1775.44042969 711.864257812 1733.08398438 c 0,0,1
518.581054688 1643.01171875 m 0,32,33
 613.481445312 1643.01171875 613.481445312 1643.01171875 613.481445312 1723.17285156 c 0,34,35
 613.481445312 1781.28417969 613.481445312 1781.28417969 546.533203125 1808.06640625 c 0,36,37
 521.615234375 1818.03808594 521.615234375 1818.03808594 472.469726562 1833.17578125 c 1,38,-1
 458.366210938 1800.27246094 l 2,39,40
 445.834960938 1771.03710938 445.834960938 1771.03710938 445.834960938 1729.16699219 c 128,-1,41
 445.834960938 1687.296875 445.834960938 1687.296875 472.719726562 1665.15429688 c 128,-1,42
 499.603515625 1643.01171875 499.603515625 1643.01171875 518.581054688 1643.01171875 c 0,32,33
EndSplineSet
EndChar

StartChar: uni065A
Encoding: 1626 1626 55
Width: 1219
VWidth: 2488
GlyphClass: 4
Flags: W
AnchorPoint: "Anchor-10" 615.08 1455.92 mark 0
AnchorPoint: "Anchor-9" 615.08 1455.92 mark 0
AnchorPoint: "Anchor-1" 612.64 2005.07 basemark 0
AnchorPoint: "Anchor-1" 615.08 1455.92 mark 0
LayerCount: 2
Fore
SplineSet
535.634765625 1550.72949219 m 1,0,-1
 320.578125 1910.25976562 l 1,1,-1
 446.194335938 1910.25976562 l 1,2,-1
 615.080078125 1656.92382812 l 1,3,-1
 783.965820312 1910.25976562 l 1,4,-1
 909.583007812 1910.25976562 l 1,5,-1
 694.5234375 1550.72949219 l 1,6,-1
 535.634765625 1550.72949219 l 1,0,-1
EndSplineSet
EndChar

StartChar: afii57392
Encoding: 1632 1632 56
Width: 806
VWidth: 2812
GlyphClass: 2
Flags: W
LayerCount: 2
Fore
SplineSet
405.879882812 812.431640625 m 1,0,-1
 627.345703125 590.966796875 l 1,1,-1
 401.126953125 364.747070312 l 1,2,-1
 179.661132812 586.212890625 l 1,3,-1
 405.879882812 812.431640625 l 1,0,-1
EndSplineSet
EndChar

StartChar: afii57393
Encoding: 1633 1633 57
Width: 733
VWidth: 2810
GlyphClass: 2
Flags: W
LayerCount: 2
Fore
SplineSet
431.275390625 12.2236328125 m 1,0,1
 389.76953125 714.407226562 389.76953125 714.407226562 144.357421875 1383.27539062 c 1,2,-1
 277.565429688 1546.3671875 l 5,3,4
 520.946289062 1023.39941406 520.946289062 1023.39941406 514.086914062 326.388671875 c 0,5,6
 512.299804688 102.470703125 512.299804688 102.470703125 431.275390625 12.2236328125 c 1,0,1
EndSplineSet
EndChar

StartChar: afii57394
Encoding: 1634 1634 58
Width: 1158
VWidth: 2633
GlyphClass: 2
Flags: W
LayerCount: 2
Fore
SplineSet
478.265625 999.08984375 m 1,0,1
 592.529411107 660.026729809 592.529411107 660.026729809 592.25933446 361.928403967 c 128,-1,2
 591.989257812 63.830078125 591.989257812 63.830078125 501.7421875 3.673828125 c 1,3,4
 490.577148438 301.9921875 490.577148438 301.9921875 355.643554688 836.2265625 c 0,5,6
 317.85546875 986.53125 317.85546875 986.53125 137.733398438 1390.70117188 c 1,7,-1
 252.002929688 1547.39648438 l 1,8,9
 322.708984375 1378.31152344 322.708984375 1378.31152344 345.094726562 1343.59179688 c 0,10,11
 475.0703125 1142.74804688 475.0703125 1142.74804688 710.928710938 1160.95507812 c 0,12,13
 887.931640625 1174.33691406 887.931640625 1174.33691406 943.068359375 1409.13085938 c 0,14,15
 966.920898438 1510.33398438 966.920898438 1510.33398438 980.010742188 1527.796875 c 128,-1,16
 993.100585938 1545.25976562 993.100585938 1545.25976562 1021.20605469 1539.61376953 c 128,-1,17
 1049.31152344 1533.96777344 1049.31152344 1533.96777344 1043.39746094 1452.12011719 c 0,18,19
 1030.72265625 1291.76171875 1030.72265625 1291.76171875 1005.45117188 1222.92285156 c 0,20,21
 910.134765625 968.076171875 910.134765625 968.076171875 634.248046875 969.845703125 c 0,22,23
 572.813282436 970.190479074 572.813282436 970.190479074 478.265625 999.08984375 c 1,0,1
EndSplineSet
EndChar

StartChar: afii57395
Encoding: 1635 1635 59
Width: 1438
VWidth: 2633
GlyphClass: 2
Flags: W
LayerCount: 2
Fore
SplineSet
839.033203125 1155.93847656 m 1,0,1
 755 966 755 966 615.90822114 966.599559459 c 0,2,3
 545 967 545 967 477.422851562 1000.83984375 c 1,4,5
 599 641 599 641 598.9765625 308.903320312 c 0,6,7
 599 47 599 47 501.450195312 -0.8720703125 c 1,8,9
 491 343 491 343 354.901367188 836.459960938 c 0,10,11
 315 982 315 982 136.643554688 1386.328125 c 1,12,-1
 251.686523438 1546.4296875 l 1,13,14
 281 1477 281 1477 334.3671875 1362.89257812 c 0,15,16
 422 1173 422 1173 603.953392798 1167.42613085 c 0,17,18
 618 1167 618 1167 632.7734375 1168.64355469 c 0,19,20
 766 1180 766 1180 811.465820312 1461.53125 c 0,21,22
 821 1521 821 1521 844.359285796 1522.52478499 c 0,23,24
 868 1524 868 1524 873 1512 c 128,-1,25
 878 1500 878 1500 878.91764645 1470.95431069 c 0,26,27
 886 1168 886 1168 1081.50041625 1168.13643297 c 4,28,29
 1225 1168 1225 1168 1243.40234375 1484.8828125 c 0,30,31
 1246.08597538 1533.99327138 1246.08597538 1533.99327138 1285.53767424 1533.74883186 c 0,32,33
 1333 1534 1333 1534 1332.73339844 1428.14648438 c 0,34,35
 1333 1332 1333 1332 1314.41308594 1237.89550781 c 0,36,37
 1264 980 1264 980 1075.27303551 980.161032199 c 0,38,39
 932 980 932 980 839.033203125 1155.93847656 c 1,0,1
EndSplineSet
EndChar

StartChar: afii57396
Encoding: 1636 1636 60
Width: 1041
VWidth: 2806
GlyphClass: 2
Flags: W
LayerCount: 2
Fore
SplineSet
460.036132812 774.31640625 m 1,0,1
 190.005935762 909.569950133 190.005935762 909.569950133 125.982421875 993.0625 c 1,2,3
 187.088890066 1350.14747978 187.088890066 1350.14747978 652.356445312 1541.44335938 c 1,4,5
 676.019597416 1493.09002578 676.019597416 1493.09002578 682.635742188 1366.96289062 c 1,6,7
 280.580051153 1160.91254724 280.580051153 1160.91254724 231.381835938 1038.46484375 c 1,8,9
 434.923277534 938.25629203 434.923277534 938.25629203 757.892578125 882.734375 c 1,10,11
 752.100904819 816.555476192 752.100904819 816.555476192 747.500976562 754.290039062 c 1,12,13
 290.38294551 485.173362185 290.38294551 485.173362185 223.375 354.038085938 c 1,14,15
 423.120663491 258.597300829 423.120663491 258.597300829 897.446289062 306.247070312 c 1,16,-1
 929.206054688 68.6142578125 l 1,17,18
 401.9375 33.421875 401.9375 33.421875 111.103515625 255.982421875 c 1,19,20
 135.524754855 509.764112231 135.524754855 509.764112231 460.036132812 774.31640625 c 1,0,1
EndSplineSet
EndChar

StartChar: afii57397
Encoding: 1637 1637 61
Width: 1252
VWidth: 2809
GlyphClass: 2
Flags: W
LayerCount: 2
Fore
SplineSet
334.359375 342.563476562 m 0,0,1
 456 257 456 257 659.334960938 270.458007812 c 0,2,3
 861 284 861 284 955.247070312 409.782226562 c 0,4,5
 1080 576 1080 576 811.0390625 942.267578125 c 0,6,7
 718 1069 718 1069 606 1169 c 1,8,9
 319 882 319 882 244.649414062 693.181640625 c 0,10,11
 155 470 155 470 334.359375 342.563476562 c 0,0,1
520.646484375 1475.54785156 m 1,12,13
 894.776367188 1176.58984375 894.776367188 1176.58984375 1068.26171875 828.81640625 c 0,14,15
 1186.35043227 592.196302222 1186.35043227 592.196302222 1121.84472656 386.073242188 c 0,16,17
 1093.5078125 295.51953125 1093.5078125 295.51953125 1030.0625 223.000976562 c 0,18,19
 883.534179688 56.4658203125 883.534179688 56.4658203125 618.647460938 56.9965820312 c 0,20,21
 351.512979635 57.5318476614 351.512979635 57.5318476614 219.736816406 215.789550781 c 128,-1,22
 88 374 88 374 110.171386719 564.742675781 c 0,23,24
 133.189373364 753.030375379 133.189373364 753.030375379 242.394042969 935.217773438 c 0,25,26
 350.14724015 1114.98366347 350.14724015 1114.98366347 497.508789062 1266.40820312 c 1,27,-1
 434.602539062 1325.75292969 l 1,28,-1
 520.646484375 1475.54785156 l 1,12,13
EndSplineSet
EndChar

StartChar: afii57398
Encoding: 1638 1638 62
Width: 1267
VWidth: 2809
GlyphClass: 2
Flags: W
LayerCount: 2
Fore
SplineSet
932.586914062 1453.10546875 m 1,0,1
 949.251953125 298.390625 949.251953125 298.390625 1143.74609375 217.9765625 c 1,2,-1
 1157.54785156 0.2109375 l 1,3,4
 962.017578125 15.375 962.017578125 15.375 897.115234375 344.466796875 c 0,5,6
 804.290009288 814.593429259 804.290009288 814.593429259 798.53125 1248.11035156 c 1,7,8
 555.088803344 1177.12743049 555.088803344 1177.12743049 313.220703125 1213.71191406 c 0,9,10
 198.4765625 1231.25390625 198.4765625 1231.25390625 154.436523438 1274.54980469 c 0,11,12
 111.015625 1318.71386719 111.015625 1318.71386719 111.015625 1411.85058594 c 2,13,-1
 111.015625 1452.2421875 l 1,14,15
 522.02734375 1339.79296875 522.02734375 1339.79296875 939.083007812 1455.48535156 c 1,16,-1
 932.586914062 1453.10546875 l 1,0,1
EndSplineSet
EndChar

StartChar: afii57399
Encoding: 1639 1639 63
Width: 1220
VWidth: 2810
GlyphClass: 2
Flags: W
LayerCount: 2
Fore
SplineSet
1034.5234375 1541.41601562 m 1,0,-1
 1107.74121094 1312.73925781 l 1,1,2
 809.635742188 895.978515625 809.635742188 895.978515625 671.536132812 4.6953125 c 1,3,-1
 583.338867188 4.6953125 l 1,4,5
 454.231445312 859.841796875 454.231445312 859.841796875 113.754882812 1313.05273438 c 1,6,-1
 189.188476562 1542.54492188 l 1,7,8
 539.51953125 1076.1796875 539.51953125 1076.1796875 615.764648438 397.734375 c 2,9,-1
 625.747070312 308.903320312 l 1,10,-1
 636.729492188 397.615234375 l 2,11,12
 723.967773438 1101.65527344 723.967773438 1101.65527344 1034.5234375 1541.41601562 c 1,0,-1
EndSplineSet
EndChar

StartChar: afii57400
Encoding: 1640 1640 64
Width: 1220
VWidth: 2810
GlyphClass: 2
Flags: W
LayerCount: 2
Fore
SplineSet
1034.5234375 11.6826171875 m 1,0,1
 723.967773438 451.443359375 723.967773438 451.443359375 636.729492188 1155.48242188 c 2,2,-1
 625.747070312 1244.19335938 l 1,3,-1
 615.764648438 1155.36523438 l 2,4,5
 539.51953125 476.918945312 539.51953125 476.918945312 189.188476562 10.5537109375 c 1,6,-1
 113.754882812 240.044921875 l 1,7,8
 454.231445312 693.2578125 454.231445312 693.2578125 583.338867188 1548.40234375 c 1,9,-1
 671.536132812 1548.40234375 l 1,10,11
 809.635742188 657.119140625 809.635742188 657.119140625 1107.74121094 240.359375 c 1,12,-1
 1034.5234375 11.6826171875 l 1,0,1
EndSplineSet
EndChar

StartChar: afii57401
Encoding: 1641 1641 65
Width: 1152
VWidth: 2810
GlyphClass: 2
Flags: W
LayerCount: 2
Fore
SplineSet
743.4140625 690.090820312 m 1,0,1
 109.229836578 614.612697681 109.229836578 614.612697681 110.879882812 1033.93652344 c 0,2,3
 111.245117188 1278.98339844 111.245117188 1278.98339844 251.47265625 1432.94140625 c 0,4,5
 362.232077702 1555.38256147 362.232077702 1555.38256147 480.602366976 1555.38317527 c 128,-1,6
 598.97265625 1555.38378906 598.97265625 1555.38378906 679.3515625 1484.36621094 c 0,7,8
 836.8671875 1343.91894531 836.8671875 1343.91894531 851.506835938 1019.359375 c 0,9,10
 884.791015625 280.002929688 884.791015625 280.002929688 1036.38769531 198.514648438 c 1,11,-1
 1042.6875 0.0107421875 l 1,12,13
 890.954101562 3.0966796875 890.954101562 3.0966796875 834.737792969 199.619140625 c 128,-1,14
 778.50174909 396.210592696 778.50174909 396.210592696 743.4140625 690.090820312 c 1,0,1
304.51171875 921.408203125 m 0,15,16
 362.712890625 884.80859375 362.712890625 884.80859375 496.552168619 884.808590834 c 128,-1,17
 630.391446613 884.808587917 630.391446613 884.808587917 726.052734375 906.568359375 c 1,18,-1
 721.611328125 970.0859375 l 2,19,20
 709.935546875 1130.65820312 709.935546875 1130.65820312 634.158203125 1242.15625 c 0,21,22
 574.940429688 1328.79003906 574.940429688 1328.79003906 489.375 1337.02539062 c 0,23,24
 327.262695312 1351.90625 327.262695312 1351.90625 269.815429688 1165.33886719 c 128,-1,25
 212.368164062 978.771484375 212.368164062 978.771484375 304.51171875 921.408203125 c 0,15,16
EndSplineSet
EndChar

StartChar: afii57381
Encoding: 1642 1642 66
Width: 1526
VWidth: 2838
GlyphClass: 2
Flags: W
LayerCount: 2
Fore
SplineSet
588.786132812 1678.42480469 m 2,0,-1
 588.786132812 1510.79882812 l 2,1,2
 588.786132812 1470.87402344 588.786132812 1470.87402344 557.959960938 1470.86328125 c 2,3,-1
 392.935546875 1470.87695312 l 2,4,5
 356.91015625 1470.87695312 356.91015625 1470.87695312 356.91015625 1512.09765625 c 2,6,-1
 356.91015625 1678.42480469 l 2,7,8
 356.91015625 1711.85058594 356.91015625 1711.85058594 398.130859375 1711.85058594 c 2,9,-1
 547.564453125 1711.85058594 l 2,10,11
 588.786132812 1711.85058594 588.786132812 1711.85058594 588.786132812 1678.42480469 c 2,0,-1
1175.86914062 309.868164062 m 2,12,-1
 1175.86914062 142.241210938 l 2,13,14
 1175.86914062 102.319335938 1175.86914062 102.319335938 1145.04394531 102.319335938 c 2,15,-1
 980.016601562 102.319335938 l 2,16,17
 943.994140625 102.319335938 943.994140625 102.319335938 943.994140625 143.540039062 c 2,18,-1
 943.994140625 309.868164062 l 2,19,20
 943.994140625 343.291015625 943.994140625 343.291015625 985.213867188 343.291015625 c 2,21,-1
 1134.64941406 343.291015625 l 2,22,23
 1175.86914062 343.291015625 1175.86914062 343.291015625 1175.86914062 309.868164062 c 2,12,-1
1135.80273438 1779.78515625 m 1,24,-1
 1266.33300781 1712.53515625 l 1,25,-1
 387.732421875 17.1728515625 l 1,26,-1
 257.80078125 88.5771484375 l 1,27,-1
 1135.80273438 1779.78515625 l 1,24,-1
EndSplineSet
EndChar

StartChar: uni066B
Encoding: 1643 1643 67
Width: 921
VWidth: 2838
GlyphClass: 2
Flags: W
LayerCount: 2
Fore
SplineSet
579.323242188 648.337890625 m 1,0,-1
 684.897460938 582.99609375 l 1,1,-1
 165.6328125 -282.892578125 l 1,2,-1
 58.4501953125 -211.751953125 l 1,3,-1
 579.323242188 648.337890625 l 1,0,-1
EndSplineSet
EndChar

StartChar: uni066C
Encoding: 1644 1644 68
Width: 581
VWidth: 2633
GlyphClass: 2
Flags: W
LayerCount: 2
Fore
SplineSet
316.333984375 277.443359375 m 2,0,1
 424.3515625 277.443359375 424.3515625 277.443359375 424.3515625 147.8359375 c 2,2,-1
 424.3515625 102.46484375 l 2,3,4
 424.3515625 -147.768554688 424.3515625 -147.768554688 177.927734375 -253.529296875 c 0,5,6
 128.646781535 -274.472659874 128.646781535 -274.472659874 127.848632812 -252.720703125 c 0,7,8
 127.505895781 -243.321399672 127.505895781 -243.321399672 151.521484375 -229.59765625 c 0,9,10
 345.997520196 -113.346612622 345.997520196 -113.346612622 338.790039062 27.841796875 c 1,11,-1
 287.600585938 27.841796875 l 2,12,13
 176.90625 27.841796875 176.90625 27.841796875 176.90625 135.943359375 c 2,14,-1
 176.90625 163.154296875 l 2,15,16
 176.606445312 277.443359375 176.606445312 277.443359375 294.827148438 277.443359375 c 2,17,-1
 316.333984375 277.443359375 l 2,0,1
EndSplineSet
EndChar

StartChar: afii63167
Encoding: 1645 1645 69
Width: 1435
VWidth: 2633
GlyphClass: 2
Flags: W
LayerCount: 2
Fore
SplineSet
169.024414062 963.997070312 m 1,0,-1
 587.66015625 963.997070312 l 1,1,-1
 718.3671875 1361.94726562 l 1,2,-1
 849.072265625 963.997070312 l 1,3,-1
 1267.71289062 963.997070312 l 1,4,-1
 929.50390625 716.7578125 l 1,5,-1
 1058.90429688 319.227539062 l 1,6,-1
 718.3671875 565.301757812 l 1,7,-1
 377.828125 319.227539062 l 1,8,-1
 507.227539062 716.7578125 l 1,9,-1
 169.024414062 963.997070312 l 1,0,-1
EndSplineSet
EndChar

StartChar: uni066E
Encoding: 1646 1646 70
Width: 1816
VWidth: 3095
GlyphClass: 2
Flags: W
AnchorPoint: "Anchor-10" 878.013 1469.59 basechar 0
AnchorPoint: "Anchor-7" 545.373 -353.416 basechar 0
LayerCount: 2
Fore
SplineSet
823.290039062 -0.61328125 m 0,0,1
 410.799804688 -7.2802734375 410.799804688 -7.2802734375 260.767578125 76.2705078125 c 0,2,3
 52 191.360351562 52 191.360351562 105.491210938 490.311523438 c 0,4,5
 127.919921875 613.599609375 127.919921875 613.599609375 178.583984375 696.698242188 c 0,6,7
 204.879882812 739.440429688 204.879882812 739.440429688 227.759765625 734.240234375 c 128,-1,8
 250.639648438 729.040039062 250.639648438 729.040039062 227.239746094 669.240234375 c 128,-1,9
 203.83984375 609.440429688 203.83984375 609.440429688 192.919921875 522.600097656 c 128,-1,10
 182 435.759765625 182 435.759765625 220.59375 368.955078125 c 0,11,12
 302.255859375 224.520507812 302.255859375 224.520507812 645.912109375 207.249023438 c 0,13,14
 1386.94201561 172.437527312 1386.94201561 172.437527312 1589.359375 331.9140625 c 1,15,16
 1582.87988281 430.559570312 1582.87988281 430.559570312 1542.83984375 500.239746094 c 128,-1,17
 1502.79980469 569.919921875 1502.79980469 569.919921875 1465.85546875 614.274414062 c 1,18,-1
 1590.65527344 819.154296875 l 1,19,20
 1684.79980469 676 1684.79980469 676 1710.25585938 461.39453125 c 0,21,22
 1742 199.6796875 1742 199.6796875 1476.24804688 102.234375 c 24,23,24
 1295.83984375 36.400390625 1295.83984375 36.400390625 973.928710938 7.0302734375 c 0,25,26
 896.48046875 0 896.48046875 0 823.290039062 -0.61328125 c 0,0,1
EndSplineSet
Substitution2: "'init' Initial Forms in Arabic lookup 13 subtable" uni066E.init
Substitution2: "'medi' Medial Forms in Arabic lookup 11 subtable" uni066E.medi
Substitution2: "'fina' Terminal Forms in Arabic lookup 9 subtable" uni066E.fina
EndChar

StartChar: uni066F
Encoding: 1647 1647 71
Width: 1444
VWidth: 3118
GlyphClass: 2
Flags: W
AnchorPoint: "Anchor-10" 500.348 1255.6 basechar 0
AnchorPoint: "Anchor-7" 266.97 -668.665 basechar 0
LayerCount: 2
Fore
SplineSet
835.0546875 416.002929688 m 0,0,1
 817.766601562 341.8046875 817.766601562 341.8046875 927.438476562 309.52734375 c 0,2,3
 1061.12695312 269.004882812 1061.12695312 269.004882812 1237.12792969 324.037109375 c 1,4,5
 1233.76660156 371.96484375 1233.76660156 371.96484375 1198.36230469 455.827148438 c 0,6,7
 1142.24707031 590.364257812 1142.24707031 590.364257812 1022.14257812 587.106445312 c 0,8,9
 873.926757812 584.125 873.926757812 584.125 835.0546875 416.002929688 c 0,0,1
1339.65234375 62.3671875 m 0,10,11
 1300.18847656 -460.419921875 1300.18847656 -460.419921875 637.138671875 -463.870117188 c 0,12,13
 353 -465 353 -465 213.938476562 -319.727539062 c 0,14,15
 76 -176 76 -176 110.03515625 67.02734375 c 24,16,17
 126 178 126 178 198.169921875 302.743164062 c 0,18,19
 242 379 242 379 270.26171875 369.946289062 c 0,20,21
 296 361 296 361 282.854492188 332.717773438 c 1,22,-1
 258.659179688 272.552734375 l 26,23,24
 178 72 178 72 245.030273438 -66.9677734375 c 0,25,26
 343 -268 343 -268 661 -259 c 0,27,28
 1146 -245 1146 -245 1232.21875 -22.8076171875 c 1,29,30
 1242 48 1242 48 1236 150 c 1,31,32
 1099 106 1099 106 973.766601562 121.32421875 c 0,33,34
 849 137 849 137 790.20703125 221.1640625 c 0,35,36
 731 305 731 305 744.047851562 406.301757812 c 0,37,38
 770 610 770 610 874.966796875 712.044921875 c 0,39,40
 956 791 956 791 1039.80664062 787.96484375 c 0,41,42
 1124 785 1124 785 1188.8125 719.62890625 c 0,43,44
 1261.57910156 646.310546875 1261.57910156 646.310546875 1301.92578125 516.044921875 c 0,45,46
 1358 335 1358 335 1339.65234375 62.3671875 c 0,10,11
EndSplineSet
Substitution2: "'init' Initial Forms in Arabic lookup 13 subtable" uni066F.init
Substitution2: "'medi' Medial Forms in Arabic lookup 11 subtable" uni066F.medi
Substitution2: "'fina' Terminal Forms in Arabic lookup 9 subtable" uni066F.fina
EndChar

StartChar: uni0670
Encoding: 1648 1648 72
Width: 0
VWidth: 2459
GlyphClass: 4
Flags: W
AnchorPoint: "Anchor-10" 625.055 1448.93 mark 0
AnchorPoint: "Anchor-9" 625.055 1448.93 mark 0
AnchorPoint: "Anchor-1" 615.334 2078.23 basemark 0
AnchorPoint: "Anchor-1" 625.055 1448.93 mark 0
LayerCount: 2
Fore
SplineSet
607.185546875 1494.64257812 m 1,0,-1
 561.697265625 1964.45800781 l 5,1,-1
 668.90625 2027.59375 l 5,2,-1
 668.90625 1494.64257812 l 1,3,-1
 607.185546875 1494.64257812 l 1,0,-1
EndSplineSet
EndChar

StartChar: uni0674
Encoding: 1652 1652 73
Width: 664
VWidth: 2277
GlyphClass: 2
Flags: W
LayerCount: 2
Fore
SplineSet
143.215179035 1462.66446298 m 1,0,-1
 192.450029009 1584.7141981 l 1,1,2
 263.925753716 1618.83980099 263.925753716 1618.83980099 299.939195865 1632.19057217 c 1,3,4
 157.832363133 1646.64295505 157.832363133 1646.64295505 173.481742448 1765.36962903 c 0,5,6
 199.614462598 1965.02025628 199.614462598 1965.02025628 360.215744064 1964.28024613 c 0,7,8
 448.807259094 1963.98744401 448.807259094 1963.98744401 482.62176423 1841.85265378 c 1,9,10
 306.66317599 1893.84036302 306.66317599 1893.84036302 251.460757497 1806.81363001 c 0,11,12
 231.421903348 1775.22233279 231.421903348 1775.22233279 242.622929921 1749.51148426 c 128,-1,13
 253.823956495 1723.80063573 253.823956495 1723.80063573 268.931323866 1712.50824933 c 0,14,15
 326.467106466 1669.50166366 326.467106466 1669.50166366 447.657399584 1697.98011042 c 0,16,17
 471.898810677 1703.87794 471.898810677 1703.87794 504.080798735 1710.58252085 c 1,18,-1
 473.038646077 1601.93498655 l 1,19,20
 404.526388147 1582.84140647 404.526388147 1582.84140647 143.215179035 1462.66446298 c 1,0,-1
EndSplineSet
EndChar

StartChar: uni06A1
Encoding: 1697 1697 77
Width: 1945
VWidth: 3118
GlyphClass: 2
Flags: W
AnchorPoint: "Anchor-10" 625.974 1712.63 basechar 0
AnchorPoint: "Anchor-7" 780.724 -280.558 basechar 0
LayerCount: 2
Fore
SplineSet
1327.40234375 684.635742188 m 0,0,1
 1310.11425781 610.4375 1310.11425781 610.4375 1419.78613281 578.16015625 c 0,2,3
 1553.47460938 537.637695312 1553.47460938 537.637695312 1729.47558594 592.669921875 c 1,4,5
 1726.11425781 640.59765625 1726.11425781 640.59765625 1690.70996094 724.459960938 c 0,6,7
 1634.59472656 858.997070312 1634.59472656 858.997070312 1514.49023438 855.739257812 c 0,8,9
 1366.27441406 852.7578125 1366.27441406 852.7578125 1327.40234375 684.635742188 c 0,0,1
1817.75097656 353.506835938 m 24,10,11
 1776 181 1776 181 1581.33203125 85.6455078125 c 0,12,13
 1426 9 1426 9 790.5 -1 c 24,14,15
 411 -7 411 -7 260.767578125 76.2705078125 c 0,16,17
 52 191 52 191 105.491210938 490.311523438 c 0,18,19
 128 614 128 614 178.583984375 696.698242188 c 0,20,21
 205 739 205 739 227.759765625 734.240234375 c 0,22,23
 251 729 251 729 227.239746094 669.240234375 c 0,24,25
 204 609 204 609 192.919921875 522.600097656 c 0,26,27
 182 436 182 436 220.59375 368.955078125 c 0,28,29
 304 222 304 222 645.912109375 207.249023438 c 0,30,-1
 918.25 202.3515625 l 16,31,-1
 1200.96484375 206.8125 l 2,32,33
 1728.99955699 215.144322349 1728.99955699 215.144322349 1728.41601562 405.248046875 c 2,34,-1
 1728.34765625 418.6328125 l 1,35,36
 1591 374 1591 374 1466.11425781 389.95703125 c 0,37,38
 1341 406 1341 406 1282.55371094 489.796875 c 0,39,40
 1224 574 1224 574 1236.39550781 674.934570312 c 0,41,42
 1261 878 1261 878 1367.31445312 980.677734375 c 0,43,44
 1448 1060 1448 1060 1532.15429688 1056.59765625 c 0,45,46
 1616 1053 1616 1053 1679.83398438 991.078125 c 0,47,48
 1744 929 1744 929 1782.2734375 824.677734375 c 0,49,50
 1873 581 1873 581 1817.75097656 353.506835938 c 24,10,11
EndSplineSet
Substitution2: "'init' Initial Forms in Arabic lookup 13 subtable" uni06A1.init
Substitution2: "'medi' Medial Forms in Arabic lookup 11 subtable" uni06A1.medi
Substitution2: "'fina' Terminal Forms in Arabic lookup 9 subtable" uni06A1.fina
EndChar

StartChar: uni06A9
Encoding: 1705 1705 78
Width: 1978
VWidth: 3095
GlyphClass: 2
Flags: W
AnchorPoint: "Anchor-10" 589.743 1463.28 basechar 0
AnchorPoint: "Anchor-7" 468.585 -339.717 basechar 0
LayerCount: 2
Fore
SplineSet
1669.72021484 439.400390625 m 0,0,1
 1670.0017786 224.643406456 1670.0017786 224.643406456 1477 112.44921875 c 0,2,3
 1292.56405332 5.23444917157 1292.56405332 5.23444917157 851.67578125 -0.845703125 c 4,4,5
 423 -7 423 -7 265.967773438 81.470703125 c 0,6,7
 53 201 53 201 105.491210938 490.311523438 c 0,8,9
 128 614 128 614 178.583984375 696.698242188 c 0,10,11
 205 739 205 739 227.759765625 734.240234375 c 0,12,13
 251 729 251 729 227.239746094 669.240234375 c 0,14,15
 204 609 204 609 192.919921875 522.600097656 c 0,16,17
 182 438 182 438 220.59375 368.955078125 c 0,18,19
 299 227 299 227 659.569165486 206.894238566 c 0,20,21
 981 189 981 189 1287.69824219 235.712890625 c 0,22,23
 1528 272 1528 272 1578.71972656 382.719726562 c 1,24,25
 1576 491 1576 491 1392.58789062 676.181640625 c 0,26,27
 1175 896 1175 896 1066.25976562 944.171875 c 1,28,29
 1043.98023174 1219.24406703 1043.98023174 1219.24406703 1191.515625 1279.01367188 c 2,30,-1
 1917.9609375 1573.31152344 l 1,31,32
 1890 1457 1890 1457 1838.91015625 1346.70410156 c 1,33,-1
 1166.11132812 1114.38867188 l 1,34,35
 1669 704 1669 704 1669.72021484 439.400390625 c 0,0,1
EndSplineSet
Substitution2: "'init' Initial Forms in Arabic lookup 13 subtable" uniFB90
Substitution2: "'medi' Medial Forms in Arabic lookup 11 subtable" uniFB91
Substitution2: "'fina' Terminal Forms in Arabic lookup 9 subtable" uniFB8F
EndChar

StartChar: afii57514
Encoding: 1722 1722 80
Width: 1456
VWidth: 3095
GlyphClass: 2
Flags: W
LayerCount: 2
Fore
SplineSet
1251.44726562 559.306640625 m 5,0,1
 1311.95996094 402.360351562 1311.95996094 402.360351562 1333.20898438 255.751953125 c 132,-1,2
 1354.45898438 109.142578125 1354.45898438 109.142578125 1351.48046875 65.400390625 c 4,3,4
 1311.95996094 -514.919921875 1311.95996094 -514.919921875 631.719726562 -515.022460938 c 4,5,6
 346.83984375 -514.919921875 346.83984375 -514.919921875 208.51953125 -370.879882812 c 132,-1,7
 70.2001953125 -226.83984375 70.2001953125 -226.83984375 104.616210938 15.875 c 28,8,9
 120.120117188 126.759765625 120.120117188 126.759765625 192.750976562 251.590820312 c 4,10,11
 236.599609375 327.48046875 236.599609375 327.48046875 264.842773438 318.793945312 c 4,12,13
 290.6796875 309.799804688 290.6796875 309.799804688 277.435546875 281.565429688 c 5,14,-1
 253.240234375 221.400390625 l 30,15,16
 173.16015625 19.6396484375 173.16015625 19.6396484375 239.611328125 -118.120117188 c 4,17,18
 337.48046875 -319.400390625 337.48046875 -319.400390625 655.581054688 -310.15234375 c 4,19,20
 1143.48046875 -296.51953125 1143.48046875 -296.51953125 1229.79980469 -73.9599609375 c 5,21,22
 1218.36035156 172.51953125 1218.36035156 172.51953125 1126.83984375 409.639648438 c 5,23,-1
 1251.44726562 559.306640625 l 5,0,1
EndSplineSet
Substitution2: "'init' Initial Forms in Arabic lookup 13 subtable" uni06BA.init
Substitution2: "'medi' Medial Forms in Arabic lookup 11 subtable" uni06BA.medi
Substitution2: "'fina' Terminal Forms in Arabic lookup 9 subtable" uniFB9F
EndChar

StartChar: uni06F4
Encoding: 1780 1780 87
Width: 1227
VWidth: 2567
GlyphClass: 2
Flags: W
LayerCount: 2
Fore
SplineSet
510.586914062 1073.67675781 m 1,0,1
 621.410483831 970.520227462 621.410483831 970.520227462 851.795898438 969.02734375 c 0,2,3
 1010.28710938 968.359375 1010.28710938 968.359375 1099.234375 1012.83300781 c 0,4,5
 1109.46777344 1017.95019531 1109.46777344 1017.95019531 1112.68994141 1011.59570312 c 128,-1,6
 1115.91210938 1005.24121094 1115.91210938 1005.24121094 1112.31738281 994.458007812 c 0,7,8
 1049.83543683 798.393557077 1049.83543683 798.393557077 801.564453125 796.537109375 c 4,9,10
 596 795 596 795 479.41015625 892.571289062 c 1,11,12
 566.821363532 534.774119357 566.821363532 534.774119357 567.340857547 287.232274522 c 128,-1,13
 567.860351562 39.6904296875 567.860351562 39.6904296875 486.84765625 -0.671875 c 1,14,15
 477.057835715 351.173748548 477.057835715 351.173748548 346.19140625 824.409179688 c 0,16,17
 309.318359375 956.4296875 309.318359375 956.4296875 120.712890625 1386.00488281 c 1,18,-1
 246.875976562 1529.41894531 l 1,19,-1
 419.370117188 1106.6015625 l 1,20,21
 473.917290347 1344.80104306 473.917290347 1344.80104306 570.634914705 1442.57434965 c 128,-1,22
 667.352539062 1540.34765625 667.352539062 1540.34765625 816.275390625 1537.71728516 c 128,-1,23
 965.198242188 1535.08691406 965.198242188 1535.08691406 1045.734375 1382.29003906 c 0,24,25
 1057.66503906 1359.515625 1057.66503906 1359.515625 1051.93212891 1351.10449219 c 128,-1,26
 1046.19921875 1342.69335938 1046.19921875 1342.69335938 1035.27148438 1349.61621094 c 0,27,28
 968.825195312 1393.33691406 968.825195312 1393.33691406 872.168945312 1392.28320312 c 0,29,30
 601.331464166 1392.24805073 601.331464166 1392.24805073 510.586914062 1073.67675781 c 1,0,1
EndSplineSet
EndChar

StartChar: uni06F5
Encoding: 1781 1781 88
Width: 1300
VWidth: 2633
GlyphClass: 2
Flags: W
LayerCount: 2
Fore
SplineSet
633.974609375 449.53515625 m 1,0,1
 638 444 638 444 640.03125 437.421875 c 0,2,3
 748 165 748 165 953.204101562 198.411132812 c 0,4,5
 1144 230 1144 230 1055.43164062 529.165039062 c 0,6,7
 1016 663 1016 663 878.246582031 851.604492187 c 0,8,9
 705 1087 705 1087 630 1159 c 5,10,11
 225 647 225 647 208.838867188 364.794921875 c 0,12,13
 200 203 200 203 350.76171875 195.892578125 c 0,14,15
 501 188 501 188 626.418945312 437.658203125 c 1,16,-1
 633.974609375 449.53515625 l 1,0,1
499.666992188 1302.39550781 m 1,17,-1
 607.453125 1471.76953125 l 1,18,19
 641 1438 641 1438 673.60546875 1403.7578125 c 0,20,21
 1242 829 1242 829 1181.72460938 310.018554688 c 0,22,23
 1145 -9 1145 -9 887.874023438 -0.80859375 c 0,24,25
 711 5 711 5 633.1796875 185.04296875 c 1,26,27
 554 -1 554 -1 357.228515625 -1.439453125 c 0,28,29
 120 -1 120 -1 119.277169668 330.587663387 c 0,30,31
 119 663 119 663 542.560546875 1263.8046875 c 1,32,-1
 499.666992188 1302.39550781 l 1,17,-1
EndSplineSet
EndChar

StartChar: uni06F6
Encoding: 1782 1782 89
Width: 1150
VWidth: 2810
GlyphClass: 2
Flags: W
LayerCount: 2
Fore
SplineSet
502.41015625 679.4609375 m 1,0,1
 183.164054566 714.829882696 183.164054566 714.829882696 130.392578125 955.076171875 c 0,2,3
 95.5556640625 1112.75878906 95.5556640625 1112.75878906 230.76953125 1302.7734375 c 0,4,5
 335.2421875 1450.015625 335.2421875 1450.015625 464.639648438 1485.85644531 c 0,6,7
 716.615943702 1557.1092784 716.615943702 1557.1092784 810.122070312 1362.61328125 c 0,8,9
 830.905255202 1319.39907814 830.905255202 1319.39907814 813.172657519 1319.38055155 c 0,10,11
 795.440059836 1319.36202496 795.440059836 1319.36202496 725.429502574 1325.29234061 c 128,-1,12
 655.418945312 1331.22265625 655.418945312 1331.22265625 582.541992188 1320.5078125 c 0,13,14
 258.610351562 1274.84667969 258.610351562 1274.84667969 246.053710938 1088.77734375 c 0,15,16
 244.557617188 1064.875 244.557617188 1064.875 246.12890625 1043.14355469 c 0,17,18
 263.545898438 802.359375 263.545898438 802.359375 652.568359375 830.688476562 c 0,19,20
 776.500976562 839.719726562 776.500976562 839.719726562 1035.48242188 958.338867188 c 1,21,-1
 971.678710938 719.205078125 l 1,22,23
 567.733398438 590.895507812 567.733398438 590.895507812 334.04296875 201.767578125 c 0,24,25
 243.959960938 51.9677734375 243.959960938 51.9677734375 213.23828125 -2.927734375 c 1,26,27
 149.209960938 59.1083984375 149.209960938 59.1083984375 252.994140625 300.04296875 c 128,-1,28
 356.787117277 540.99796118 356.787117277 540.99796118 502.41015625 679.4609375 c 1,0,1
EndSplineSet
EndChar

StartChar: uniFB8F
Encoding: 64399 64399 104
Width: 2208
VWidth: 3095
GlyphClass: 2
Flags: W
AnchorPoint: "Anchor-10" 477.32 1512.2 basechar 0
AnchorPoint: "Anchor-7" 565.339 -354.343 basechar 0
LayerCount: 2
Fore
SplineSet
220.59375 368.955078125 m 0,0,1
 298.233240567 229.37844414 298.233240567 229.37844414 659.569165486 206.894238566 c 0,2,3
 990.620943899 186.803999395 990.620943899 186.803999395 1288.69824219 231.712890625 c 0,4,5
 1507 264 1507 264 1578.71972656 382.719726562 c 1,6,7
 1576 491 1576 491 1392.58789062 676.181640625 c 0,8,9
 1175 896 1175 896 1066.25976562 944.171875 c 1,10,11
 1043.98023174 1219.24406703 1043.98023174 1219.24406703 1191.515625 1279.01367188 c 2,12,-1
 1917.9609375 1573.31152344 l 1,13,14
 1890 1457 1890 1457 1838.91015625 1346.70410156 c 1,15,-1
 1166.11132812 1114.38867188 l 1,16,17
 1456 881 1456 881 1664.4375 580.913085938 c 0,18,19
 1929.27819472 201.6015625 1929.27819472 201.6015625 2200.15722656 201.6015625 c 2,20,-1
 2219.57128906 201.6015625 l 1,21,-1
 2219.57128906 -0.61328125 l 1,22,-1
 2200.48828125 -0.61328125 l 2,23,24
 1914.2760872 -0.999627321243 1914.2760872 -0.999627321243 1678.60449219 408.481445312 c 2,25,-1
 1670.02539062 423.387695312 l 1,26,27
 1660 260 1660 260 1564.19921875 164.99609375 c 0,28,29
 1404.69279893 6.6584137241 1404.69279893 6.6584137241 851.67578125 -0.845703125 c 4,30,31
 423 -7 423 -7 265.967773438 81.470703125 c 0,32,33
 53 201 53 201 105.491210938 490.311523438 c 0,34,35
 128 614 128 614 178.583984375 696.698242188 c 0,36,37
 205 739 205 739 227.759765625 734.240234375 c 0,38,39
 251 729 251 729 227.239746094 669.240234375 c 0,40,41
 204 609 204 609 192.919921875 522.600097656 c 0,42,43
 182 436 182 436 220.59375 368.955078125 c 0,0,1
EndSplineSet
EndChar

StartChar: uniFB9F
Encoding: 64415 64415 112
Width: 1541
VWidth: 3095
GlyphClass: 2
Flags: W
AnchorPoint: "Anchor-10" 133.747 1006.47 basechar 0
AnchorPoint: "Anchor-7" -2.75098 -1036.45 basechar 0
LayerCount: 2
Fore
SplineSet
1332.62597656 85.166015625 m 5,0,1
 1341.59960938 -13.51953125 1341.59960938 -13.51953125 1332.24023438 -93.599609375 c 4,2,3
 1274 -595.919921875 1274 -595.919921875 631.200195312 -596.022460938 c 4,4,5
 346.3203125 -595.919921875 346.3203125 -595.919921875 208 -451.879882812 c 132,-1,6
 69.6796875 -307.83984375 69.6796875 -307.83984375 104.096679688 -65.125 c 28,7,8
 119.599609375 45.759765625 119.599609375 45.759765625 192.231445312 170.590820312 c 4,9,10
 236.080078125 246.48046875 236.080078125 246.48046875 264.322265625 237.793945312 c 4,11,12
 290.16015625 228.799804688 290.16015625 228.799804688 276.915039062 200.565429688 c 5,13,-1
 252.719726562 140.400390625 l 30,14,15
 172.639648438 -61.3603515625 172.639648438 -61.3603515625 239.091796875 -199.120117188 c 4,16,17
 336.959960938 -400.400390625 336.959960938 -400.400390625 655.060546875 -391.15234375 c 4,18,19
 1142.95996094 -377.51953125 1142.95996094 -377.51953125 1229.28027344 -154.959960938 c 5,20,21
 1217.83984375 91.51953125 1217.83984375 91.51953125 1126.3203125 328.639648438 c 5,22,-1
 1250.92675781 478.306640625 l 5,23,24
 1307.28027344 303.6796875 1307.28027344 303.6796875 1334.96582031 268.577148438 c 20,25,26
 1387.36035156 201.759765625 1387.36035156 201.759765625 1505.11035156 201.840820312 c 6,27,-1
 1552.50683594 201.840820312 l 5,28,-1
 1552.50683594 -0.7734375 l 5,29,-1
 1513.17578125 -0.7734375 l 6,30,31
 1368.84179688 -1.0400390625 1368.84179688 -1.0400390625 1332.62597656 85.166015625 c 5,0,1
EndSplineSet
EndChar

StartChar: uniFBE8
Encoding: 64488 64488 115
Width: 634
VWidth: 3094
GlyphClass: 2
Flags: W
AnchorPoint: "Anchor-10" 351.903 1123.8 basechar 0
AnchorPoint: "Anchor-7" 311.241 -316.586 basechar 0
LayerCount: 2
Fore
SplineSet
410.584960938 278.626953125 m 1,0,1
 402 426 402 426 287.081054688 560.986328125 c 1,2,-1
 411.880859375 765.866210938 l 1,3,4
 519 603 519 603 530.919921875 420.16015625 c 0,5,6
 543 237 543 237 463.319824219 118.040039062 c 0,7,8
 384.257681899 -0.61328125 384.257681899 -0.61328125 69.46484375 -0.61328125 c 2,9,-1
 -10.919921875 -0.61328125 l 5,10,-1
 -10.919921875 201.6015625 l 5,11,-1
 80.9189453125 202.508789062 l 1,12,13
 327 198 327 198 410.584960938 278.626953125 c 1,0,1
EndSplineSet
EndChar

StartChar: uniFBE9
Encoding: 64489 64489 116
Width: 781
VWidth: 3094
GlyphClass: 2
Flags: W
AnchorPoint: "Anchor-10" 464.864 1056.56 basechar 0
AnchorPoint: "Anchor-7" 356.36 -279.135 basechar 0
LayerCount: 2
Fore
SplineSet
402.755859375 472.759765625 m 2,0,1
 407.633409663 542.005305753 407.633409663 542.005305753 452.262695312 541.359375 c 0,2,3
 497.033525343 539.998981308 497.033525343 539.998981308 501.088867188 480.20703125 c 2,4,-1
 507.352539062 387.85546875 l 2,5,6
 520.027113664 201.6015625 520.027113664 201.6015625 778.970703125 201.6015625 c 2,7,-1
 791.81640625 201.6015625 l 5,8,-1
 791.81640625 -0.61328125 l 5,9,-1
 768.918945312 -0.61328125 l 2,10,11
 532 -1 532 -1 463.672851562 151.76953125 c 1,12,13
 383.204214178 -0.61328125 383.204214178 -0.61328125 38.6953125 -0.61328125 c 2,14,-1
 -10.298828125 -0.61328125 l 1,15,-1
 -10.298828125 201.6015625 l 1,16,-1
 74.04296875 201.6015625 l 2,17,18
 383.683925615 201.999593699 383.683925615 201.999593699 396.6171875 385.610351562 c 2,19,-1
 402.755859375 472.759765625 l 2,0,1
EndSplineSet
EndChar

StartChar: uniFE73
Encoding: 65139 65139 124
Width: 741
VWidth: 2838
GlyphClass: 2
Flags: W
AnchorPoint: "Anchor-10" 273.907 1668.62 basechar 0
AnchorPoint: "Anchor-7" 273.907 -138.888 basechar 0
LayerCount: 2
Fore
SplineSet
376.771484375 461.758789062 m 2,0,1
 376.771484375 374.9140625 376.771484375 374.9140625 448.760742188 302.923828125 c 128,-1,2
 520.75 230.93359375 520.75 230.93359375 668.774414062 230.93359375 c 2,3,-1
 748.005859375 230.93359375 l 1,4,-1
 748.005859375 25.201171875 l 1,5,-1
 592.303710938 25.201171875 l 2,6,7
 405.24609375 25.201171875 405.24609375 25.201171875 288.143066406 142.305667415 c 128,-1,8
 171.040039062 259.410162955 171.040039062 259.410162955 171.040039062 445.075195312 c 2,9,-1
 171.040039062 479.810546875 l 1,10,-1
 376.771484375 479.810546875 l 1,11,-1
 376.771484375 461.758789062 l 2,0,1
EndSplineSet
EndChar

StartChar: uniFE8E
Encoding: 65166 65166 150
Width: 555
VWidth: 3062
GlyphClass: 2
Flags: W
AnchorPoint: "Anchor-10" 200.246 1755.71 basechar 0
AnchorPoint: "Anchor-7" 259.719 -290.132 basechar 0
LayerCount: 2
Fore
SplineSet
309.7578125 1574.33203125 m 1,0,1
 320 1384 320 1384 320 1141.5 c 128,-1,2
 320 899 320 899 311 617.5 c 128,-1,3
 302 336 302 336 358.572265625 269.174804688 c 0,4,5
 415.334692829 201.6015625 415.334692829 201.6015625 553.943359375 201.6015625 c 2,6,-1
 565.727539062 201.6015625 l 1,7,-1
 565.727539062 -0.61328125 l 1,8,-1
 552.844726562 -0.61328125 l 2,9,10
 366 -1 366 -1 283.96875 97.287109375 c 4,11,12
 179 223 179 223 182.788085938 470.654296875 c 4,13,14
 195 1273 195 1273 146.766601562 1473.55957031 c 5,15,-1
 309.7578125 1574.33203125 l 1,0,1
EndSplineSet
EndChar

StartChar: uniFEA2
Encoding: 65186 65186 170
Width: 1342
VWidth: 3090
GlyphClass: 2
Flags: W
AnchorPoint: "Anchor-7" 423.808 -941.838 basechar 0
AnchorPoint: "Anchor-10" 631.443 1373.2 basechar 0
LayerCount: 2
Fore
SplineSet
925.587890625 -721.051757812 m 0,0,1
 865.280273438 -728 865.280273438 -728 766.48046875 -728 c 0,2,3
 403.51953125 -728 403.51953125 -728 253.240234375 -586.040039062 c 128,-1,4
 102.959960938 -444.080078125 102.959960938 -444.080078125 103.01171875 -207.66796875 c 0,5,6
 104 212.16015625 104 212.16015625 503.068359375 389.887695312 c 1,7,8
 607.360351562 444.080078125 607.360351562 444.080078125 844.48046875 496.080078125 c 1,9,10
 775.83984375 513.759765625 775.83984375 513.759765625 623.479980469 568.359863281 c 128,-1,11
 471.120117188 622.959960938 471.120117188 622.959960938 381.721679688 613.416992188 c 0,12,13
 253.759765625 601.120117188 253.759765625 601.120117188 158.244140625 467.869140625 c 0,14,15
 117.51953125 410.799804688 117.51953125 410.799804688 105.678710938 406.786132812 c 1,16,17
 88.400390625 425.360351562 88.400390625 425.360351562 138.840332031 546 c 128,-1,18
 189.280273438 666.639648438 189.280273438 666.639648438 253.819335938 727 c 0,19,20
 320.3203125 787.280273438 320.3203125 787.280273438 435.240234375 795.080078125 c 128,-1,21
 550.16015625 802.879882812 550.16015625 802.879882812 741 703.040039062 c 128,-1,22
 931.83984375 603.200195312 931.83984375 603.200195312 1242.98925781 574.302734375 c 1,23,-1
 1199.39746094 410.750976562 l 1,24,25
 1087.83984375 397.280273438 1087.83984375 397.280273438 976.745117188 383.006835938 c 1,26,-1
 977.353515625 373.084960938 l 2,27,28
 988.009765625 201.6015625 988.009765625 201.6015625 1329.21777344 201.6015625 c 2,29,-1
 1351.99804688 201.6015625 l 1,30,-1
 1351.99804688 -0.61328125 l 1,31,-1
 1338.44140625 -0.61328125 l 2,32,33
 889.200195312 -1.0400390625 889.200195312 -1.0400390625 879.486328125 369.04296875 c 1,34,35
 644.799804688 319.280273438 644.799804688 319.280273438 480.247070312 226.198242188 c 0,36,37
 196.559570312 65.51953125 196.559570312 65.51953125 196.559570312 -187.719726562 c 0,38,39
 196.559570312 -279.759765625 196.559570312 -279.759765625 260.138671875 -365.114257812 c 0,40,41
 407.6796875 -562.639648438 407.6796875 -562.639648438 903.400390625 -532.759765625 c 0,42,43
 1121.08007812 -518.959960938 1121.08007812 -518.959960938 1175.16015625 -512.719726562 c 128,-1,44
 1229.24023438 -506.48046875 1229.24023438 -506.48046875 1228.20019531 -509.599609375 c 128,-1,45
 1227.16015625 -512.719726562 1227.16015625 -512.719726562 1223.23046875 -516.353515625 c 0,46,47
 1029.55957031 -709.280273438 1029.55957031 -709.280273438 925.587890625 -721.051757812 c 0,0,1
EndSplineSet
EndChar

StartChar: uniFEA3
Encoding: 65187 65187 171
Width: 1442
VWidth: 3095
GlyphClass: 2
Flags: W
AnchorPoint: "Anchor-10" 479 1258.89 basechar 0
AnchorPoint: "Anchor-7" 517.829 -283.249 basechar 0
LayerCount: 2
Fore
SplineSet
1313.09082031 427.53125 m 1,0,1
 1189 430 1189 430 572.05078125 144.365234375 c 0,2,3
 260.830156458 -0.61328125 260.830156458 -0.61328125 21.4189453125 -0.61328125 c 2,4,-1
 -10.3896484375 -0.61328125 l 1,5,-1
 -10.3896484375 201.6015625 l 1,6,-1
 8.6171875 201.6015625 l 2,7,8
 275 202 275 202 526.28515625 293.333984375 c 4,9,10
 752 376 752 376 994.90234375 468.869140625 c 2,11,-1
 1015.73828125 475.23046875 l 5,12,-1
 994.275390625 478.965820312 l 6,13,14
 905 494 905 494 653.572265625 601.41015625 c 4,15,16
 514 661 514 661 390.51953125 649.080078125 c 4,17,18
 269 638 269 638 180.728515625 504.509765625 c 4,19,20
 137 438 137 438 123.240234375 447.3203125 c 28,21,22
 109 457 109 457 160.16015625 579.919921875 c 4,23,24
 211 703 211 703 276.276367188 763.612304688 c 4,25,26
 342 824 342 824 458.640625 831.080078125 c 4,27,28
 575 838 575 838 765.63671875 738.57421875 c 4,29,30
 1010 611 1010 611 1341.9921875 578.366210938 c 5,31,-1
 1313.09082031 427.53125 l 1,0,1
EndSplineSet
EndChar

StartChar: uniFEA4
Encoding: 65188 65188 172
Width: 1471
VWidth: 3095
GlyphClass: 2
Flags: W
AnchorPoint: "Anchor-10" 471.957 1379.26 basechar 0
AnchorPoint: "Anchor-7" 613.723 -320.325 basechar 0
LayerCount: 2
Fore
SplineSet
979 324.26171875 m 1,0,1
 773 240 773 240 572.05078125 144.365234375 c 0,2,3
 269.806213534 -0.61328125 269.806213534 -0.61328125 21.4189453125 -0.61328125 c 2,4,-1
 -10.3896484375 -0.61328125 l 5,5,-1
 -10.3896484375 201.6015625 l 5,6,-1
 8.6171875 201.6015625 l 2,7,8
 267 202 267 202 526.28515625 293.333984375 c 0,9,10
 641 334 641 334 994.90234375 468.869140625 c 2,11,-1
 1015.73828125 475.23046875 l 1,12,-1
 994.275390625 478.965820312 l 2,13,14
 903 495 903 495 653.572265625 601.41015625 c 0,15,16
 514 661 514 661 390.51953125 649.080078125 c 0,17,18
 269 638 269 638 180.728515625 504.509765625 c 0,19,20
 137 438 137 438 123.240234375 447.3203125 c 24,21,22
 109 457 109 457 160.16015625 579.919921875 c 0,23,24
 211 703 211 703 276.276367188 763.612304688 c 0,25,26
 342 824 342 824 458.640625 831.080078125 c 0,27,28
 575 838 575 838 765.63671875 738.57421875 c 0,29,30
 1010 611 1010 611 1341.9921875 578.366210938 c 1,31,-1
 1313.09082031 427.53125 l 1,32,33
 1251 429 1251 429 1060 355.180664062 c 1,34,35
 1058.9973989 201.6015625 1058.9973989 201.6015625 1313.6328125 201.6015625 c 2,36,-1
 1481.55371094 201.6015625 l 1,37,-1
 1481.55371094 -0.61328125 l 1,38,-1
 1303.921875 -0.61328125 l 2,39,40
 994 -1 994 -1 979 324.26171875 c 1,0,1
EndSplineSet
EndChar

StartChar: uniFEAA
Encoding: 65194 65194 178
Width: 1151
VWidth: 3088
GlyphClass: 2
Flags: W
AnchorPoint: "Anchor-10" 658.019 1383.24 basechar 0
AnchorPoint: "Anchor-7" 419.016 -269.475 basechar 0
LayerCount: 2
Fore
SplineSet
462.057617188 -11.3271484375 m 4,0,1
 329 -14 329 -14 230.002929688 24.4208984375 c 4,2,3
 38 99 38 99 105.266601562 438.040039062 c 5,4,5
 145 453 145 453 180.546875 440.131835938 c 5,6,7
 144 209 144 209 351.40234375 190.284179688 c 4,8,9
 388 187 388 187 399.178710938 187.000976562 c 4,10,11
 605 179 605 179 723.712890625 235.251953125 c 4,12,13
 768 256 768 256 792 294 c 5,14,15
 792 317.164679597 792 317.164679597 767.37890625 398.2109375 c 6,16,-1
 622.950195312 873.6328125 l 5,17,-1
 731 1014 l 5,18,-1
 879.517578125 484.270507812 l 6,19,20
 959.112193008 201.6015625 959.112193008 201.6015625 1149.53515625 201.6015625 c 2,21,-1
 1161.18359375 201.6015625 l 1,22,-1
 1161.18359375 -0.61328125 l 1,23,-1
 1135.47949219 -0.61328125 l 2,24,25
 939 -1 939 -1 840 221 c 5,26,-1
 799.157226562 87.2880859375 l 5,27,28
 691 -6 691 -6 462.057617188 -11.3271484375 c 4,0,1
EndSplineSet
EndChar

StartChar: uniFEAE
Encoding: 65198 65198 182
Width: 1003
VWidth: 3094
GlyphClass: 2
Flags: W
AnchorPoint: "Anchor-10" 623.202 881.06 basechar 0
AnchorPoint: "Anchor-7" 387.002 -776.558 basechar 0
LayerCount: 2
Fore
SplineSet
1001.87597656 -0.61328125 m 2,0,1
 864.623046875 -1.0390625 864.623046875 -1.0390625 790.403320312 62.220703125 c 1,2,3
 734.198242188 -290.317382812 734.198242188 -290.317382812 464.379882812 -500.705078125 c 0,4,5
 413.040039062 -540.799804688 413.040039062 -540.799804688 368.934570312 -541.657226562 c 0,6,7
 169.6796875 -546 169.6796875 -546 8.1884765625 -476.65625 c 0,8,9
 0.16015625 -473.200195312 0.16015625 -473.200195312 0.435546875 -471.884765625 c 0,10,11
 1.2001953125 -469.040039062 1.2001953125 -469.040039062 18.8798828125 -463.3203125 c 128,-1,12
 36.5595703125 -457.599609375 36.5595703125 -457.599609375 52.716796875 -450.793945312 c 0,13,14
 658.48046875 -217.360351562 658.48046875 -217.360351562 693.971679688 88.0732421875 c 0,15,16
 701.120117188 149.759765625 701.120117188 149.759765625 656.897460938 220.89453125 c 128,-1,17
 612.67578125 292.02734375 612.67578125 292.02734375 564.334960938 352.84375 c 1,18,-1
 672.623046875 526.706054688 l 1,19,20
 729.200195312 408.719726562 729.200195312 408.719726562 788.265625 297.577148438 c 0,21,22
 839.524414062 201.6015625 839.524414062 201.6015625 1006.50195312 201.6015625 c 2,23,-1
 1014.77441406 201.6015625 l 1,24,-1
 1014.77441406 -0.61328125 l 1,25,-1
 1001.87597656 -0.61328125 l 2,0,1
EndSplineSet
PairPos2: "'kern' Horizontal Kerning lookup 15-4" uni0621 dx=-184 dy=0 dh=-184 dv=0 dx=0 dy=0 dh=0 dv=0
PairPos2: "'kern' Horizontal Kerning lookup 15-3" uni0648 dx=-90 dy=0 dh=-90 dv=0 dx=0 dy=0 dh=0 dv=0
PairPos2: "'kern' Horizontal Kerning lookup 15-1" uni0644 dx=-108 dy=0 dh=-108 dv=0 dx=0 dy=0 dh=0 dv=0
PairPos2: "'kern' Horizontal Kerning lookup 15-1" uni0642 dx=-108 dy=0 dh=-108 dv=0 dx=0 dy=0 dh=0 dv=0
PairPos2: "'kern' Horizontal Kerning lookup 15-1" uni0632 dx=-86 dy=0 dh=-86 dv=0 dx=0 dy=0 dh=0 dv=0
PairPos2: "'kern' Horizontal Kerning lookup 15-1" uni0631 dx=-86 dy=0 dh=-86 dv=0 dx=0 dy=0 dh=0 dv=0
PairPos2: "'kern' Horizontal Kerning lookup 15-1" uniFB8A dx=-86 dy=0 dh=-86 dv=0 dx=0 dy=0 dh=0 dv=0
PairPos2: "'kern' Horizontal Kerning lookup 15-1" afii57508 dx=-86 dy=0 dh=-86 dv=0 dx=0 dy=0 dh=0 dv=0
PairPos2: "'kern' Horizontal Kerning lookup 15-1" uniFB7C dx=-108 dy=0 dh=-108 dv=0 dx=0 dy=0 dh=0 dv=0
PairPos2: "'kern' Horizontal Kerning lookup 15-1" uni06CC dx=-108 dy=0 dh=-108 dv=0 dx=0 dy=0 dh=0 dv=0
PairPos2: "'kern' Horizontal Kerning lookup 15-1" uniFEEB dx=-184 dy=0 dh=-184 dv=0 dx=0 dy=0 dh=0 dv=0
PairPos2: "'kern' Horizontal Kerning lookup 15-1" uniFEDF dx=-184 dy=0 dh=-184 dv=0 dx=0 dy=0 dh=0 dv=0
PairPos2: "'kern' Horizontal Kerning lookup 15-1" uniFB90 dx=-184 dy=0 dh=-184 dv=0 dx=0 dy=0 dh=0 dv=0
PairPos2: "'kern' Horizontal Kerning lookup 15-1" uni06A9 dx=-184 dy=0 dh=-184 dv=0 dx=0 dy=0 dh=0 dv=0
PairPos2: "'kern' Horizontal Kerning lookup 15-1" uni0649 dx=-108 dy=0 dh=-108 dv=0 dx=0 dy=0 dh=0 dv=0
PairPos2: "'kern' Horizontal Kerning lookup 15-1" uni0647 dx=-184 dy=0 dh=-184 dv=0 dx=0 dy=0 dh=0 dv=0
PairPos2: "'kern' Horizontal Kerning lookup 15-1" uniFEE7 dx=-184 dy=0 dh=-184 dv=0 dx=0 dy=0 dh=0 dv=0
PairPos2: "'kern' Horizontal Kerning lookup 15-1" uniFEE3 dx=-184 dy=0 dh=-184 dv=0 dx=0 dy=0 dh=0 dv=0
PairPos2: "'kern' Horizontal Kerning lookup 15-1" uni0645 dx=-184 dy=0 dh=-184 dv=0 dx=0 dy=0 dh=0 dv=0
PairPos2: "'kern' Horizontal Kerning lookup 15-1" uniFEDB dx=-184 dy=0 dh=-184 dv=0 dx=0 dy=0 dh=0 dv=0
PairPos2: "'kern' Horizontal Kerning lookup 15-1" uniFED7 dx=-184 dy=0 dh=-184 dv=0 dx=0 dy=0 dh=0 dv=0
PairPos2: "'kern' Horizontal Kerning lookup 15-1" uniFED3 dx=-184 dy=0 dh=-184 dv=0 dx=0 dy=0 dh=0 dv=0
PairPos2: "'kern' Horizontal Kerning lookup 15-1" uni0641 dx=-184 dy=0 dh=-184 dv=0 dx=0 dy=0 dh=0 dv=0
PairPos2: "'kern' Horizontal Kerning lookup 15-1" uniFECF dx=-184 dy=0 dh=-184 dv=0 dx=0 dy=0 dh=0 dv=0
PairPos2: "'kern' Horizontal Kerning lookup 15-1" uniFECB dx=-184 dy=0 dh=-184 dv=0 dx=0 dy=0 dh=0 dv=0
PairPos2: "'kern' Horizontal Kerning lookup 15-1" uniFEC7 dx=-184 dy=0 dh=-184 dv=0 dx=0 dy=0 dh=0 dv=0
PairPos2: "'kern' Horizontal Kerning lookup 15-1" uni0638 dx=-184 dy=0 dh=-184 dv=0 dx=0 dy=0 dh=0 dv=0
PairPos2: "'kern' Horizontal Kerning lookup 15-1" uniFEC3 dx=-184 dy=0 dh=-184 dv=0 dx=0 dy=0 dh=0 dv=0
PairPos2: "'kern' Horizontal Kerning lookup 15-1" uni0637 dx=-184 dy=0 dh=-184 dv=0 dx=0 dy=0 dh=0 dv=0
PairPos2: "'kern' Horizontal Kerning lookup 15-1" uniFEBF dx=-184 dy=0 dh=-184 dv=0 dx=0 dy=0 dh=0 dv=0
PairPos2: "'kern' Horizontal Kerning lookup 15-1" uni0636 dx=-184 dy=0 dh=-184 dv=0 dx=0 dy=0 dh=0 dv=0
PairPos2: "'kern' Horizontal Kerning lookup 15-1" uniFEBB dx=-184 dy=0 dh=-184 dv=0 dx=0 dy=0 dh=0 dv=0
PairPos2: "'kern' Horizontal Kerning lookup 15-1" uni0635 dx=-184 dy=0 dh=-184 dv=0 dx=0 dy=0 dh=0 dv=0
PairPos2: "'kern' Horizontal Kerning lookup 15-1" uniFEB7 dx=-184 dy=0 dh=-184 dv=0 dx=0 dy=0 dh=0 dv=0
PairPos2: "'kern' Horizontal Kerning lookup 15-1" uni0634 dx=-184 dy=0 dh=-184 dv=0 dx=0 dy=0 dh=0 dv=0
PairPos2: "'kern' Horizontal Kerning lookup 15-1" uniFEB3 dx=-184 dy=0 dh=-184 dv=0 dx=0 dy=0 dh=0 dv=0
PairPos2: "'kern' Horizontal Kerning lookup 15-1" uni0633 dx=-184 dy=0 dh=-184 dv=0 dx=0 dy=0 dh=0 dv=0
PairPos2: "'kern' Horizontal Kerning lookup 15-1" uni0630 dx=-184 dy=0 dh=-184 dv=0 dx=0 dy=0 dh=0 dv=0
PairPos2: "'kern' Horizontal Kerning lookup 15-1" uni062F dx=-184 dy=0 dh=-184 dv=0 dx=0 dy=0 dh=0 dv=0
PairPos2: "'kern' Horizontal Kerning lookup 15-1" uniFEA7 dx=-184 dy=0 dh=-184 dv=0 dx=0 dy=0 dh=0 dv=0
PairPos2: "'kern' Horizontal Kerning lookup 15-1" uniFEA3 dx=-184 dy=0 dh=-184 dv=0 dx=0 dy=0 dh=0 dv=0
PairPos2: "'kern' Horizontal Kerning lookup 15-1" uniFE9F dx=-184 dy=0 dh=-184 dv=0 dx=0 dy=0 dh=0 dv=0
PairPos2: "'kern' Horizontal Kerning lookup 15-1" uniFE9B dx=-184 dy=0 dh=-184 dv=0 dx=0 dy=0 dh=0 dv=0
PairPos2: "'kern' Horizontal Kerning lookup 15-1" uni062B dx=-184 dy=0 dh=-184 dv=0 dx=0 dy=0 dh=0 dv=0
PairPos2: "'kern' Horizontal Kerning lookup 15-1" uniFE97 dx=-184 dy=0 dh=-184 dv=0 dx=0 dy=0 dh=0 dv=0
PairPos2: "'kern' Horizontal Kerning lookup 15-1" uni062A dx=-184 dy=0 dh=-184 dv=0 dx=0 dy=0 dh=0 dv=0
PairPos2: "'kern' Horizontal Kerning lookup 15-1" uni0629 dx=-184 dy=0 dh=-184 dv=0 dx=0 dy=0 dh=0 dv=0
PairPos2: "'kern' Horizontal Kerning lookup 15-1" uni0628 dx=-184 dy=0 dh=-184 dv=0 dx=0 dy=0 dh=0 dv=0
PairPos2: "'kern' Horizontal Kerning lookup 15-1" uni0627 dx=-205 dy=0 dh=-205 dv=0 dx=0 dy=0 dh=0 dv=0
PairPos2: "'kern' Horizontal Kerning lookup 15-1" uni0622 dx=-205 dy=0 dh=-205 dv=0 dx=0 dy=0 dh=0 dv=0
PairPos2: "'kern' Horizontal Kerning lookup 15-1" uniFB94 dx=-184 dy=0 dh=-184 dv=0 dx=0 dy=0 dh=0 dv=0
PairPos2: "'kern' Horizontal Kerning lookup 15-1" afii57509 dx=-184 dy=0 dh=-184 dv=0 dx=0 dy=0 dh=0 dv=0
PairPos2: "'kern' Horizontal Kerning lookup 15-1" uniFB56 dx=-184 dy=0 dh=-184 dv=0 dx=0 dy=0 dh=0 dv=0
PairPos2: "'kern' Horizontal Kerning lookup 15-1" afii57506 dx=-184 dy=0 dh=-184 dv=0 dx=0 dy=0 dh=0 dv=0
EndChar

StartChar: uniFEB2
Encoding: 65202 65202 186
Width: 2668
VWidth: 3095
GlyphClass: 2
Flags: W
AnchorPoint: "Anchor-10" 760.433 1091.98 basechar 0
AnchorPoint: "Anchor-7" 431.836 -927.576 basechar 0
LayerCount: 2
Fore
SplineSet
1339.48632812 268.577148438 m 16,0,1
 1407 187 1407 187 1553.046875 191.365234375 c 0,2,3
 1737 197 1737 197 1742.15332031 379 c 6,4,-1
 1743.14648438 411.224609375 l 5,5,6
 1750 479 1750 479 1787.48828125 479.734375 c 4,7,8
 1836 480 1836 480 1841.44824219 418.749023438 c 5,9,-1
 1846.94921875 387 l 6,10,11
 1877.61457111 210.014153997 1877.61457111 210.014153997 2064.0703125 203.166992188 c 4,12,13
 2227 197 2227 197 2242.00488281 392.48828125 c 6,14,-1
 2246.56445312 453.03515625 l 5,15,16
 2252 521 2252 521 2291.01074219 521.71484375 c 4,17,18
 2338 522 2338 522 2344.90527344 460.485351562 c 6,19,-1
 2352.85644531 393.919921875 l 6,20,21
 2375.78108101 202.00000744 2375.78108101 202.00000744 2634.61425781 201.991210938 c 6,22,-1
 2678.13183594 201.991210938 l 5,23,-1
 2678.13183594 -0.771484375 l 5,24,-1
 2643.484375 -0.771484375 l 6,25,26
 2378.89728404 -0.771484375 2378.89728404 -0.771484375 2296.984375 181.462890625 c 5,27,28
 2225 3 2225 3 2080.00878906 -0.0859375 c 4,29,30
 1872 -4 1872 -4 1809.62402344 174.244140625 c 5,31,32
 1737 5 1737 5 1576.64013672 -0.52001953125 c 0,33,34
 1410 -6 1410 -6 1346.62597656 85.166015625 c 1,35,36
 1354.26536258 22.0678052392 1354.26536258 22.0678052392 1352.48046875 -15.599609375 c 0,37,38
 1336 -596 1336 -596 632.719726562 -596.022460938 c 4,39,40
 348 -596 348 -596 209.51953125 -451.879882812 c 0,41,42
 71 -308 71 -308 105.616210938 -65.125 c 24,43,44
 121 46 121 46 193.750976562 170.590820312 c 0,45,46
 238 246 238 246 265.842773438 237.793945312 c 0,47,48
 292 229 292 229 278.435546875 200.565429688 c 1,49,-1
 254.240234375 140.400390625 l 26,50,51
 173.809452043 -59.6020338456 173.809452043 -59.6020338456 240.611328125 -199.120117188 c 0,52,53
 338 -400 338 -400 656.581054688 -391.15234375 c 0,54,55
 1144 -377 1144 -377 1230.79980469 -154.959960938 c 1,56,57
 1219 92 1219 92 1127.83984375 328.639648438 c 1,58,-1
 1252.44726562 478.306640625 l 1,59,60
 1310 305 1310 305 1339.48632812 268.577148438 c 16,0,1
1743.14648438 411.224609375 m 6,61,-1
 1743.12988281 411.059570312 l 6,62,63
 1743 411 1743 411 1743.14648438 411.224609375 c 6,61,-1
EndSplineSet
EndChar

StartChar: uniFEB3
Encoding: 65203 65203 187
Width: 1543
VWidth: 3095
GlyphClass: 2
Flags: W
AnchorPoint: "Anchor-10" 821.038 1176.69 basechar 0
AnchorPoint: "Anchor-7" 737.736 -310.012 basechar 0
LayerCount: 2
Fore
SplineSet
1138.81445312 201.921875 m 0,0,1
 1269 202 1269 202 1307.28027344 274.040039062 c 0,2,3
 1333 322 1333 322 1287.52001953 409.760253906 c 0,4,5
 1242 497 1242 497 1190.015625 556.400390625 c 1,6,-1
 1314.81640625 761.280273438 l 1,7,8
 1423 597 1423 597 1434.15966797 414.959960938 c 0,9,10
 1446 233 1446 233 1366.04003906 113.879882812 c 0,11,12
 1286 -5 1286 -5 1154.40039062 -5.2001953125 c 0,13,14
 951 -5 951 -5 884.549804688 179.471679688 c 1,15,16
 811 -2 811 -2 635.887695312 -2.4521484375 c 0,17,18
 427.115121693 -2.00024918698 427.115121693 -2.00024918698 374.08984375 158.267578125 c 2,19,-1
 369.875976562 171.00390625 l 1,20,-1
 364.405273438 158.755859375 l 2,21,22
 293.172849736 -0.61328125 293.172849736 -0.61328125 50.4267578125 -0.61328125 c 2,23,-1
 -6.287109375 -0.61328125 l 1,24,-1
 -6.287109375 201.6015625 l 1,25,-1
 36.263671875 201.6015625 l 6,26,27
 303.218627321 202.000326575 303.218627321 202.000326575 311.80859375 335.756835938 c 2,28,-1
 315.701171875 396.369140625 l 2,29,30
 320 465 320 465 362.290039062 464.896484375 c 0,31,32
 405.543273749 464.998918363 405.543273749 464.998918363 414.109375 402.994140625 c 2,33,-1
 419.639648438 362.963867188 l 2,34,35
 442 201 442 201 652.28515625 201.024414062 c 0,36,37
 815.876688288 201.000018389 815.876688288 201.000018389 836.88671875 402.091796875 c 2,38,-1
 841.740234375 448.545898438 l 2,39,40
 849 517 849 517 886.806640625 517.262695312 c 0,41,42
 920 518 920 518 929.834960938 497.831054688 c 0,43,44
 939.013443611 477.970911091 939.013443611 477.970911091 940.073242188 456.306640625 c 2,45,-1
 941.59375 425.224609375 l 2,46,47
 953 202 953 202 1138.81445312 201.921875 c 0,0,1
EndSplineSet
EndChar

StartChar: uniFEB4
Encoding: 65204 65204 188
Width: 1714
VWidth: 3094
GlyphClass: 2
Flags: W
AnchorPoint: "Anchor-7" 737.736 -310.012 basechar 0
AnchorPoint: "Anchor-10" 851.671 1064.44 basechar 0
LayerCount: 2
Fore
SplineSet
1375.49804688 529.694335938 m 0,0,1
 1417.08554677 528.998568786 1417.08554677 528.998568786 1422.53515625 468.447265625 c 2,2,-1
 1429.35449219 392.676757812 l 2,3,4
 1447.03687199 201.6015625 1447.03687199 201.6015625 1699.50976562 201.6015625 c 2,5,-1
 1725.88574219 201.6015625 l 1,6,-1
 1725.88574219 -0.61328125 l 1,7,-1
 1708.40429688 -0.61328125 l 2,8,9
 1433.88779098 -1.00015813649 1433.88779098 -1.00015813649 1379.80957031 156.391601562 c 2,10,-1
 1369.52636719 186.3203125 l 1,11,-1
 1359.78808594 156.220703125 l 2,12,13
 1310 1 1310 1 1131.53613281 -3.11962890625 c 0,14,15
 953.61359491 -7.00844557734 953.61359491 -7.00844557734 898.1953125 141.47265625 c 2,16,-1
 887.614257812 169.822265625 l 1,17,-1
 878.265625 141.044921875 l 2,18,19
 833 3 833 3 637.203613281 -0.5166015625 c 128,-1,20
 441.280456597 -3.99502077431 441.280456597 -3.99502077431 371.475585938 139.907226562 c 2,21,-1
 362.56640625 158.2734375 l 1,22,-1
 352.728515625 140.383789062 l 2,23,24
 275.21260623 -0.61328125 275.21260623 -0.61328125 80.4423828125 -0.61328125 c 2,25,-1
 -10.2373046875 -0.61328125 l 5,26,-1
 -10.2373046875 201.676757812 l 5,27,-1
 66.3349609375 202.177734375 l 2,28,29
 288.573072585 203.996506074 288.573072585 203.996506074 309.073242188 352.258789062 c 2,30,-1
 312.9375 380.206054688 l 2,31,32
 322 448 322 448 367.727539062 446.696289062 c 0,33,34
 403.617602717 445.017882887 403.617602717 445.017882887 411.63671875 395.642578125 c 2,35,-1
 416.966796875 362.82421875 l 2,36,37
 443 204 443 204 626.75 200.982421875 c 0,38,39
 822.141021014 197.99784592 822.141021014 197.99784592 832.756835938 389.263671875 c 2,40,-1
 834.1875 415.040039062 l 2,41,42
 838 483 838 483 882.80078125 483.372070312 c 0,43,44
 927.06606151 484.000938523 927.06606151 484.000938523 932.515625 422.098632812 c 2,45,-1
 935.392578125 389.418945312 l 2,46,47
 953 189 953 189 1147.703125 201.112304688 c 0,48,49
 1294.73950554 209.984282114 1294.73950554 209.984282114 1316.65722656 396.830078125 c 2,50,-1
 1324.17578125 460.924804688 l 2,51,52
 1332 530 1332 530 1375.49804688 529.694335938 c 0,0,1
EndSplineSet
EndChar

StartChar: uniFEBA
Encoding: 65210 65210 194
Width: 2786
VWidth: 3095
GlyphClass: 2
Flags: W
AnchorPoint: "Anchor-7" 326.324 -847.391 basechar 0
AnchorPoint: "Anchor-10" 723.596 997.722 basechar 0
LayerCount: 2
Fore
SplineSet
1609.59765625 204.96484375 m 5,0,-1
 1882.23046875 204.96484375 l 6,1,2
 2206.20800781 204.530273438 2206.20800781 204.530273438 2312.44433594 233.358398438 c 4,3,4
 2482.84863281 278.37109375 2482.84863281 278.37109375 2460.96582031 439.862304688 c 4,5,6
 2439.08300781 601.353515625 2439.08300781 601.353515625 2243.60546875 618.22265625 c 4,7,8
 2048.12792969 635.090820312 2048.12792969 635.090820312 1831.65234375 458.221679688 c 4,9,10
 1709.17089844 356.384765625 1709.17089844 356.384765625 1609.59765625 204.96484375 c 5,0,-1
1652 0 m 6,11,12
 1411.77050781 -0.013671875 1411.77050781 -0.013671875 1346.62597656 85.166015625 c 5,13,14
 1354.55957031 15.599609375 1354.55957031 15.599609375 1352.48046875 -15.599609375 c 4,15,16
 1314 -595.919921875 1314 -595.919921875 632.719726562 -596.022460938 c 4,17,18
 347.83984375 -595.919921875 347.83984375 -595.919921875 209.51953125 -451.879882812 c 4,19,20
 71.2001953125 -307.83984375 71.2001953125 -307.83984375 105.616210938 -65.125 c 28,21,22
 121.120117188 45.759765625 121.120117188 45.759765625 193.750976562 170.590820312 c 4,23,24
 237.599609375 246.48046875 237.599609375 246.48046875 265.842773438 237.793945312 c 4,25,26
 291.6796875 228.799804688 291.6796875 228.799804688 278.435546875 200.565429688 c 5,27,-1
 254.240234375 140.400390625 l 30,28,29
 174.16015625 -61.3603515625 174.16015625 -61.3603515625 240.611328125 -199.120117188 c 4,30,31
 338.48046875 -400.400390625 338.48046875 -400.400390625 656.581054688 -391.15234375 c 4,32,33
 1144.48046875 -377.51953125 1144.48046875 -377.51953125 1230.79980469 -154.959960938 c 5,34,35
 1219.36035156 91.51953125 1219.36035156 91.51953125 1127.83984375 328.639648438 c 5,36,-1
 1252.44726562 478.306640625 l 5,37,38
 1306.71972656 297.440429688 1306.71972656 297.440429688 1343.78417969 261.596679688 c 20,39,40
 1401.36035156 205.919921875 1401.36035156 205.919921875 1538.68261719 216.575195312 c 5,41,42
 1899.51953125 793.51953125 1899.51953125 793.51953125 2266.52832031 797.331054688 c 4,43,44
 2477.75976562 799.759765625 2477.75976562 799.759765625 2559.91992188 641.6796875 c 4,45,46
 2642.08007812 483.599609375 2642.08007812 483.599609375 2510.92871094 267.970703125 c 4,47,48
 2490.24023438 234 2490.24023438 234 2462.04785156 203.32421875 c 5,49,-1
 2797.85839844 203.33203125 l 5,50,-1
 2797.85839844 1.1171875 l 5,51,-1
 2659.06347656 1.1171875 l 6,52,53
 2378.95996094 1.0400390625 2378.95996094 1.0400390625 2286.28808594 78.287109375 c 5,54,55
 2117.97753906 0.0263671875 2117.97753906 0.0263671875 1846.11035156 0.0107421875 c 6,56,-1
 1652 0 l 6,11,12
EndSplineSet
EndChar

StartChar: uniFEBB
Encoding: 65211 65211 195
Width: 1821
VWidth: 3095
GlyphClass: 2
Flags: W
AnchorPoint: "Anchor-10" 732.562 1260.02 basechar 0
AnchorPoint: "Anchor-7" 778.585 -324.678 basechar 0
LayerCount: 2
Fore
SplineSet
729.389648438 203.234375 m 1,0,-1
 1002.02148438 203.234375 l 2,1,2
 1326 202.799804688 1326 202.799804688 1432.23632812 231.627929688 c 0,3,4
 1602.63964844 276.639648438 1602.63964844 276.639648438 1580.75732422 438.131347656 c 128,-1,5
 1558.875 599.623046875 1558.875 599.623046875 1363.39746094 616.491699219 c 128,-1,6
 1167.91992188 633.360351562 1167.91992188 633.360351562 951.443359375 456.491210938 c 0,7,8
 828.961914062 354.654296875 828.961914062 354.654296875 729.389648438 203.234375 c 1,0,-1
413.034179688 146.61328125 m 1,9,10
 310.269929974 -0.61328125 310.269929974 -0.61328125 23.2841796875 -0.61328125 c 2,11,-1
 -10.845703125 -0.61328125 l 1,12,-1
 -10.845703125 201.6015625 l 1,13,-1
 7.7685546875 201.6015625 l 2,14,15
 330.128607784 202.000159023 330.128607784 202.000159023 342.48046875 373.184570312 c 2,16,-1
 348.94921875 462.834960938 l 1,17,18
 349 542 349 542 397.415039062 541.891601562 c 0,19,20
 446 542 446 542 446.396484375 469.8203125 c 1,21,-1
 451.77734375 376.500976562 l 2,22,23
 460 234 460 234 658.474609375 214.844726562 c 1,24,25
 1020 792 1020 792 1386.3203125 795.599609375 c 0,26,27
 1598 798 1598 798 1680.29785156 639.591308594 c 0,28,29
 1763 482 1763 482 1630.71972656 266.240234375 c 0,30,31
 1466.18911042 -1.69204038189 1466.18911042 -1.69204038189 965.90234375 -1.7197265625 c 2,32,-1
 771.791992188 -1.73046875 l 2,33,34
 524 -2 524 -2 413.034179688 146.61328125 c 1,9,10
EndSplineSet
EndChar

StartChar: uniFEBC
Encoding: 65212 65212 196
Width: 1906
VWidth: 3095
GlyphClass: 2
Flags: W
AnchorPoint: "Anchor-10" 868.304 1449.93 basechar 0
AnchorPoint: "Anchor-7" 847.56 -323.216 basechar 0
LayerCount: 2
Fore
SplineSet
729.389648438 203.234375 m 1,0,-1
 1002.02148438 203.234375 l 2,1,2
 1326 202.799804688 1326 202.799804688 1432.23632812 231.627929688 c 0,3,4
 1602.63964844 276.639648438 1602.63964844 276.639648438 1580.75732422 438.131347656 c 0,5,6
 1558.875 599.623046875 1558.875 599.623046875 1363.39746094 616.491699219 c 0,7,8
 1167.91992188 633.360351562 1167.91992188 633.360351562 951.443359375 456.491210938 c 0,9,10
 828.961914062 354.654296875 828.961914062 354.654296875 729.389648438 203.234375 c 1,0,-1
1406.08007812 76.556640625 m 5,11,12
 1236.55957031 -2.080078125 1236.55957031 -2.080078125 965.90234375 -1.7197265625 c 2,13,-1
 771.791992188 -1.73046875 l 2,14,15
 523.909179688 -1.7451171875 523.909179688 -1.7451171875 413.034179688 146.61328125 c 1,16,17
 309.919921875 -1.0400390625 309.919921875 -1.0400390625 23.2841796875 -0.61328125 c 2,18,-1
 -5.845703125 -0.61328125 l 1,19,-1
 -5.845703125 201.6015625 l 1,20,-1
 7.7685546875 201.6015625 l 2,21,22
 329.66796875 201.6015625 329.66796875 201.6015625 342.48046875 373.184570312 c 2,23,-1
 348.94921875 462.834960938 l 1,24,25
 349.440429688 541.83984375 349.440429688 541.83984375 397.415039062 541.891601562 c 0,26,27
 446.16015625 541.83984375 446.16015625 541.83984375 446.396484375 469.8203125 c 1,28,-1
 451.77734375 376.500976562 l 2,29,30
 459.99609375 233.969726562 459.99609375 233.969726562 658.474609375 214.844726562 c 1,31,32
 1019.20019531 791.440429688 1019.20019531 791.440429688 1386.3203125 795.599609375 c 0,33,34
 1597.44042969 797.6796875 1597.44042969 797.6796875 1675.44042969 647.919921875 c 0,35,36
 1762.79980469 480.48046875 1762.79980469 480.48046875 1630.71972656 266.240234375 c 0,37,38
 1609.91992188 231.919921875 1609.91992188 231.919921875 1581.83984375 201.59375 c 5,39,-1
 1917.65039062 201.6015625 l 5,40,-1
 1917.65039062 -0.61328125 l 5,41,-1
 1778.85546875 -0.61328125 l 6,42,43
 1499.16503906 -0.61328125 1499.16503906 -0.61328125 1406.08007812 76.556640625 c 5,11,12
EndSplineSet
EndChar

StartChar: uniFEC2
Encoding: 65218 65218 202
Width: 1664
VWidth: 3095
GlyphClass: 2
Flags: W
AnchorPoint: "Anchor-7" 832.478 -323.193 basechar 0
AnchorPoint: "Anchor-10" 521.623 1744.34 basechar 0
LayerCount: 2
Fore
SplineSet
570.01953125 441.166015625 m 1,0,1
 853 790 853 790 1136.60839844 793.170898438 c 0,2,3
 1346 796 1346 796 1425.72851562 645.490234375 c 0,4,5
 1515.07256521 474.952716389 1515.07256521 474.952716389 1381.0078125 263.810546875 c 0,6,7
 1357 226 1357 226 1336.76757812 201.836914062 c 1,8,-1
 1674.65820312 202.71875 l 1,9,-1
 1674.65820312 0.50390625 l 1,10,-1
 1535.86230469 0.50390625 l 2,11,12
 1243 1 1243 1 1163.08789062 77.673828125 c 1,13,14
 989.057920748 0.0258428440493 989.057920748 0.0258428440493 716.190429688 0.0107421875 c 2,15,-1
 522.080078125 0 l 1,16,-1
 264.916992188 -0.61328125 l 1,17,18
 154 85 154 85 107.572265625 202.275390625 c 1,19,-1
 399.853515625 202.276367188 l 1,20,21
 429 253 429 253 458.133789062 304.487304688 c 1,22,23
 458.130669538 503.88416578 458.130669538 503.88416578 448.852539062 894.515625 c 4,24,25
 440 1344 440 1344 408.447265625 1476.20703125 c 1,26,-1
 571.151367188 1573.11523438 l 1,27,-1
 643.029296875 1342 l 2,28,29
 661.999936231 1281.00020505 661.999936231 1281.00020505 620 1251.98828125 c 2,30,-1
 570.795898438 1218 l 1,31,-1
 570.01953125 441.166015625 l 1,0,1
479.677734375 200.805664062 m 1,32,-1
 752.309570312 200.805664062 l 2,33,34
 1076.28808594 200.37109375 1076.28808594 200.37109375 1182.52441406 229.198242188 c 0,35,36
 1352.92871094 274.2109375 1352.92871094 274.2109375 1331.04589844 435.702148438 c 128,-1,37
 1309.16308594 597.193359375 1309.16308594 597.193359375 1113.68554688 614.062011719 c 128,-1,38
 918.208007812 630.930664062 918.208007812 630.930664062 701.731445312 454.061523438 c 0,39,40
 579.250976562 352.224609375 579.250976562 352.224609375 479.677734375 200.805664062 c 1,32,-1
EndSplineSet
EndChar

StartChar: uniFEC3
Encoding: 65219 65219 203
Width: 1352
VWidth: 3095
GlyphClass: 2
Flags: W
AnchorPoint: "Anchor-7" 529.599 -321.84 basechar 0
AnchorPoint: "Anchor-10" 259.647 1753.66 basechar 0
LayerCount: 2
Fore
SplineSet
356.01953125 441.166015625 m 1,0,1
 638 789 638 789 922.000976562 792.053710938 c 0,2,3
 1132 795 1132 795 1211.12109375 644.373046875 c 0,4,5
 1298 479 1298 479 1166.40039062 262.693359375 c 0,6,7
 1005.95222953 -1.07853320629 1005.95222953 -1.07853320629 501.583007812 -1.1064453125 c 2,8,-1
 307.47265625 -1.1171875 l 1,9,-1
 -16.2509765625 -1.73046875 l 1,10,-1
 -15.515625 201.158203125 l 1,11,-1
 185.24609375 201.159179688 l 1,12,13
 215 253 215 253 244.133789062 304.487304688 c 1,14,15
 244.130669538 503.884165783 244.130669538 503.884165783 234.852539062 894.515625 c 4,16,17
 226 1344 226 1344 194.447265625 1476.20703125 c 1,18,-1
 357.151367188 1573.11523438 l 1,19,-1
 429.029296875 1342 l 2,20,21
 447.999936231 1281.00020505 447.999936231 1281.00020505 406 1251.98828125 c 2,22,-1
 356.795898438 1218 l 1,23,-1
 356.01953125 441.166015625 l 1,0,1
265.0703125 199.688476562 m 1,24,-1
 537.702148438 199.688476562 l 2,25,26
 861.680664062 199.25390625 861.680664062 199.25390625 967.916992188 228.081054688 c 0,27,28
 1138.3203125 273.09375 1138.3203125 273.09375 1116.43798828 434.584960938 c 128,-1,29
 1094.55566406 596.076171875 1094.55566406 596.076171875 899.078125 612.944824219 c 128,-1,30
 703.600585938 629.813476562 703.600585938 629.813476562 487.124023438 452.944335938 c 0,31,32
 364.642578125 351.107421875 364.642578125 351.107421875 265.0703125 199.688476562 c 1,24,-1
EndSplineSet
EndChar

StartChar: uniFEC4
Encoding: 65220 65220 204
Width: 1448
VWidth: 3095
GlyphClass: 2
Flags: W
AnchorPoint: "Anchor-10" 251.76 1749.96 basechar 0
AnchorPoint: "Anchor-7" 640.75 -317.742 basechar 0
LayerCount: 2
Fore
SplineSet
357.01953125 441.166015625 m 1,0,1
 638 789 638 789 922.000976562 792.053710938 c 0,2,3
 1132 795 1132 795 1211.12109375 644.373046875 c 0,4,5
 1299 478 1299 478 1166.40039062 262.693359375 c 0,6,7
 1143 225 1143 225 1122.16015625 200.719726562 c 1,8,-1
 1460.05078125 201.6015625 l 1,9,-1
 1460.05078125 -0.61328125 l 1,10,-1
 1321.25488281 -0.61328125 l 2,11,12
 1042 -1 1042 -1 948.48046875 76.556640625 c 1,13,14
 774.795720917 -1.09132555115 774.795720917 -1.09132555115 501.583007812 -1.1064453125 c 2,15,-1
 307.47265625 -1.1171875 l 1,16,-1
 -16.2509765625 -1.73046875 l 1,17,-1
 -15.515625 201.158203125 l 1,18,-1
 185.24609375 201.159179688 l 1,19,20
 215 253 215 253 245.133789062 304.487304688 c 1,21,22
 245.130669538 503.884165783 245.130669538 503.884165783 235.852539062 894.515625 c 4,23,24
 227 1344 227 1344 195.447265625 1476.20703125 c 1,25,-1
 358.151367188 1573.11523438 l 1,26,-1
 430.029296875 1342 l 2,27,28
 448.999936231 1281.00020505 448.999936231 1281.00020505 407 1251.98828125 c 2,29,-1
 357.795898438 1218 l 1,30,-1
 357.01953125 441.166015625 l 1,0,1
265.0703125 199.688476562 m 1,31,-1
 537.702148438 199.688476562 l 2,32,33
 861.680664062 199.25390625 861.680664062 199.25390625 967.916992188 228.081054688 c 0,34,35
 1138.3203125 273.09375 1138.3203125 273.09375 1116.43798828 434.584960938 c 128,-1,36
 1094.55566406 596.076171875 1094.55566406 596.076171875 899.078125 612.944824219 c 128,-1,37
 703.600585938 629.813476562 703.600585938 629.813476562 487.124023438 452.944335938 c 0,38,39
 364.642578125 351.107421875 364.642578125 351.107421875 265.0703125 199.688476562 c 1,31,-1
EndSplineSet
EndChar

StartChar: uniFECA
Encoding: 65226 65226 210
Width: 1350
VWidth: 3090
GlyphClass: 2
Flags: W
AnchorPoint: "Anchor-10" 670.268 1500.83 basechar 0
AnchorPoint: "Anchor-7" 441.243 -1009.71 basechar 0
LayerCount: 2
Fore
SplineSet
925.587890625 -721.051757812 m 0,0,1
 865.280273438 -728 865.280273438 -728 766.48046875 -728 c 0,2,3
 403.51953125 -728 403.51953125 -728 253.240234375 -586.040039062 c 128,-1,4
 102.959960938 -444.080078125 102.959960938 -444.080078125 103.01171875 -207.66796875 c 0,5,6
 104 299.51953125 104 299.51953125 690.708007812 441.629882812 c 1,7,-1
 686.770507812 448.021484375 l 2,8,9
 632.3203125 536.639648438 632.3203125 536.639648438 346.342773438 563.623046875 c 1,10,11
 342.16015625 645.83984375 342.16015625 645.83984375 346.244140625 689.120117188 c 1,12,13
 470.080078125 770.639648438 470.080078125 770.639648438 773.71875 770.205078125 c 128,-1,14
 1077.44042969 769.599609375 1077.44042969 769.599609375 1077.42382812 629.178710938 c 0,15,16
 1077.44042969 516.879882812 1077.44042969 516.879882812 840.427734375 378.98046875 c 1,17,18
 885.080078125 201.6015625 885.080078125 201.6015625 1321.56738281 201.6015625 c 2,19,-1
 1360.2578125 201.6015625 l 1,20,-1
 1360.2578125 -0.61328125 l 1,21,-1
 1330.79394531 -0.61328125 l 2,22,23
 789.154296875 -1.0400390625 789.154296875 -1.0400390625 759.4453125 296.895507812 c 2,24,-1
 758.282226562 308.568359375 l 1,25,26
 604.240234375 287.040039062 604.240234375 287.040039062 480.247070312 226.198242188 c 0,27,28
 195.51953125 86.3203125 195.51953125 86.3203125 195.51953125 -155.48046875 c 0,29,30
 195.51953125 -278.719726562 195.51953125 -278.719726562 260.138671875 -365.114257812 c 0,31,32
 408.719726562 -563.6796875 408.719726562 -563.6796875 903.400390625 -532.759765625 c 0,33,34
 1121.08007812 -518.959960938 1121.08007812 -518.959960938 1175.16015625 -512.719726562 c 128,-1,35
 1229.24023438 -506.48046875 1229.24023438 -506.48046875 1228.20019531 -509.599609375 c 128,-1,36
 1227.16015625 -512.719726562 1227.16015625 -512.719726562 1223.23046875 -516.353515625 c 0,37,38
 1029.55957031 -709.280273438 1029.55957031 -709.280273438 925.587890625 -721.051757812 c 0,0,1
EndSplineSet
EndChar

StartChar: uniFECB
Encoding: 65227 65227 211
Width: 1094
VWidth: 3090
GlyphClass: 2
Flags: W
AnchorPoint: "Anchor-10" 492.812 1346.54 basechar 0
AnchorPoint: "Anchor-7" 496.354 -264.188 basechar 0
LayerCount: 2
Fore
SplineSet
878.779296875 669.590820312 m 1,0,1
 724 748 724 748 537.80078125 732.48828125 c 0,2,3
 425 723 425 723 336.719424366 665.899937833 c 0,4,5
 249 609 249 609 228.4889771 518.122702207 c 0,6,7
 208 427 208 427 424.95703125 278.048828125 c 0,8,9
 470 247 470 247 532.55859375 249.666015625 c 0,10,11
 665.645371529 254.021119 665.645371529 254.021119 809.779296875 285.69921875 c 2,12,-1
 987.138671875 324.6796875 l 1,13,-1
 893.268554688 125.765625 l 1,14,15
 519.144816557 -0.61328125 519.144816557 -0.61328125 85.98046875 -0.61328125 c 2,16,-1
 -10.77734375 -0.61328125 l 1,17,-1
 -10.77734375 201.6015625 l 1,18,-1
 279.43359375 201.6015625 l 1,19,20
 79 399 79 399 168.923828125 615.938476562 c 0,21,22
 258 831 258 831 458.958007812 902.108398438 c 0,23,24
 541 931 541 931 645.956054688 911.506835938 c 0,25,26
 836 877 836 877 878.779296875 669.590820312 c 1,0,1
EndSplineSet
EndChar

StartChar: uniFECC
Encoding: 65228 65228 212
Width: 1088
VWidth: 3092
GlyphClass: 2
Flags: W
AnchorPoint: "Anchor-10" 560.909 1228.53 basechar 0
AnchorPoint: "Anchor-7" 504.273 -284.42 basechar 0
LayerCount: 2
Fore
SplineSet
595.731445312 227.520507812 m 1,0,1
 393.343076654 -0.61328125 393.343076654 -0.61328125 86.015625 -0.61328125 c 2,2,-1
 -9.962890625 -0.61328125 l 1,3,-1
 -9.962890625 201.6015625 l 1,4,-1
 51.962890625 201.6015625 l 2,5,6
 285 202 285 202 520.158203125 332.309570312 c 1,7,8
 425 483 425 483 186.70703125 507.743164062 c 1,9,10
 184 591 184 591 186.62890625 631.262695312 c 1,11,12
 303 708 303 708 591.435546875 708.061523438 c 128,-1,13
 880 708 880 708 879.541992188 575.044921875 c 0,14,15
 880 452 880 452 672.879882812 333.130859375 c 1,16,17
 873.608059457 201.6015625 873.608059457 201.6015625 1074.80664062 201.6015625 c 2,18,-1
 1098.51074219 201.6015625 l 5,19,-1
 1098.51074219 -0.61328125 l 5,20,-1
 1058.24121094 -0.61328125 l 2,21,22
 800 -1 800 -1 595.731445312 227.520507812 c 1,0,1
EndSplineSet
EndChar

StartChar: uniFEDA
Encoding: 65242 65242 226
Width: 2125
VWidth: 3062
GlyphClass: 2
Flags: W
AnchorPoint: "Anchor-10" 602.44 1782.54 basechar 0
AnchorPoint: "Anchor-7" 774.25 -410.312 basechar 0
LayerCount: 2
Fore
SplineSet
1175.05566406 797.703125 m 0,0,1
 1045.57421875 632.565429688 1045.57421875 632.565429688 708.4375 685.759765625 c 1,2,-1
 708.4375 754.049804688 l 1,3,4
 862.799804688 734.190429688 862.799804688 734.190429688 926.975585938 745.637695312 c 0,5,6
 1157.26171875 786.70703125 1157.26171875 786.70703125 1157.21875 904.712890625 c 0,7,8
 1157.25097656 999.666015625 1157.25097656 999.666015625 1008.62304688 1023.41601562 c 0,9,10
 842.7734375 1048.31445312 842.7734375 1048.31445312 846.153320312 1201.05175781 c 0,11,12
 848.228515625 1305.7265625 848.228515625 1305.7265625 952.612304688 1358.50488281 c 0,13,14
 1085.81542969 1426.14453125 1085.81542969 1426.14453125 1243.69628906 1440.01269531 c 1,15,-1
 1209.90820312 1364.08007812 l 1,16,17
 1029.51074219 1348.71875 1029.51074219 1348.71875 947.510742188 1277.70703125 c 0,18,19
 909.604492188 1245.44921875 909.604492188 1245.44921875 909.323242188 1197.41503906 c 0,20,21
 908.126953125 1086.82128906 908.126953125 1086.82128906 1037.28417969 1068.10644531 c 0,22,23
 1218.97949219 1041.76757812 1218.97949219 1041.76757812 1219.85742188 951.127929688 c 0,24,25
 1219.44921875 854.3515625 1219.44921875 854.3515625 1175.05566406 797.703125 c 0,0,1
1734.74804688 304.76171875 m 1,26,27
 1686 226 1686 226 1613.43847656 176.211914062 c 0,28,29
 1430 50 1430 50 1162 21 c 0,30,31
 981 2 981 2 817.959960938 -1.0400390625 c 0,32,33
 414 -9 414 -9 260.767578125 76.2705078125 c 0,34,35
 52 192 52 192 105.491210938 490.311523438 c 0,36,37
 128 614 128 614 178.583984375 696.698242188 c 0,38,39
 205 739 205 739 227.759765625 734.240234375 c 0,40,41
 251 729 251 729 227.239746094 669.240234375 c 0,42,43
 204 609 204 609 192.919921875 522.600097656 c 0,44,45
 182 436 182 436 220.59375 368.955078125 c 0,46,47
 304 224 304 224 645.912109375 207.249023438 c 0,48,49
 754 202 754 202 909 202 c 16,50,51
 1096 202 1096 202 1194.31689453 212.702636719 c 0,52,53
 1540 250 1540 250 1671 357 c 5,54,55
 1681 429 1681 429 1682 535.798828125 c 4,56,57
 1684 758 1684 758 1675.234375 1011.13671875 c 4,58,59
 1665 1314 1665 1314 1641.16796875 1468.87402344 c 5,60,-1
 1799.38769531 1573.453125 l 1,61,-1
 1799.17285156 592.057617188 l 2,62,63
 1799.00006508 203.146484375 1799.00006508 203.146484375 2090.84472656 203.146484375 c 2,64,-1
 2135.640625 203.146484375 l 1,65,-1
 2135.640625 -0.7197265625 l 1,66,-1
 2107.72070312 -0.7197265625 l 2,67,68
 1878 -1 1878 -1 1734.74804688 304.76171875 c 1,26,27
EndSplineSet
EndChar

StartChar: uniFEDB
Encoding: 65243 65243 227
Width: 970
VWidth: 3063
GlyphClass: 2
Flags: W
AnchorPoint: "Anchor-10" 262.647 1659.8 basechar 0
AnchorPoint: "Anchor-7" 402.945 -316.407 basechar 0
LayerCount: 2
Fore
SplineSet
-10.5234375 201.6015625 m 1,0,-1
 91.298828125 201.6015625 l 2,1,2
 446 202 446 202 570.959960938 331.759765625 c 1,3,4
 579 478 579 478 389 682 c 0,5,6
 196 889 196 889 66.3681640625 946.615234375 c 1,7,-1
 63.2314453125 1020.4375 l 1,8,9
 62.9995269313 1229.42629674 62.9995269313 1229.42629674 188.17578125 1280.35742188 c 2,10,-1
 909.224609375 1573.734375 l 1,11,12
 880 1465 880 1465 830.055664062 1350.86132812 c 1,13,-1
 162.5703125 1116.19042969 l 1,14,15
 674 707 674 707 675.369140625 404.795898438 c 0,16,17
 676 256 676 256 601.405273438 162.680664062 c 4,18,19
 469.31282621 -0.61328125 469.31282621 -0.61328125 91.2861328125 -0.61328125 c 2,20,-1
 -10.5234375 -0.61328125 l 1,21,-1
 -10.5234375 201.6015625 l 1,0,-1
EndSplineSet
EndChar

StartChar: uniFEDC
Encoding: 65244 65244 228
Width: 1250
VWidth: 3063
GlyphClass: 2
Flags: W
AnchorPoint: "Anchor-10" 265.245 1686.53 basechar 0
AnchorPoint: "Anchor-7" 367.583 -312.188 basechar 0
LayerCount: 2
Fore
SplineSet
1239.6328125 -0.61328125 m 2,0,1
 925.748972039 -0.61328125 925.748972039 -0.61328125 667 398 c 5,2,3
 666 258 666 258 586.885742188 156.982421875 c 0,4,5
 465 -1 465 -1 82.8974609375 -0.61328125 c 2,6,-1
 -6.0791015625 -0.61328125 l 1,7,-1
 -6.0791015625 201.6015625 l 1,8,-1
 89.60546875 201.6015625 l 2,9,10
 451 202 451 202 568.879882812 329.6796875 c 1,11,12
 589 468 589 468 383.051757812 693.541992188 c 0,13,14
 209 885 209 885 67.408203125 948.39453125 c 1,15,16
 45.9965212328 1220.04413505 45.9965212328 1220.04413505 193.580078125 1280.03125 c 2,17,-1
 915.614257812 1573.51074219 l 1,18,19
 890 1458 890 1458 836.53125 1349.79394531 c 1,20,-1
 167.9765625 1115.73535156 l 1,21,22
 486 861 486 861 670.923828125 583.560546875 c 0,23,24
 925.265314314 201.6015625 925.265314314 201.6015625 1239.28222656 201.6015625 c 2,25,-1
 1255.66113281 201.6015625 l 1,26,-1
 1255.66113281 -0.61328125 l 1,27,-1
 1239.6328125 -0.61328125 l 2,0,1
EndSplineSet
EndChar

StartChar: uniFEDE
Encoding: 65246 65246 230
Width: 1555
VWidth: 3095
GlyphClass: 2
Flags: W
AnchorPoint: "Anchor-10" 597.214 1268.5 basechar 0
AnchorPoint: "Anchor-7" 398.471 -771.454 basechar 0
LayerCount: 2
Fore
SplineSet
1286.5390625 406.979492188 m 2,0,1
 1286.5390625 202.305664062 1286.5390625 202.305664062 1536.7734375 202.305664062 c 2,2,-1
 1567.015625 202.305664062 l 1,3,-1
 1567.015625 -1.5634765625 l 1,4,-1
 1547.33203125 -1.5634765625 l 2,5,6
 1345 -2 1345 -2 1280.24023438 101.919921875 c 1,7,8
 1279 -529 1279 -529 634.561523438 -528.201171875 c 0,9,10
 349 -528 349 -528 211.994140625 -385.137695312 c 0,11,12
 75 -242 75 -242 107.458007812 2.697265625 c 24,13,14
 122 110 122 110 195.592773438 238.412109375 c 0,15,16
 239 315 239 315 267.684570312 305.616210938 c 0,17,18
 293 297 293 297 280.27734375 268.387695312 c 0,19,-1
 256.08203125 208.221679688 l 24,20,21
 176 7 176 7 242.453125 -131.298828125 c 0,22,23
 341 -334 341 -334 658.422851562 -323.331054688 c 0,24,25
 1074 -309 1074 -309 1160.2421875 -87.138671875 c 5,26,27
 1163 71 1163 71 1155.83203125 999.5390625 c 4,28,29
 1155 1121 1155 1121 1146.39648438 1240.90722656 c 4,30,31
 1138 1360 1138 1360 1121.70703125 1477.40429688 c 5,32,-1
 1286.5390625 1573.16113281 l 1,33,-1
 1286.5390625 406.979492188 l 2,0,1
EndSplineSet
EndChar

StartChar: uniFEDF
Encoding: 65247 65247 231
Width: 544
VWidth: 3062
GlyphClass: 2
Flags: W
AnchorPoint: "Anchor-10" 270.601 1703.78 basechar 0
AnchorPoint: "Anchor-7" 201.189 -362.801 basechar 0
LayerCount: 2
Fore
SplineSet
275.34765625 506.521484375 m 4,0,1
 276 1236 276 1236 235.23828125 1472.109375 c 1,2,-1
 400.474609375 1573.02929688 l 1,3,-1
 469.090820312 1345.75976562 l 2,4,5
 490.007116007 1275.97625871 490.007116007 1275.97625871 452.400390625 1251.12011719 c 2,6,-1
 400.474609375 1216.79980469 l 1,7,-1
 400.474609375 438.509765625 l 2,8,9
 400 254 400 254 348.400390625 152.879882812 c 0,10,11
 268.133834203 -1.7421875 268.133834203 -1.7421875 9.0048828125 -1.7421875 c 2,12,-1
 -10.1875 -1.7421875 l 1,13,-1
 -10.1875 202.26953125 l 1,14,-1
 13.7001953125 202.270507812 l 2,15,16
 180.887229824 202.00494439 180.887229824 202.00494439 231.640625 274.040039062 c 4,17,18
 276 336 276 336 275.34765625 506.521484375 c 4,0,1
EndSplineSet
EndChar

StartChar: uniFEE0
Encoding: 65248 65248 232
Width: 709
VWidth: 3062
GlyphClass: 2
Flags: W
AnchorPoint: "Anchor-10" 372.908 1723.91 basechar 0
AnchorPoint: "Anchor-7" 285.001 -303.878 basechar 0
LayerCount: 2
Fore
SplineSet
283.233398438 275.16015625 m 0,0,1
 325 328 325 328 323.876953125 597.182617188 c 0,2,3
 322 1165 322 1165 288.4296875 1469.50390625 c 1,4,-1
 453.728515625 1572.71875 l 1,5,-1
 453.728515625 526.330078125 l 2,6,7
 453.983524404 299.645619648 453.983524404 299.645619648 500.954101562 247.759765625 c 4,8,9
 543 202 543 202 686.7578125 201.6015625 c 2,10,-1
 719.475585938 201.6015625 l 1,11,-1
 719.475585938 -0.61328125 l 1,12,-1
 678.096679688 -0.61328125 l 2,13,14
 481 -1 481 -1 378.169921875 129.9296875 c 1,15,16
 261.346077399 -0.61328125 261.346077399 -0.61328125 46.7421875 -0.61328125 c 2,17,-1
 -10.40625 -0.61328125 l 1,18,-1
 -10.40625 201.6015625 l 1,19,-1
 6.939453125 201.6015625 l 2,20,21
 225 202 225 202 283.233398438 275.16015625 c 0,0,1
EndSplineSet
EndChar

StartChar: uniFEE2
Encoding: 65250 65250 234
Width: 1267
VWidth: 3125
GlyphClass: 2
Flags: W
AnchorPoint: "Anchor-10" 435.374 1139.29 basechar 0
AnchorPoint: "Anchor-7" 147.74 -1038.69 basechar 0
LayerCount: 2
Fore
SplineSet
102.774414062 -60.6162109375 m 24,0,1
 103 34 103 34 118.486217163 109 c 0,2,3
 166 342 166 342 360.354492188 386.380859375 c 0,4,5
 394 394 394 394 461.63671875 396.899414062 c 1,6,-1
 473.690429688 575.889648438 l 1,7,8
 1112.86002075 202.497590435 1112.86002075 202.497590435 1260.72753906 201.7578125 c 2,9,-1
 1277.12402344 201.67578125 l 1,10,-1
 1277.12402344 -0.61328125 l 1,11,-1
 1257.55175781 -0.61328125 l 2,12,13
 1122 -1 1122 -1 1017.97851562 103.541015625 c 1,14,15
 1021 -122 1021 -122 904.05859375 -222.73046875 c 0,16,17
 853 -267 853 -267 785.671501864 -270.2754516 c 0,18,19
 716 -273 716 -273 658.966796875 -249.51953125 c 0,20,21
 436 -158 436 -158 464.145507812 240.719726562 c 1,22,-1
 458.568359375 240.719726562 l 2,23,24
 307 241 307 241 227 119 c 1,25,-1
 237 -514 l 2,26,27
 238 -588 238 -588 141.358398438 -707 c 0,28,29
 127.481165333 -724.079879309 127.481165333 -724.079879309 127 -724.233398438 c 0,30,31
 113.794544713 -728.059528324 113.794544713 -728.059528324 113.004882812 -689.747070312 c 2,32,-1
 103.515625 -229.3515625 l 2,33,34
 102 -156 102 -156 102.774414062 -60.6162109375 c 24,0,1
761.701171875 -88.3828125 m 0,35,36
 902.9296875 -97.7705078125 902.9296875 -97.7705078125 923.958984375 5.892578125 c 0,37,38
 951.7421875 141.864257812 951.7421875 141.864257812 778.08984375 234.306640625 c 0,39,40
 759.762259394 244.39484403 759.762259394 244.39484403 551.623046875 342.857421875 c 1,41,42
 542.151986685 272.03036306 542.151986685 272.03036306 551.885563655 166.040572155 c 128,-1,43
 561.619140625 60.05078125 561.619140625 60.05078125 614.187011719 -10.5844726562 c 128,-1,44
 666.754882812 -81.2197265625 666.754882812 -81.2197265625 761.701171875 -88.3828125 c 0,35,36
473.690429688 575.889648438 m 2,45,46
 473.356445312 576.072265625 473.356445312 576.072265625 473.0234375 576.255859375 c 2,47,-1
 474.237304688 584.009765625 l 1,48,-1
 473.690429688 575.889648438 l 2,45,46
EndSplineSet
EndChar

StartChar: uniFEE3
Encoding: 65251 65251 235
Width: 995
VWidth: 3098
GlyphClass: 2
Flags: W
AnchorPoint: "Anchor-10" 514.811 1066.4 basechar 0
AnchorPoint: "Anchor-7" 491.733 -308.291 basechar 0
LayerCount: 2
Fore
SplineSet
252.950195312 142.879882812 m 1,0,1
 137.278236076 -1.65234375 137.278236076 -1.65234375 37.974609375 -1.65234375 c 2,2,-1
 -10.0419921875 -1.65234375 l 1,3,-1
 -10.0419921875 202.309570312 l 1,4,-1
 46.779296875 202.309570312 l 2,5,6
 142 202 142 202 226.838867188 329.194335938 c 0,7,8
 435 645 435 645 560.848632812 674.530273438 c 0,9,10
 598 683 598 683 647.369140625 669.147460938 c 0,11,12
 843 612 843 612 884.858398438 322.55859375 c 0,13,14
 890 287 890 287 889.719726562 226.975585938 c 0,15,16
 889 83 889 83 809.120117188 20.2802734375 c 0,17,18
 729 -43 729 -43 653.842773438 -42.6416015625 c 0,19,20
 509 -42 509 -42 252.950195312 142.879882812 c 1,0,1
364.895507812 298.913085938 m 1,21,22
 552.240234375 132.080078125 552.240234375 132.080078125 695.94140625 130.3828125 c 0,23,24
 735.280273438 130 735.280273438 130 759.200195312 153.919921875 c 0,25,26
 783.120117188 177.83984375 783.120117188 177.83984375 783.120117188 224.120117188 c 0,27,28
 783.120117188 270.400390625 783.120117188 270.400390625 753.91015625 337.387695312 c 128,-1,29
 724.879882812 404.559570312 724.879882812 404.559570312 676.520019531 446.6796875 c 0,30,31
 628.16015625 488.799804688 628.16015625 488.799804688 576.16015625 488.799804688 c 0,32,33
 524.16015625 488.799804688 524.16015625 488.799804688 465.919921875 431.600097656 c 0,34,35
 407.6796875 374.400390625 407.6796875 374.400390625 364.895507812 298.913085938 c 1,21,22
EndSplineSet
EndChar

StartChar: uniFEE4
Encoding: 65252 65252 236
Width: 1110
VWidth: 3098
GlyphClass: 2
Flags: W
AnchorPoint: "Anchor-10" 573.688 1058.17 basechar 0
AnchorPoint: "Anchor-7" 560.593 -300.316 basechar 0
LayerCount: 2
Fore
SplineSet
364.9765625 256.418945312 m 1,0,1
 570.959960938 71.759765625 570.959960938 71.759765625 683.260742188 71.6591796875 c 0,2,3
 722.799804688 71.759765625 722.799804688 71.759765625 754.4453125 103.48828125 c 128,-1,4
 786.240234375 135.200195312 786.240234375 135.200195312 786.240234375 190.840332031 c 0,5,6
 786.240234375 304.614269712 786.240234375 304.614269712 676.791992188 404.818359375 c 0,7,8
 627.120117188 449.280273438 627.120117188 449.280273438 573.091796875 449.295898438 c 0,9,10
 478.400390625 449.280273438 478.400390625 449.280273438 364.9765625 256.418945312 c 1,0,1
252.615234375 100.795898438 m 1,11,12
 178.252349101 -1.65234375 178.252349101 -1.65234375 40.4736328125 -1.65234375 c 2,13,-1
 -10.0419921875 -1.65234375 l 1,14,-1
 -10.0419921875 202.309570312 l 1,15,-1
 57.673828125 202.309570312 l 2,16,17
 170 202 170 202 226.862304688 286.747070312 c 0,18,19
 420 579 420 579 551.771972656 612.076171875 c 0,20,21
 683 645 683 645 766.358398438 524.638671875 c 0,22,23
 836 425 836 425 895.551757812 282.627929688 c 0,24,25
 929.136600456 202.67480469 929.136600456 202.67480469 1076.27539062 202.674804688 c 2,26,-1
 1120.44726562 202.674804688 l 1,27,-1
 1120.44726562 -1.1904296875 l 1,28,-1
 1085.44042969 -1.1904296875 l 2,29,30
 921 -1 921 -1 852.890625 70.4912109375 c 1,31,32
 794 -22 794 -22 767.784179688 -46.7099609375 c 0,33,34
 712 -102 712 -102 641.198242188 -101.365234375 c 0,35,36
 524 -101 524 -101 252.615234375 100.795898438 c 1,11,12
EndSplineSet
EndChar

StartChar: uniFEEA
Encoding: 65258 65258 242
Width: 1052
VWidth: 3085
GlyphClass: 2
Flags: W
AnchorPoint: "Anchor-10" 552.845 1367.5 basechar 0
AnchorPoint: "Anchor-7" 390.525 -197.742 basechar 0
LayerCount: 2
Fore
SplineSet
205.83984375 459.360351562 m 1,0,1
 262 339.759765625 262 339.759765625 619.759765625 349.120117188 c 0,2,3
 661.360351562 350.16015625 661.360351562 350.16015625 702.244140625 350.98828125 c 1,4,-1
 638.159179688 646.55859375 l 1,5,6
 374.3203125 609.120117188 374.3203125 609.120117188 205.83984375 459.360351562 c 1,0,1
1042.38964844 -0.61328125 m 2,7,8
 800.883565001 -0.61328125 800.883565001 -0.61328125 717.599609375 276 c 1,9,10
 552.16015625 166.080078125 l 1,11,12
 490 162 490 162 421.120117188 170.240234375 c 0,13,14
 121 204 121 204 104.959960938 304.400390625 c 0,15,16
 100 336 100 336 138.759765625 499.400390625 c 0,17,18
 178 663 178 663 613.795898438 791.483398438 c 1,19,-1
 592.34375 902.51953125 l 1,20,-1
 700.879882812 1036.55957031 l 1,21,-1
 806.044921875 473.029296875 l 2,22,23
 857.074908559 201.6015625 857.074908559 201.6015625 1042.26074219 201.6015625 c 2,24,-1
 1063.63378906 201.6015625 l 1,25,-1
 1063.63378906 -0.61328125 l 1,26,-1
 1042.38964844 -0.61328125 l 2,7,8
EndSplineSet
EndChar

StartChar: uniFEEB
Encoding: 65259 65259 243
Width: 1220
VWidth: 3090
GlyphClass: 2
Flags: W
AnchorPoint: "Anchor-10" 483.531 1480.69 basechar 0
AnchorPoint: "Anchor-7" 482.718 -274.012 basechar 0
LayerCount: 2
Fore
SplineSet
601.120117188 264.16015625 m 1,0,1
 782 177 782 177 926.639648438 157.040039062 c 1,2,3
 992 243 992 243 982.080078125 363.48046875 c 128,-1,4
 972 484 972 484 758.9609375 619.345703125 c 1,5,6
 783 404 783 404 601.120117188 264.16015625 c 1,0,1
439.482421875 144.220703125 m 1,7,8
 155.550106576 -1.23046875 155.550106576 -1.23046875 20.142578125 -1.23046875 c 2,9,-1
 -1.248046875 -1.23046875 l 1,10,-1
 -1.248046875 202.779296875 l 1,11,-1
 27.005859375 202.779296875 l 2,12,13
 202 203 202 203 311.973632812 230.009765625 c 1,14,15
 214 269 214 269 180.799804688 364.51953125 c 0,16,17
 152 446 152 446 185.6796875 548.755859375 c 0,18,19
 246 728 246 728 463.834960938 829.336914062 c 1,20,-1
 331.991210938 902.719726562 l 1,21,-1
 420.340820312 1066.87988281 l 1,22,-1
 751.55859375 858.216796875 l 2,23,24
 1117 628 1117 628 1114.65332031 339.22265625 c 0,25,26
 1114 272 1114 272 1083.02832031 210.747070312 c 0,27,28
 996 40 996 40 911.223632812 33.30859375 c 0,29,30
 684 16 684 16 439.482421875 144.220703125 c 1,7,8
482.4296875 321.512695312 m 1,31,32
 591 392 591 392 642.298828125 531.49609375 c 0,33,34
 694 672 694 672 599.259765625 708.40234375 c 0,35,36
 476 756 476 756 364.439453125 627.552734375 c 0,37,38
 279 528 279 528 292.940429688 462.516601562 c 4,39,40
 302 419 302 419 362.409179688 380.8203125 c 4,41,42
 435 335 435 335 482.4296875 321.512695312 c 1,31,32
EndSplineSet
EndChar

StartChar: uniFEEC
Encoding: 65260 65260 244
Width: 1042
VWidth: 3113
GlyphClass: 2
Flags: W
AnchorPoint: "Anchor-7" 404.255 -861.09 basechar 0
AnchorPoint: "Anchor-10" 363.974 1474.51 basechar 0
LayerCount: 2
Fore
SplineSet
313.244140625 201.932617188 m 1,0,1
 661.440429688 206.959960938 661.440429688 206.959960938 656.721679688 373.0390625 c 0,2,3
 653.120117188 486.719726562 653.120117188 486.719726562 525.200195312 641.6796875 c 0,4,5
 477.360351562 699.919921875 477.360351562 699.919921875 466.959960938 699.919921875 c 1,6,7
 336.959960938 471.120117188 336.959960938 471.120117188 313.244140625 201.932617188 c 1,0,1
222.067382812 197.6640625 m 1,8,9
 285 703 285 703 496.080078125 907.919921875 c 1,10,11
 579 862 579 862 648.959960938 754 c 0,12,13
 756 591 756 591 749.83984375 436.799804688 c 0,14,15
 742 239 742 239 608.400390625 121.6796875 c 0,16,17
 527 50 527 50 337.020507812 -2.1025390625 c 1,18,19
 384 -248 384 -248 577.321289062 -424.813476562 c 1,20,21
 604.747682092 2.07272334826 604.747682092 2.07272334826 903.232421875 162.814453125 c 0,22,23
 970.373371587 199.202353529 970.373371587 199.202353529 1038 201 c 6,24,25
 1052.29101562 201.379882812 l 1,26,-1
 1052.29101562 -1.10546875 l 1,27,28
 939 -7 939 -7 861.604492188 -41.419921875 c 0,29,30
 598 -157 598 -157 749.841796875 -569.877929688 c 1,31,-1
 622.372070312 -680.736328125 l 1,32,33
 288 -434 288 -434 238.64453125 -1.78125 c 1,34,-1
 -10.2236328125 -0.6591796875 l 1,35,-1
 -10.2236328125 201.430664062 l 1,36,-1
 222.067382812 197.6640625 l 1,8,9
EndSplineSet
EndChar

StartChar: uniFEEE
Encoding: 65262 65262 246
Width: 909
VWidth: 3118
GlyphClass: 2
Flags: W
AnchorPoint: "Anchor-10" 478.079 1056.73 basechar 0
AnchorPoint: "Anchor-7" 376.812 -765.198 basechar 0
LayerCount: 2
Fore
SplineSet
691.665039062 -1.2451171875 m 1,0,-1
 534.303710938 0.8369140625 l 17,1,2
 292 0 292 0 228.712402344 81.548828125 c 0,3,4
 165 163 165 163 196.472167969 345.708984375 c 0,5,6
 228 528 228 528 345.282226562 638.78125 c 0,7,8
 420 709 420 709 509.217773438 709.669921875 c 0,9,10
 624 710 624 710 700.959960938 578.760253906 c 0,11,12
 778 447 778 447 794.77734375 201.6015625 c 1,13,-1
 920.172851562 201.6015625 l 1,14,-1
 920.172851562 -0.61328125 l 1,15,-1
 792.864257812 -0.61328125 l 1,16,17
 730 -315 730 -315 487.221679688 -504.345703125 c 0,18,19
 439 -542 439 -542 374.403320312 -543.017578125 c 0,20,21
 187 -546 187 -546 39.9296875 -484.15234375 c 0,22,23
 23 -477 23 -477 81.787109375 -455.052734375 c 0,24,25
 604 -255 604 -255 691.665039062 -1.2451171875 c 1,0,-1
679.240234375 305.09375 m 0,26,27
 631.280273438 507.51953125 631.280273438 507.51953125 485.973632812 507.098632812 c 0,28,29
 356.719726562 507.51953125 356.719726562 507.51953125 307.83984375 375.440429688 c 0,30,31
 290.16015625 327.599609375 290.16015625 327.599609375 291.265625 255.814453125 c 1,32,33
 323.440429688 193.440429688 323.440429688 193.440429688 688.717773438 203.2890625 c 1,34,35
 689.51953125 257.919921875 689.51953125 257.919921875 679.240234375 305.09375 c 0,26,27
EndSplineSet
EndChar

StartChar: uniFEF0
Encoding: 65264 65264 248
Width: 1534
VWidth: 3095
GlyphClass: 2
Flags: W
AnchorPoint: "Anchor-10" 695.647 662.047 basechar 0
AnchorPoint: "Anchor-7" 204.823 -842.658 basechar 0
LayerCount: 2
Fore
SplineSet
1411.71972656 -275.599609375 m 0,0,1
 1303 -664 1303 -664 683.92578125 -662.583007812 c 0,2,3
 344 -662 344 -662 209.48046875 -522.599609375 c 0,4,5
 76 -384 76 -384 105.86328125 -166.004882812 c 0,6,7
 123 -41 123 -41 210.31640625 108.025390625 c 4,8,9
 255 185 255 185 281.4375 175.59375 c 132,-1,10
 308 166 308 166 295 138 c 5,11,-1
 270.8046875 77.833984375 l 30,12,13
 173 -166 173 -166 240.857421875 -300 c 0,14,15
 323 -461 323 -461 707.787109375 -459.79296875 c 0,16,17
 1217 -459 1217 -459 1311.87988281 -269.360351562 c 0,18,19
 1329 -235 1329 -235 1265.08007812 -234 c 0,20,21
 1008 -231 1008 -231 945.799804688 -197.599609375 c 0,22,23
 835 -138 835 -138 919.518554688 26.3037109375 c 0,24,25
 967 119 967 119 1050.06640625 161.845703125 c 0,26,27
 1125.62511505 201.801757812 1125.62511505 201.801757812 1429.75097656 201.801757812 c 2,28,-1
 1544.07910156 201.801757812 l 1,29,-1
 1544.07910156 -5.8134765625 l 1,30,-1
 1489.99316406 -5.8134765625 l 2,31,32
 1358 -6 1358 -6 1214.82714844 25.552734375 c 0,33,34
 1018 68 1018 68 993.293945312 -40.15625 c 0,35,36
 988 -63 988 -63 1015.49609375 -66.666015625 c 0,37,38
 1111 -79 1111 -79 1207.87988281 -86.3203125 c 0,39,40
 1459 -106 1459 -106 1411.71972656 -275.599609375 c 0,0,1
EndSplineSet
EndChar

StartChar: uniFEFB
Encoding: 65275 65275 259
Width: 1388
VWidth: 3062
GlyphClass: 3
Flags: W
AnchorPoint: "Anchor-9" 1105.6 1673.2 baselig 0
AnchorPoint: "Anchor-6" 1108.3 -313.706 baselig 0
AnchorPoint: "Anchor-6" 430.802 -318.681 baselig 1
AnchorPoint: "Anchor-9" 134.577 1579.02 baselig 1
LayerCount: 2
Fore
SplineSet
1244.67089844 1216.11230469 m 1,0,-1
 1244.67089844 930.333984375 l 2,1,2
 1245 461 1245 461 1015.93359375 210.08203125 c 0,3,4
 813.643736144 -11.3900467254 813.643736144 -11.3900467254 502.802734375 -2.369140625 c 2,5,-1
 476.858398438 -1.6162109375 l 1,6,7
 338 52 338 52 209.376953125 199.98828125 c 1,8,9
 527 155 527 155 714.141601562 207.75390625 c 5,10,11
 540 684 540 684 307.3359375 964.080078125 c 1,12,-1
 261.040039062 944.123046875 l 2,13,14
 219.42456113 926.183024122 219.42456113 926.183024122 192.149414062 985.919921875 c 2,15,-1
 103.41796875 1180.25585938 l 1,16,-1
 167.16796875 1380.9453125 l 1,17,18
 626 866 626 866 788.0234375 231.7734375 c 1,19,20
 939 290 939 290 1009.28027344 409.375976562 c 0,21,22
 1077 524 1077 524 1096.55957031 682.759765625 c 0,23,24
 1116 841 1116 841 1110.59960938 1095.12011719 c 0,25,26
 1105 1349 1105 1349 1079.12011719 1479.69042969 c 1,27,-1
 1244.67089844 1572.34179688 l 1,28,-1
 1313.28710938 1345.07226562 l 2,29,30
 1333.96183997 1275.12909641 1333.96183997 1275.12909641 1296.59667969 1250.43261719 c 2,31,-1
 1244.67089844 1216.11230469 l 1,0,-1
EndSplineSet
LCarets2: 1 0
Ligature2: "'rlig' Required Ligatures in Arabic lookup 16 subtable" uniFEDF uniFE8E
EndChar

StartChar: uniFEFC
Encoding: 65276 65276 260
Width: 1557
VWidth: 3062
GlyphClass: 3
Flags: W
AnchorPoint: "Anchor-9" 1172.89 1672.4 baselig 0
AnchorPoint: "Anchor-6" 1123.35 -320.954 baselig 0
AnchorPoint: "Anchor-6" 529.61 -331.159 baselig 1
AnchorPoint: "Anchor-9" 110.122 1527.35 baselig 1
LayerCount: 2
Fore
SplineSet
788.0234375 231.7734375 m 1,0,-1
 788.0390625 230.637695312 l 1,1,2
 917 282 917 282 994.362304688 425.361328125 c 0,3,4
 1072 569 1072 569 1092.91992188 743.599609375 c 128,-1,5
 1114 918 1114 918 1110.08007812 1130.48046875 c 128,-1,6
 1106 1343 1106 1343 1079.11425781 1479.6875 c 1,7,-1
 1244.67089844 1573.34179688 l 1,8,-1
 1244.67089844 802.860351562 l 2,9,10
 1245.00027225 201.502929688 1245.00027225 201.502929688 1529.5234375 201.502929688 c 2,11,-1
 1564.45214844 201.502929688 l 1,12,-1
 1564.45214844 -1.171875 l 1,13,-1
 1529.24804688 -0.4921875 l 2,14,15
 1221.51345394 4.99085157125 1221.51345394 4.99085157125 1160.98925781 518.913085938 c 2,16,-1
 1158.10839844 543.375 l 1,17,-1
 1150.85546875 519.836914062 l 2,18,19
 1095 338 1095 338 978.15234375 208.51171875 c 0,20,21
 780.658884807 -9.37634121114 780.658884807 -9.37634121114 502.802734375 -1.2978515625 c 2,22,-1
 476.838867188 -0.54296875 l 1,23,24
 335 53 335 53 208.118164062 199.115234375 c 1,25,26
 569 153 569 153 713.998046875 207.083984375 c 5,27,-1
 714.141601562 207.75390625 l 5,28,29
 540 684 540 684 307.3359375 964.080078125 c 1,30,-1
 261.040039062 944.123046875 l 2,31,32
 219.42456113 926.183024122 219.42456113 926.183024122 192.149414062 985.919921875 c 2,33,-1
 103.41796875 1180.25585938 l 1,34,-1
 167.16796875 1380.9453125 l 1,35,36
 626 866 626 866 788.0234375 231.7734375 c 1,0,-1
EndSplineSet
LCarets2: 1 0
Ligature2: "'rlig' Required Ligatures in Arabic lookup 16 subtable" uniFEE0 uniFE8E
EndChar

StartChar: arabic_dot
Encoding: 65536 -1 261
Width: 194
VWidth: 2680
GlyphClass: 2
Flags: W
LayerCount: 2
Fore
SplineSet
113.34375 222.177734375 m 6,0,-1
 216.561523438 118.959960938 l 6,1,2
 226.025658363 108.972923988 226.025658363 108.972923988 217.217773765 100.165039389 c 6,3,-1
 109.110351563 -7.94238281258 l 6,4,5
 97.9999999999 -19 97.9999999999 -19 86.4775390625 -8.0556640625 c 6,6,-1
 -18 96 l 6,7,8
 -31.0262552411 108.973655884 -31.0262552411 108.973655884 -17.15234375 122.89453125 c 6,9,-1
 83.244140625 223.288085938 l 6,10,11
 97.9785763901 238.022091734 97.9785763901 238.022091734 113.34375 222.177734375 c 6,0,-1
EndSplineSet
EndChar

StartChar: arabic_2dots
Encoding: 65537 -1 262
Width: 535
VWidth: 2680
GlyphClass: 2
Flags: W
LayerCount: 2
Fore
SplineSet
407.781058725 215.669357838 m 2,0,-1
 510.978426945 112.471989619 l 2,1,2
 517.048185281 106.066518717 517.048185281 106.066518717 511.682239532 100.700572968 c 2,3,-1
 403.583238158 -7.39844841284 l 2,4,5
 395.918590572 -15.0267163757 395.918590572 -15.0267163757 387.963923913 -7.47116512196 c 2,6,-1
 283.528355719 96.5426975487 l 2,7,8
 274.045892002 105.986773601 274.045892002 105.986773601 284.383138569 116.358945758 c 2,9,-1
 384.779674531 216.752552032 l 2,10,11
 395.92378045 227.896657951 395.92378045 227.896657951 407.781058725 215.669357838 c 2,0,-1
146.781058725 215.669357838 m 2,12,-1
 249.978426945 112.471989619 l 2,13,14
 256.048185281 106.066518717 256.048185281 106.066518717 250.682239532 100.700572968 c 2,15,-1
 142.583238158 -7.39844841284 l 2,16,17
 134.918590572 -15.0267163757 134.918590572 -15.0267163757 126.963923913 -7.47116512196 c 2,18,-1
 22.5283557189 96.5426975487 l 2,19,20
 13.0458920019 105.986773602 13.0458920019 105.986773602 23.3831385693 116.358945758 c 2,21,-1
 123.779674531 216.752552032 l 2,22,23
 134.923780452 227.89665795 134.923780452 227.89665795 146.781058725 215.669357838 c 2,12,-1
EndSplineSet
EndChar

StartChar: arabic_3dots
Encoding: 65538 -1 263
Width: 528
VWidth: 2680
GlyphClass: 2
Flags: W
LayerCount: 2
Fore
SplineSet
271.877929688 415.166992188 m 2,0,-1
 375.0546875 311.990234375 l 2,1,2
 377.73046875 309.166015625 377.73046875 309.166015625 375.806640625 307.2421875 c 2,3,-1
 267.715820312 199.151367188 l 2,4,5
 263.497070312 194.952148438 263.497070312 194.952148438 259.110351562 199.119140625 c 2,6,-1
 154.715820312 303.091796875 l 2,7,8
 148.77734375 309.005859375 148.77734375 309.005859375 155.578125 315.829101562 c 2,9,-1
 256.005859375 416.25390625 l 6,10,11
 262.737304688 423.900390625 262.737304688 423.900390625 271.877929688 415.166992188 c 2,0,-1
402.14024245 194.266450051 m 2,12,-1
 502 94 l 2,13,14
 507.987806919 87.9878069193 507.987806919 87.9878069193 502 82 c 2,15,-1
 397.977999753 -21.7490452631 l 2,16,17
 393.662014134 -26.0537056841 393.662014134 -26.0537056841 389.372183764 -21.7811974314 c 2,18,-1
 284.978586438 82.1908638476 l 2,19,20
 278.955096629 88.0436306809 278.955096629 88.0436306809 285.840495888 94.9288290164 c 2,21,-1
 386.237083437 195.322486876 l 2,22,23
 394 203 394 203 402.14024245 194.266450051 c 2,12,-1
141.14024245 194.266450051 m 2,24,-1
 244.317205452 91.0894870497 l 2,25,26
 247.208764009 88.1979284927 247.208764009 88.1979284927 243 84 c 2,27,-1
 136.977999753 -21.7490452631 l 2,28,29
 132.85165538 -25.8647663104 132.85165538 -25.8647663104 128.372183764 -21.7811974314 c 2,30,-1
 23.9785864377 82.1908638474 l 2,31,32
 17.9551060981 88.04362148 17.9551060981 88.04362148 24.8404958886 94.9288290164 c 2,33,-1
 125.26792424 195.353599085 l 2,34,35
 132.701693566 202.704998935 132.701693566 202.704998935 141.14024245 194.266450051 c 2,24,-1
EndSplineSet
EndChar

StartChar: arabic_3dots_a
Encoding: 65539 -1 264
Width: 527
VWidth: 2680
GlyphClass: 2
Flags: W
LayerCount: 2
Fore
SplineSet
272.216796875 -213.385742188 m 2,0,1
 263.076171875 -222.119140625 263.076171875 -222.119140625 256.344726562 -214.47265625 c 2,2,-1
 155.916992188 -114.047851562 l 2,3,4
 149.116210938 -107.224609375 149.116210938 -107.224609375 155.0546875 -101.310546875 c 2,5,-1
 259.44921875 2.662109375 l 2,6,7
 263.8359375 6.8291015625 263.8359375 6.8291015625 268.0546875 2.6298828125 c 2,8,-1
 376.145507812 -105.4609375 l 2,9,10
 378.069335938 -107.384765625 378.069335938 -107.384765625 375.393554688 -110.208984375 c 2,11,-1
 272.216796875 -213.385742188 l 2,0,1
402.479492188 7.5146484375 m 2,12,13
 394.338867188 -1.21875 394.338867188 -1.21875 386.576171875 6.458984375 c 2,14,-1
 286.1796875 106.852539062 l 2,15,16
 279.293945312 113.737304688 279.293945312 113.737304688 285.317382812 119.590820312 c 2,17,-1
 389.7109375 223.5625 l 2,18,19
 394.000976562 227.834960938 394.000976562 227.834960938 398.31640625 223.530273438 c 2,20,-1
 502.338867188 119.78125 l 2,21,22
 508.327148438 113.793945312 508.327148438 113.793945312 502.338867188 107.78125 c 2,23,-1
 402.479492188 7.5146484375 l 2,12,13
141.479492188 7.5146484375 m 2,24,25
 132.338867188 -1.21875 132.338867188 -1.21875 125.606445312 6.427734375 c 2,26,-1
 25.1796875 106.852539062 l 2,27,28
 18.37890625 113.67578125 18.37890625 113.67578125 24.3173828125 119.590820312 c 2,29,-1
 128.7109375 223.5625 l 2,30,31
 133.09765625 227.729492188 133.09765625 227.729492188 137.31640625 223.530273438 c 2,32,-1
 245.407226562 115.439453125 l 2,33,34
 247.33203125 113.515625 247.33203125 113.515625 244.65625 110.69140625 c 2,35,-1
 141.479492188 7.5146484375 l 2,24,25
EndSplineSet
EndChar

StartChar: uni066E.fina
Encoding: 65540 -1 265
Width: 2110
VWidth: 3095
GlyphClass: 2
Flags: W
AnchorPoint: "Anchor-10" 879.449 1484.29 basechar 0
AnchorPoint: "Anchor-7" 822.273 -308.343 basechar 0
LayerCount: 2
Fore
SplineSet
918.25 202.3515625 m 16,0,1
 1256 203 1256 203 1519.1953125 323.575195312 c 0,2,3
 1648 383 1648 383 1771.03613281 551.405273438 c 0,4,5
 1815.96697803 613.072129193 1815.96697803 613.072129193 1835 611.913287628 c 4,6,7
 1851 611 1851 611 1852 593 c 4,8,9
 1852 586 1852 586 1835.99707031 516.340820312 c 0,10,11
 1765 202 1765 202 2084.68945312 201.6015625 c 2,12,-1
 2121.20703125 201.6015625 l 1,13,-1
 2121.20703125 -0.6708984375 l 1,14,-1
 2091.11328125 -0.8271484375 l 2,15,16
 1756.99485628 -3.00003345134 1756.99485628 -3.00003345134 1740.86230469 299.423828125 c 2,17,-1
 1739.58105469 323.442382812 l 1,18,19
 1588 168 1588 168 1379.16015625 86.83984375 c 0,20,21
 1170 5 1170 5 790.5 -1 c 128,-1,22
 411 -7 411 -7 260.767578125 76.2705078125 c 0,23,24
 52 191 52 191 105.491210938 490.311523438 c 0,25,26
 128 614 128 614 178.583984375 696.698242188 c 0,27,28
 205 739 205 739 227.759765625 734.240234375 c 0,29,30
 251 729 251 729 227.239746094 669.240234375 c 0,31,32
 204 609 204 609 192.919921875 522.600097656 c 0,33,34
 182 436 182 436 220.59375 368.955078125 c 0,35,36
 304 222 304 222 645.912109375 207.249023438 c 0,37,38
 743 203 743 203 918.25 202.3515625 c 16,0,1
EndSplineSet
EndChar

StartChar: uni06A1.fina
Encoding: 65543 -1 268
Width: 1980
VWidth: 3091
GlyphClass: 2
Flags: W
AnchorPoint: "Anchor-10" 636.684 1633.14 basechar 0
AnchorPoint: "Anchor-7" 791.435 -378.604 basechar 0
LayerCount: 2
Fore
SplineSet
1701.96191406 231.88671875 m 1,0,1
 1852.13030578 200.973175359 1852.13030578 200.973175359 1952.41796875 201.405273438 c 6,2,-1
 1990.72265625 201.5703125 l 5,3,-1
 1990.72265625 -0.609375 l 5,4,-1
 1943.34863281 -0.61328125 l 6,5,6
 1712 -1 1712 -1 1532.70898438 120.783203125 c 1,7,8
 1323 -0 1323 -0 822.982421875 -0.1083984375 c 1,9,10
 411 -7 411 -7 260.767578125 76.2705078125 c 0,11,12
 52 192 52 192 105.491210938 490.311523438 c 0,13,14
 128 614 128 614 178.583984375 696.698242188 c 0,15,16
 205 739 205 739 227.759765625 734.240234375 c 0,17,18
 251 729 251 729 227.239746094 669.240234375 c 0,19,20
 204 609 204 609 192.919921875 522.600097656 c 0,21,22
 182 436 182 436 220.59375 368.955078125 c 0,23,24
 305 222 305 222 645.912109375 207.249023438 c 0,25,26
 743 203 743 203 917.552734375 201.404296875 c 17,27,28
 1178 202 1178 202 1371.08886719 236.586914062 c 1,29,30
 1236 366 1236 366 1236.33105469 493.669921875 c 0,31,32
 1236 577 1236 577 1316.40039062 703.83984375 c 0,33,34
 1420 866 1420 866 1551.99804688 866.66796875 c 0,35,36
 1640 867 1640 867 1738.97363281 761.884765625 c 0,37,38
 1838 657 1838 657 1838.54882812 504.854492188 c 0,39,40
 1839 363 1839 363 1701.96191406 231.88671875 c 1,0,1
1400.26757812 601.693359375 m 0,41,42
 1345 546 1345 546 1344.64648438 505.7265625 c 0,43,44
 1345 442 1345 442 1410.7734375 376.180664062 c 0,45,46
 1492 295 1492 295 1538.5 295 c 128,-1,47
 1585 295 1585 295 1668.75 372.55078125 c 0,48,49
 1731 431 1731 431 1730.88964844 494.55078125 c 0,50,51
 1731 542 1731 542 1664.74707031 611.674804688 c 0,52,53
 1592 689 1592 689 1540.85253906 689.3984375 c 0,54,55
 1487 689 1487 689 1400.26757812 601.693359375 c 0,41,42
1538.59960938 295.080078125 m 1024,56,57
EndSplineSet
EndChar

StartChar: uni06A1.init
Encoding: 65544 -1 269
Width: 841
VWidth: 3118
GlyphClass: 2
Flags: W
AnchorPoint: "Anchor-10" 402.652 1684.01 basechar 0
AnchorPoint: "Anchor-7" 391.006 -305.318 basechar 0
LayerCount: 2
Fore
SplineSet
225.288085938 672.198242188 m 0,0,1
 208 598 208 598 317.671875 565.72265625 c 0,2,3
 451.360351562 525.200195312 451.360351562 525.200195312 627.361328125 580.232421875 c 5,4,5
 624 628.16015625 624 628.16015625 588.595703125 712.022460938 c 4,6,7
 532.48046875 846.559570312 532.48046875 846.559570312 412.375976562 843.301757812 c 0,8,9
 264.16015625 840.3203125 264.16015625 840.3203125 225.288085938 672.198242188 c 0,0,1
717.885742188 358.5625 m 4,10,11
 641.770507812 -0.61328125 641.770507812 -0.61328125 189.4375 -0.61328125 c 2,12,-1
 -5.716796875 -0.61328125 l 1,13,-1
 -5.716796875 201.6015625 l 1,14,-1
 169.216796875 201.6015625 l 2,15,16
 611.51953125 201.759765625 611.51953125 201.759765625 626.233398438 406.1953125 c 5,17,18
 488.799804688 361.919921875 488.799804688 361.919921875 364 377.520019531 c 128,-1,19
 239.200195312 393.120117188 239.200195312 393.120117188 180.439941406 477.359863281 c 128,-1,20
 121.6796875 561.599609375 121.6796875 561.599609375 134.28125 662.497070312 c 0,21,22
 161.200195312 867.360351562 161.200195312 867.360351562 265.200195312 968.240234375 c 0,23,24
 346.3203125 1047.28027344 346.3203125 1047.28027344 430.040039062 1044.16015625 c 128,-1,25
 513.759765625 1041.04003906 513.759765625 1041.04003906 577.719726562 978.640136719 c 132,-1,26
 641.6796875 916.240234375 641.6796875 916.240234375 680.159667969 812.240234375 c 4,27,28
 764.128879714 585.296303657 764.128879714 585.296303657 717.885742188 358.5625 c 4,10,11
EndSplineSet
EndChar

StartChar: uni06A1.medi
Encoding: 65545 -1 270
Width: 944
VWidth: 3091
GlyphClass: 2
Flags: W
AnchorPoint: "Anchor-10" 626.774 1402.67 basechar 0
AnchorPoint: "Anchor-7" 576.774 -299.579 basechar 0
LayerCount: 2
Fore
SplineSet
494.48046875 110.354492188 m 1,0,1
 375.49666958 -0.537109375 375.49666958 -0.537109375 31.59375 -0.537109375 c 2,2,-1
 -10.1513671875 -0.537109375 l 1,3,-1
 -10.1513671875 201.404296875 l 1,4,-1
 22.7294921875 201.405273438 l 2,5,6
 297 201 297 201 322.088867188 224.586914062 c 1,7,8
 187 354 187 354 187.331054688 481.669921875 c 0,9,10
 187 565 187 565 267.400390625 691.83984375 c 0,11,12
 371 854 371 854 502.998046875 854.66796875 c 0,13,14
 591 855 591 855 689.973632812 749.884765625 c 0,15,16
 789 645 789 645 789.548828125 492.854492188 c 0,17,18
 790 351 790 351 652.961914062 219.88671875 c 1,19,20
 737.518110318 197.129693343 737.518110318 197.129693343 933.321289062 201.405273438 c 6,21,-1
 954.1171875 201.859375 l 5,22,-1
 954.1171875 -0.91796875 l 5,23,-1
 924.09375 -0.537109375 l 6,24,25
 655 3 655 3 494.48046875 110.354492188 c 1,0,1
351.267578125 589.693359375 m 0,26,27
 296 534 296 534 295.646484375 493.7265625 c 0,28,29
 296 430 296 430 361.7734375 364.180664062 c 0,30,31
 443 283 443 283 489.5 283 c 128,-1,32
 536 283 536 283 619.75 360.55078125 c 0,33,34
 682 419 682 419 681.889648438 482.55078125 c 0,35,36
 682 530 682 530 615.747070312 599.674804688 c 0,37,38
 543 677 543 677 491.852539062 677.3984375 c 0,39,40
 438 677 438 677 351.267578125 589.693359375 c 0,26,27
EndSplineSet
EndChar

StartChar: uni066F.fina
Encoding: 65546 -1 271
Width: 1470
VWidth: 3118
GlyphClass: 2
Flags: W
AnchorPoint: "Anchor-10" 344.435 1274.77 basechar 0
AnchorPoint: "Anchor-7" 465.406 -1066.47 basechar 0
LayerCount: 2
Fore
SplineSet
1237.25683594 -1.091796875 m 1,0,-1
 1079.89550781 0.990234375 l 17,1,2
 838 0 838 0 774.3046875 81.7021484375 c 0,3,4
 711 163 711 163 742.064453125 345.862304688 c 0,5,6
 773 528 773 528 890.874023438 638.934570312 c 0,7,8
 966 709 966 709 1054.80957031 709.823242188 c 0,9,10
 1170 710 1170 710 1246.55175781 578.913085938 c 0,11,12
 1324 447 1324 447 1340.36914062 201.754882812 c 1,13,-1
 1480.01074219 202.1328125 l 5,14,-1
 1480.01074219 -1.6796875 l 5,15,-1
 1340.29785156 -1.6796875 l 1,16,-1
 1332 -74 l 24,17,18
 1306 -598 1306 -598 632.138671875 -597.870117188 c 0,19,20
 347 -598 347 -598 208.938476562 -453.727539062 c 0,21,22
 71 -310 71 -310 105.03515625 -66.97265625 c 24,23,24
 121 44 121 44 193.169921875 168.743164062 c 0,25,26
 237 245 237 245 265.26171875 235.946289062 c 0,27,28
 291 227 291 227 277.854492188 198.717773438 c 1,29,-1
 253.659179688 138.552734375 l 26,30,31
 173 -62 173 -62 240.030273438 -200.967773438 c 0,32,33
 338 -402 338 -402 656 -393 c 0,34,35
 1141 -379 1141 -379 1227.21875 -156.807617188 c 1,36,37
 1238 -79 1238 -79 1237.25683594 -1.091796875 c 1,0,-1
1224.83203125 305.247070312 m 0,38,39
 1177 507 1177 507 1031.56542969 507.251953125 c 0,40,41
 902 508 902 508 853.431640625 375.59375 c 0,42,43
 836 328 836 328 836.857421875 255.967773438 c 1,44,45
 869 194 869 194 1234.30957031 203.442382812 c 1,46,47
 1235 258 1235 258 1224.83203125 305.247070312 c 0,38,39
EndSplineSet
EndChar

StartChar: arabic_ring
Encoding: 65549 -1 274
Width: 594
VWidth: 2792
GlyphClass: 2
Flags: W
LayerCount: 2
Fore
SplineSet
369.694335938 427.963867188 m 0,0,1
 338.477539062 446.668945312 338.477539062 446.668945312 310.341308594 446.668945312 c 0,2,3
 216.972950538 446.668945312 216.972950538 446.668945312 177.435546875 381.24609375 c 0,4,5
 158.299804688 349.583007812 158.299804688 349.583007812 158.299804688 297.516113281 c 128,-1,6
 158.299804688 245.44921875 158.299804688 245.44921875 198.94140625 205.537109375 c 128,-1,7
 239.543945312 165.663085938 239.543945312 165.663085938 298.802734375 165.663085938 c 128,-1,8
 358.124023438 165.663085938 358.124023438 165.663085938 398.712890625 206.255859375 c 128,-1,9
 439.306640625 246.84765625 439.306640625 246.84765625 439.306640625 316.556152344 c 128,-1,10
 439.306640625 386.264648438 439.306640625 386.264648438 369.694335938 427.963867188 c 0,0,1
589.447265625 306.166015625 m 128,-1,12
 589.447265625 183.993972451 589.447265625 183.993972451 505.18359375 99.0673828125 c 128,-1,13
 420.9375 14.15625 420.9375 14.15625 298.802734375 14.15625 c 128,-1,14
 176.684570312 14.15625 176.684570312 14.15625 92.4287109375 99.0732421875 c 128,-1,15
 8.1572265625 184.0078125 8.1572265625 184.0078125 8.1572265625 306.166015625 c 128,-1,16
 8.1572265625 428.313476562 8.1572265625 428.313476562 92.4052734375 512.5625 c 128,-1,17
 176.654296875 596.810546875 176.654296875 596.810546875 298.802734375 596.810546875 c 128,-1,18
 420.981837137 596.810546875 420.981837137 596.810546875 505.880859375 513.2421875 c 0,19,11
 589.447265625 428.349609375 589.447265625 428.349609375 589.447265625 306.166015625 c 128,-1,12
EndSplineSet
EndChar

StartChar: arabic_gaf_bar
Encoding: 65550 -1 275
Width: 718
VWidth: 2590
GlyphClass: 2
Flags: W
LayerCount: 2
Fore
SplineSet
697.322265625 2035.26660156 m 1,0,1
 676 1954 676 1954 641.594726562 1896.3515625 c 1,2,-1
 25.2587890625 1634.18652344 l 5,3,-1
 61.818359375 1756.27832031 l 5,4,-1
 697.322265625 2035.26660156 l 1,0,1
EndSplineSet
EndChar

StartChar: uni066E.init.math
Encoding: 65560 -1 285
Width: 1237
VWidth: 3097
GlyphClass: 2
Flags: W
LayerCount: 2
Fore
SplineSet
930.55859375 532.1640625 m 2,0,1
 930.55859375 256.006078778 930.55859375 256.006078778 796.098632812 94.4248046875 c 0,2,3
 694.163085938 -26.3408203125 694.163085938 -26.3408203125 468 -26.3408203125 c 2,4,-1
 -23.9580078125 -26.3408203125 l 1,5,-1
 -23.9580078125 190.020507812 l 1,6,-1
 382.888671875 190.020507812 l 2,7,8
 714.19921875 190.020507812 714.19921875 190.020507812 714.19921875 532.1640625 c 2,9,-1
 714.19921875 833.780273438 l 1,10,-1
 930.55859375 833.780273438 l 1,11,-1
 930.55859375 532.1640625 l 2,0,1
EndSplineSet
EndChar

StartChar: guillemotleft
Encoding: 171 171 286
Width: 1353
VWidth: 2792
Flags: W
LayerCount: 2
Fore
SplineSet
632.509765625 1268.22851562 m 1,0,-1
 604.655273438 1219.25195312 l 2,1,2
 523.270507812 1076.14941406 523.270507812 1076.14941406 482.65625 936.690429688 c 0,3,4
 440.8046875 792.9453125 440.8046875 792.9453125 440.8046875 645.377929688 c 128,-1,5
 440.8046875 497.790039062 440.8046875 497.790039062 482.669921875 353.04296875 c 0,6,7
 523.255859375 212.702148438 523.255859375 212.702148438 604.604492188 70.24609375 c 2,8,-1
 632.599609375 21.220703125 l 1,9,-1
 468.267578125 21.220703125 l 1,10,-1
 458.608398438 36.4306640625 l 2,11,12
 438.868164062 67.52734375 438.868164062 67.52734375 421.106445312 98.408203125 c 128,-1,13
 403.346679688 129.288085938 403.346679688 129.288085938 387.573242188 159.9375 c 0,14,15
 379.6875 175.262695312 379.6875 175.262695312 372.294921875 190.532226562 c 128,-1,16
 364.90234375 205.802734375 364.90234375 205.802734375 358.00390625 221.020507812 c 0,17,18
 344.2109375 251.44921875 344.2109375 251.44921875 332.395507812 281.65234375 c 128,-1,19
 320.58203125 311.848632812 320.58203125 311.848632812 310.741210938 341.833984375 c 0,20,21
 285.69140625 418.182617188 285.69140625 418.182617188 273.1640625 494.099609375 c 0,22,23
 268.989257812 519.393554688 268.989257812 519.393554688 266.20703125 544.6328125 c 128,-1,24
 263.426757812 569.87109375 263.426757812 569.87109375 262.036132812 595.057617188 c 128,-1,25
 260.645507812 620.2421875 260.645507812 620.2421875 260.645507812 645.377929688 c 0,26,27
 260.645507812 657.897460938 260.645507812 657.897460938 260.993164062 670.4296875 c 128,-1,28
 261.341796875 682.959960938 261.341796875 682.959960938 262.036132812 695.50390625 c 128,-1,29
 262.732421875 708.048828125 262.732421875 708.048828125 263.775390625 720.606445312 c 0,30,31
 266.90625 758.27734375 266.90625 758.27734375 273.16796875 796.056640625 c 128,-1,32
 279.430664062 833.834960938 279.430664062 833.834960938 288.82421875 871.73046875 c 0,33,34
 291.172851562 881.204101562 291.172851562 881.204101562 293.717773438 890.685546875 c 128,-1,35
 296.26171875 900.16796875 296.26171875 900.16796875 299.002929688 909.65625 c 128,-1,36
 301.744140625 919.145507812 301.744140625 919.145507812 304.680664062 928.641601562 c 128,-1,37
 307.6171875 938.138671875 307.6171875 938.138671875 310.75 947.643554688 c 0,38,39
 323.05859375 984.970703125 323.05859375 984.970703125 338.451171875 1022.72070312 c 128,-1,40
 353.845703125 1060.47949219 353.845703125 1060.47949219 372.3203125 1098.640625 c 128,-1,41
 390.798828125 1136.80664062 390.798828125 1136.80664062 412.362304688 1175.38476562 c 0,42,43
 423.14453125 1194.67578125 423.14453125 1194.67578125 434.69921875 1214.0703125 c 128,-1,44
 446.2578125 1233.46777344 446.2578125 1233.46777344 458.583984375 1252.96484375 c 2,45,-1
 468.237304688 1268.22851562 l 1,46,-1
 632.509765625 1268.22851562 l 1,0,-1
1145.5234375 1268.22851562 m 1,47,-1
 1117.66796875 1219.25195312 l 2,48,49
 1076.9765625 1147.70117188 1076.9765625 1147.70117188 1046.47949219 1077.078125 c 128,-1,50
 1015.96679688 1006.421875 1015.96679688 1006.421875 995.669921875 936.690429688 c 0,51,52
 985.20703125 900.7578125 985.20703125 900.7578125 977.360351562 864.583007812 c 128,-1,53
 969.512695312 828.41015625 969.512695312 828.41015625 964.28125 791.998046875 c 0,54,55
 963.7578125 788.356445312 963.7578125 788.356445312 963.26171875 784.712890625 c 128,-1,56
 962.763671875 781.068359375 962.763671875 781.068359375 962.293945312 777.421875 c 128,-1,57
 961.822265625 773.775390625 961.822265625 773.775390625 961.37890625 770.126953125 c 128,-1,58
 960.93359375 766.477539062 960.93359375 766.477539062 960.515625 762.827148438 c 128,-1,59
 960.096679688 759.17578125 960.096679688 759.17578125 959.704101562 755.522460938 c 0,60,61
 957.741210938 737.255859375 957.741210938 737.255859375 956.432617188 718.926757812 c 128,-1,62
 955.124023438 700.598632812 955.124023438 700.598632812 954.469726562 682.211914062 c 128,-1,63
 953.817382812 663.823242188 953.817382812 663.823242188 953.817382812 645.377929688 c 0,64,65
 953.817382812 633.079101562 953.817382812 633.079101562 954.107421875 620.798828125 c 128,-1,66
 954.399414062 608.51953125 954.399414062 608.51953125 954.98046875 596.258789062 c 128,-1,67
 955.561523438 583.999023438 955.561523438 583.999023438 956.434570312 571.756835938 c 128,-1,68
 957.306640625 559.516601562 957.306640625 559.516601562 958.469726562 547.294921875 c 128,-1,69
 959.633789062 535.07421875 959.633789062 535.07421875 961.086914062 522.87109375 c 128,-1,70
 962.541015625 510.669921875 962.541015625 510.669921875 964.286132812 498.487304688 c 0,71,72
 974.752929688 425.3984375 974.752929688 425.3984375 995.682617188 353.04296875 c 0,73,74
 1005.83300781 317.9375 1005.83300781 317.9375 1018.53515625 282.706054688 c 128,-1,75
 1031.23632812 247.475585938 1031.23632812 247.475585938 1046.48144531 212.122070312 c 0,76,77
 1076.95410156 141.45703125 1076.95410156 141.45703125 1117.62011719 70.24609375 c 2,78,-1
 1145.61035156 21.220703125 l 1,79,-1
 981.279296875 21.220703125 l 1,80,-1
 971.622070312 36.4306640625 l 2,81,82
 946.959960938 75.275390625 946.959960938 75.275390625 925.387695312 113.7890625 c 128,-1,83
 903.814453125 152.301757812 903.814453125 152.301757812 885.331054688 190.484375 c 0,84,85
 848.381835938 266.814453125 848.381835938 266.814453125 823.755859375 341.833984375 c 0,86,87
 819.578125 354.56640625 819.578125 354.56640625 815.749023438 367.284179688 c 128,-1,88
 811.919921875 380.002929688 811.919921875 380.002929688 808.439453125 392.70703125 c 128,-1,89
 804.959960938 405.409179688 804.959960938 405.409179688 801.828125 418.098632812 c 128,-1,90
 798.696289062 430.786132812 798.696289062 430.786132812 795.913085938 443.461914062 c 128,-1,91
 793.129882812 456.135742188 793.129882812 456.135742188 790.694335938 468.794921875 c 128,-1,92
 788.259765625 481.454101562 788.259765625 481.454101562 786.173828125 494.099609375 c 0,93,94
 773.657226562 569.962890625 773.657226562 569.962890625 773.657226562 645.377929688 c 0,95,96
 773.657226562 720.50390625 773.657226562 720.50390625 786.17578125 796.045898438 c 0,97,98
 790.350585938 821.232421875 790.350585938 821.232421875 795.916992188 846.46875 c 128,-1,99
 801.483398438 871.706054688 801.483398438 871.706054688 808.4453125 897.000976562 c 128,-1,100
 815.408203125 922.295898438 815.408203125 922.295898438 823.765625 947.643554688 c 0,101,102
 848.362304688 1022.25390625 848.362304688 1022.25390625 885.313476562 1098.58789062 c 128,-1,103
 922.278320312 1174.94628906 922.278320312 1174.94628906 971.599609375 1252.96679688 c 2,104,-1
 981.25 1268.22851562 l 1,105,-1
 1145.5234375 1268.22851562 l 1,47,-1
EndSplineSet
EndChar

StartChar: guillemotright
Encoding: 187 187 287
Width: 1353
VWidth: 2792
Flags: W
LayerCount: 2
Fore
SplineSet
725.064453125 1268.22851562 m 1,0,-1
 889.337890625 1268.22851562 l 1,1,-1
 898.986328125 1252.96679688 l 2,2,3
 902.071289062 1248.08984375 902.071289062 1248.08984375 905.106445312 1243.21777344 c 128,-1,4
 908.142578125 1238.34667969 908.142578125 1238.34667969 911.12890625 1233.48242188 c 128,-1,5
 914.116210938 1228.61816406 914.116210938 1228.61816406 917.055664062 1223.75976562 c 128,-1,6
 919.994140625 1218.90234375 919.994140625 1218.90234375 922.883789062 1214.05175781 c 0,7,8
 934.444335938 1194.64746094 934.444335938 1194.64746094 945.232421875 1175.34765625 c 0,9,10
 950.625 1165.69921875 950.625 1165.69921875 955.82421875 1156.078125 c 128,-1,11
 961.024414062 1146.45605469 961.024414062 1146.45605469 966.030273438 1136.86132812 c 0,12,13
 976.041992188 1117.671875 976.041992188 1117.671875 985.282226562 1098.58691406 c 0,14,15
 997.598632812 1073.14550781 997.598632812 1073.14550781 1008.54296875 1047.890625 c 128,-1,16
 1019.48730469 1022.63574219 1019.48730469 1022.63574219 1029.05664062 997.576171875 c 128,-1,17
 1038.62597656 972.516601562 1038.62597656 972.516601562 1046.82324219 947.643554688 c 0,18,19
 1096.92871094 795.6640625 1096.92871094 795.6640625 1096.92871094 645.377929688 c 0,20,21
 1096.92871094 620.241210938 1096.92871094 620.241210938 1095.53808594 595.052734375 c 0,22,23
 1095.07421875 586.65625 1095.07421875 586.65625 1094.45703125 578.25390625 c 128,-1,24
 1093.83789062 569.8515625 1093.83789062 569.8515625 1093.06542969 561.443359375 c 128,-1,25
 1092.29394531 553.03515625 1092.29394531 553.03515625 1091.36621094 544.622070312 c 0,26,27
 1088.58105469 519.375976562 1088.58105469 519.375976562 1084.40820312 494.08203125 c 128,-1,28
 1080.23632812 468.7890625 1080.23632812 468.7890625 1074.66992188 443.444335938 c 0,29,30
 1063.53613281 392.740234375 1063.53613281 392.740234375 1046.83300781 341.834960938 c 0,31,32
 997.680664062 192.104492188 997.680664062 192.104492188 899.220703125 36.8369140625 c 2,33,-1
 889.30859375 21.220703125 l 1,34,-1
 724.975585938 21.220703125 l 1,35,-1
 752.96875 70.24609375 l 2,36,37
 834.34765625 212.766601562 834.34765625 212.766601562 874.904296875 353.041015625 c 0,38,39
 895.833984375 425.400390625 895.833984375 425.400390625 906.299804688 498.489257812 c 128,-1,40
 916.770507812 571.584960938 916.770507812 571.584960938 916.770507812 645.377929688 c 128,-1,41
 916.770507812 719.158203125 916.770507812 719.158203125 906.306640625 791.998046875 c 128,-1,42
 895.840820312 864.83203125 895.840820312 864.83203125 874.919921875 936.690429688 c 0,43,44
 834.294921875 1076.22363281 834.294921875 1076.22363281 752.921875 1219.25195312 c 2,45,-1
 725.064453125 1268.22851562 l 1,0,-1
212.051757812 1268.22851562 m 1,46,-1
 376.323242188 1268.22851562 l 1,47,-1
 385.97265625 1252.96679688 l 2,48,49
 435.274414062 1174.99121094 435.274414062 1174.99121094 472.231445312 1098.65722656 c 128,-1,50
 509.1875 1022.32421875 509.1875 1022.32421875 533.809570312 947.642578125 c 0,51,52
 583.91796875 795.66015625 583.91796875 795.66015625 583.91796875 645.377929688 c 0,53,54
 583.91796875 620.241210938 583.91796875 620.241210938 582.528320312 595.053710938 c 128,-1,55
 581.13671875 569.865234375 581.13671875 569.865234375 578.352539062 544.624023438 c 128,-1,56
 575.5703125 519.376953125 575.5703125 519.376953125 571.396484375 494.084960938 c 128,-1,57
 567.223632812 468.791992188 567.223632812 468.791992188 561.657226562 443.447265625 c 0,58,59
 550.521484375 392.7421875 550.521484375 392.7421875 533.818359375 341.834960938 c 0,60,61
 521.516601562 304.356445312 521.516601562 304.356445312 506.12890625 266.534179688 c 128,-1,62
 490.7421875 228.713867188 490.7421875 228.713867188 472.263671875 190.537109375 c 128,-1,63
 453.783203125 152.361328125 453.783203125 152.361328125 432.204101562 113.830078125 c 128,-1,64
 410.622070312 75.294921875 410.622070312 75.294921875 385.952148438 36.4306640625 c 2,65,-1
 376.293945312 21.220703125 l 1,66,-1
 211.963867188 21.220703125 l 1,67,-1
 239.956054688 70.24609375 l 2,68,69
 321.333984375 212.765625 321.333984375 212.765625 361.893554688 353.041992188 c 0,70,71
 382.822265625 425.404296875 382.822265625 425.404296875 393.290039062 498.495117188 c 128,-1,72
 403.756835938 571.584960938 403.756835938 571.584960938 403.756835938 645.377929688 c 0,73,74
 403.756835938 666.458007812 403.756835938 666.458007812 402.901367188 687.461914062 c 0,75,76
 402.474609375 697.963867188 402.474609375 697.963867188 401.833984375 708.447265625 c 128,-1,77
 401.193359375 718.930664062 401.193359375 718.930664062 400.337890625 729.393554688 c 0,78,79
 398.630859375 750.3203125 398.630859375 750.3203125 396.067382812 771.170898438 c 0,80,81
 395.211914062 778.12109375 395.211914062 778.12109375 394.263671875 785.061523438 c 128,-1,82
 393.314453125 792.002929688 393.314453125 792.002929688 392.26953125 798.935546875 c 128,-1,83
 391.225585938 805.8671875 391.225585938 805.8671875 390.086914062 812.790039062 c 0,84,85
 386.669921875 833.560546875 386.669921875 833.560546875 382.399414062 854.251953125 c 128,-1,86
 378.130859375 874.943359375 378.130859375 874.943359375 373.005859375 895.552734375 c 128,-1,87
 367.881835938 916.162109375 367.881835938 916.162109375 361.90625 936.690429688 c 0,88,89
 321.283203125 1076.22363281 321.283203125 1076.22363281 239.907226562 1219.25195312 c 2,90,-1
 212.051757812 1268.22851562 l 1,46,-1
EndSplineSet
EndChar

StartChar: exclam
Encoding: 33 33 296
Width: 759
VWidth: -1
Flags: W
LayerCount: 2
Fore
SplineSet
241.838867188 148.96875 m 128,-1,1
 241.838867188 205.913085938 241.838867188 205.913085938 281.911702345 245.986571565 c 128,-1,2
 321.984537501 286.060057191 321.984537501 286.060057191 380.002522657 286.059813752 c 128,-1,3
 438.020507812 286.059570312 438.020507812 286.059570312 478.10546875 245.9765625 c 128,-1,4
 518.168945312 205.913085938 518.168945312 205.913085938 518.168945312 148.96875 c 128,-1,5
 518.168945312 92.025390625 518.168945312 92.025390625 478.10546875 51.962890625 c 128,-1,6
 438.020507812 11.8798828125 438.020507812 11.8798828125 380.002929687 11.8798828125 c 128,-1,7
 321.985351562 11.8798828125 321.985351562 11.8798828125 281.901367188 51.962890625 c 128,-1,0
 241.838867188 92.025390625 241.838867188 92.025390625 241.838867188 148.96875 c 128,-1,1
259.615234375 1532.21289062 m 0,8,9
 260.374819655 1640.3708941 260.374819655 1640.3708941 364.051757812 1639.61132812 c 2,10,-1
 402.309570312 1639.61132812 l 2,11,12
 412 1640 412 1640 413.944335938 1639.21386719 c 0,13,14
 502.364334036 1632.97428986 502.364334036 1632.97428986 492.9375 1512.06542969 c 2,15,-1
 420.081054688 577.606445312 l 2,16,17
 413 482 413 482 379.8671875 481.725585938 c 0,18,19
 348.658718501 482.003034045 348.658718501 482.003034045 340.465820312 577.6640625 c 2,20,-1
 260.54296875 1510.85058594 l 2,21,22
 260 1518 260 1518 259.615234375 1532.21289062 c 0,8,9
EndSplineSet
EndChar

StartChar: period
Encoding: 46 46 297
Width: 822
VWidth: 2799
Flags: W
LayerCount: 2
Fore
SplineSet
305.040039062 148.96875 m 128,-1,1
 305.040039062 205.913085938 305.040039062 205.913085938 345.102539062 245.9765625 c 0,2,3
 365.202148438 266.076171875 365.202148438 266.076171875 389.522460938 276.200195312 c 128,-1,4
 413.841796875 286.323242188 413.841796875 286.323242188 442.657226562 286.587890625 c 0,5,6
 501.221679688 286.059570312 501.221679688 286.059570312 541.306640625 245.9765625 c 128,-1,7
 581.370117188 205.913085938 581.370117188 205.913085938 581.370117188 148.96875 c 128,-1,8
 581.370117188 92.025390625 581.370117188 92.025390625 541.306640625 51.962890625 c 128,-1,9
 501.221679688 11.8798828125 501.221679688 11.8798828125 443.751953125 11.3515625 c 0,10,11
 385.186523438 11.8798828125 385.186523438 11.8798828125 345.102539062 51.962890625 c 128,-1,0
 305.040039062 92.025390625 305.040039062 92.025390625 305.040039062 148.96875 c 128,-1,1
EndSplineSet
EndChar

StartChar: colon
Encoding: 58 58 298
Width: 822
VWidth: 2799
Flags: W
LayerCount: 2
Fore
SplineSet
304.362304688 871.283203125 m 0,0,1
 304.362304688 928.2265625 304.362304688 928.2265625 344.42578125 968.291015625 c 128,-1,2
 384.510742188 1008.37402344 384.510742188 1008.37402344 441.979492188 1008.90136719 c 0,3,4
 471.348632812 1008.63769531 471.348632812 1008.63769531 495.9453125 998.508789062 c 128,-1,5
 520.541015625 988.37890625 520.541015625 988.37890625 540.630859375 968.291015625 c 0,6,7
 580.692382812 928.2265625 580.692382812 928.2265625 580.692382812 871.283203125 c 128,-1,8
 580.692382812 814.33984375 580.692382812 814.33984375 540.630859375 774.276367188 c 128,-1,9
 500.545898438 734.194335938 500.545898438 734.194335938 443.075195312 733.666015625 c 0,10,11
 384.510742188 734.194335938 384.510742188 734.194335938 344.42578125 774.276367188 c 0,12,13
 324.319335938 794.3828125 324.319335938 794.3828125 314.340820312 818.541992188 c 128,-1,14
 304.362304688 842.700195312 304.362304688 842.700195312 304.362304688 871.283203125 c 0,0,1
305.040039062 148.96875 m 128,-1,16
 305.040039062 205.913085938 305.040039062 205.913085938 345.102539062 245.9765625 c 0,17,18
 365.202148438 266.076171875 365.202148438 266.076171875 389.522460938 276.200195312 c 128,-1,19
 413.841796875 286.323242188 413.841796875 286.323242188 442.657226562 286.587890625 c 0,20,21
 501.221679688 286.059570312 501.221679688 286.059570312 541.306640625 245.9765625 c 128,-1,22
 581.370117188 205.913085938 581.370117188 205.913085938 581.370117188 148.96875 c 128,-1,23
 581.370117188 92.025390625 581.370117188 92.025390625 541.306640625 51.962890625 c 128,-1,24
 501.221679688 11.8798828125 501.221679688 11.8798828125 443.751953125 11.3515625 c 0,25,26
 385.186523438 11.8798828125 385.186523438 11.8798828125 345.102539062 51.962890625 c 128,-1,15
 305.040039062 92.025390625 305.040039062 92.025390625 305.040039062 148.96875 c 128,-1,16
EndSplineSet
EndChar
